<?xml version="1.0" encoding="utf-8" standalone="no"?>
<!DOCTYPE svg PUBLIC "-//W3C//DTD SVG 1.1//EN"
  "http://www.w3.org/Graphics/SVG/1.1/DTD/svg11.dtd">
<svg xmlns:xlink="http://www.w3.org/1999/xlink" width="998.64pt" height="569.965812pt" viewBox="0 0 998.64 569.965812" xmlns="http://www.w3.org/2000/svg" version="1.1">
 <metadata>
  <rdf:RDF xmlns:dc="http://purl.org/dc/elements/1.1/" xmlns:cc="http://creativecommons.org/ns#" xmlns:rdf="http://www.w3.org/1999/02/22-rdf-syntax-ns#">
   <cc:Work>
    <dc:type rdf:resource="http://purl.org/dc/dcmitype/StillImage"/>
    <dc:date>2026-04-08T18:03:21.549129</dc:date>
    <dc:format>image/svg+xml</dc:format>
    <dc:creator>
     <cc:Agent>
      <dc:title>Matplotlib v3.10.8, https://matplotlib.org/</dc:title>
     </cc:Agent>
    </dc:creator>
   </cc:Work>
  </rdf:RDF>
 </metadata>
 <defs>
  <style type="text/css">*{stroke-linejoin: round; stroke-linecap: butt}</style>
 </defs>
 <g id="figure_1">
  <g id="patch_1">
   <path d="M 0 569.965812 
L 998.64 569.965812 
L 998.64 0 
L 0 0 
z
" style="fill: #ffffff"/>
  </g>
  <g id="axes_1">
   <g id="patch_2">
    <path d="M 204.048 234.685812 
C 221.449567 234.685812 238.140753 227.772097 250.445519 215.467331 
C 262.750284 203.162565 269.664 186.471379 269.664 169.069812 
C 269.664 151.668246 262.750284 134.97706 250.445519 122.672294 
C 238.140753 110.367528 221.449567 103.453812 204.048 103.453812 
C 186.646433 103.453812 169.955247 110.367528 157.650481 122.672294 
C 145.345716 134.97706 138.432 151.668246 138.432 169.069812 
C 138.432 186.471379 145.345716 203.162565 157.650481 215.467331 
C 169.955247 227.772097 186.646433 234.685812 204.048 234.685812 
z
" clip-path="url(#p76331cc10d)" style="fill: #add8e6; stroke: #00008b; stroke-width: 2; stroke-linejoin: miter"/>
   </g>
   <g id="patch_3">
    <path d="M 400.896 234.685812 
C 418.297567 234.685812 434.988753 227.772097 447.293519 215.467331 
C 459.598284 203.162565 466.512 186.471379 466.512 169.069812 
C 466.512 151.668246 459.598284 134.97706 447.293519 122.672294 
C 434.988753 110.367528 418.297567 103.453812 400.896 103.453812 
C 383.494433 103.453812 366.803247 110.367528 354.498481 122.672294 
C 342.193716 134.97706 335.28 151.668246 335.28 169.069812 
C 335.28 186.471379 342.193716 203.162565 354.498481 215.467331 
C 366.803247 227.772097 383.494433 234.685812 400.896 234.685812 
z
" clip-path="url(#p76331cc10d)" style="fill: #add8e6; stroke: #00008b; stroke-width: 2; stroke-linejoin: miter"/>
   </g>
   <g id="patch_4">
    <path d="M 597.744 234.685812 
C 615.145567 234.685812 631.836753 227.772097 644.141519 215.467331 
C 656.446284 203.162565 663.36 186.471379 663.36 169.069812 
C 663.36 151.668246 656.446284 134.97706 644.141519 122.672294 
C 631.836753 110.367528 615.145567 103.453812 597.744 103.453812 
C 580.342433 103.453812 563.651247 110.367528 551.346481 122.672294 
C 539.041716 134.97706 532.128 151.668246 532.128 169.069812 
C 532.128 186.471379 539.041716 203.162565 551.346481 215.467331 
C 563.651247 227.772097 580.342433 234.685812 597.744 234.685812 
z
" clip-path="url(#p76331cc10d)" style="fill: #add8e6; stroke: #00008b; stroke-width: 2; stroke-linejoin: miter"/>
   </g>
   <g id="patch_5">
    <path d="M 794.592 234.685812 
C 811.993567 234.685812 828.684753 227.772097 840.989519 215.467331 
C 853.294284 203.162565 860.208 186.471379 860.208 169.069812 
C 860.208 151.668246 853.294284 134.97706 840.989519 122.672294 
C 828.684753 110.367528 811.993567 103.453812 794.592 103.453812 
C 777.190433 103.453812 760.499247 110.367528 748.194481 122.672294 
C 735.889716 134.97706 728.976 151.668246 728.976 169.069812 
C 728.976 186.471379 735.889716 203.162565 748.194481 215.467331 
C 760.499247 227.772097 777.190433 234.685812 794.592 234.685812 
z
" clip-path="url(#p76331cc10d)" style="fill: #add8e6; stroke: #00008b; stroke-width: 2; stroke-linejoin: miter"/>
   </g>
   <g id="patch_6">
    <path d="M 499.32 510.273012 
C 520.20188 510.273012 540.231303 501.976554 554.997022 487.210835 
C 569.762741 472.445116 578.0592 452.415692 578.0592 431.533812 
C 578.0592 410.651933 569.762741 390.622509 554.997022 375.85679 
C 540.231303 361.091071 520.20188 352.794612 499.32 352.794612 
C 478.43812 352.794612 458.408697 361.091071 443.642978 375.85679 
C 428.877259 390.622509 420.5808 410.651933 420.5808 431.533812 
C 420.5808 452.415692 428.877259 472.445116 443.642978 487.210835 
C 458.408697 501.976554 478.43812 510.273012 499.32 510.273012 
z
" clip-path="url(#p76331cc10d)" style="fill: #ffa500; stroke: #ff0000; stroke-width: 2; stroke-linejoin: miter"/>
   </g>
   <g id="line2d_1">
    <path d="M 204.048 234.685812 
L 499.32 352.794612 
" clip-path="url(#p76331cc10d)" style="fill: none; stroke: #000000; stroke-width: 2; stroke-linecap: square"/>
   </g>
   <g id="line2d_2">
    <path d="M 400.896 234.685812 
L 499.32 352.794612 
" clip-path="url(#p76331cc10d)" style="fill: none; stroke: #000000; stroke-width: 2; stroke-linecap: square"/>
   </g>
   <g id="line2d_3">
    <path d="M 597.744 234.685812 
L 499.32 352.794612 
" clip-path="url(#p76331cc10d)" style="fill: none; stroke: #000000; stroke-width: 2; stroke-linecap: square"/>
   </g>
   <g id="line2d_4">
    <path d="M 794.592 234.685812 
L 499.32 352.794612 
" clip-path="url(#p76331cc10d)" style="fill: none; stroke: #000000; stroke-width: 2; stroke-linecap: square"/>
   </g>
   <g id="text_1">
    <!-- LBW SW 0 -->
    <g transform="translate(175.7355 165.267587) scale(0.1 -0.1)">
     <defs>
      <path id="DejaVuSans-Bold-4c" d="M 588 4666 
L 1791 4666 
L 1791 909 
L 3903 909 
L 3903 0 
L 588 0 
L 588 4666 
z
" transform="scale(0.015625)"/>
      <path id="DejaVuSans-Bold-42" d="M 2456 2859 
Q 2741 2859 2887 2984 
Q 3034 3109 3034 3353 
Q 3034 3594 2887 3720 
Q 2741 3847 2456 3847 
L 1791 3847 
L 1791 2859 
L 2456 2859 
z
M 2497 819 
Q 2859 819 3042 972 
Q 3225 1125 3225 1434 
Q 3225 1738 3044 1889 
Q 2863 2041 2497 2041 
L 1791 2041 
L 1791 819 
L 2497 819 
z
M 3616 2497 
Q 4003 2384 4215 2081 
Q 4428 1778 4428 1338 
Q 4428 663 3972 331 
Q 3516 0 2584 0 
L 588 0 
L 588 4666 
L 2394 4666 
Q 3366 4666 3802 4372 
Q 4238 4078 4238 3431 
Q 4238 3091 4078 2852 
Q 3919 2613 3616 2497 
z
" transform="scale(0.015625)"/>
      <path id="DejaVuSans-Bold-57" d="M 191 4666 
L 1344 4666 
L 2150 1275 
L 2950 4666 
L 4109 4666 
L 4909 1275 
L 5716 4666 
L 6859 4666 
L 5759 0 
L 4372 0 
L 3525 3547 
L 2688 0 
L 1300 0 
L 191 4666 
z
" transform="scale(0.015625)"/>
      <path id="DejaVuSans-Bold-20" transform="scale(0.015625)"/>
      <path id="DejaVuSans-Bold-53" d="M 3834 4519 
L 3834 3531 
Q 3450 3703 3084 3790 
Q 2719 3878 2394 3878 
Q 1963 3878 1756 3759 
Q 1550 3641 1550 3391 
Q 1550 3203 1689 3098 
Q 1828 2994 2194 2919 
L 2706 2816 
Q 3484 2659 3812 2340 
Q 4141 2022 4141 1434 
Q 4141 663 3683 286 
Q 3225 -91 2284 -91 
Q 1841 -91 1394 -6 
Q 947 78 500 244 
L 500 1259 
Q 947 1022 1364 901 
Q 1781 781 2169 781 
Q 2563 781 2772 912 
Q 2981 1044 2981 1288 
Q 2981 1506 2839 1625 
Q 2697 1744 2272 1838 
L 1806 1941 
Q 1106 2091 782 2419 
Q 459 2747 459 3303 
Q 459 4000 909 4375 
Q 1359 4750 2203 4750 
Q 2588 4750 2994 4692 
Q 3400 4634 3834 4519 
z
" transform="scale(0.015625)"/>
      <path id="DejaVuSans-Bold-30" d="M 2944 2338 
Q 2944 3213 2780 3570 
Q 2616 3928 2228 3928 
Q 1841 3928 1675 3570 
Q 1509 3213 1509 2338 
Q 1509 1453 1675 1090 
Q 1841 728 2228 728 
Q 2613 728 2778 1090 
Q 2944 1453 2944 2338 
z
M 4147 2328 
Q 4147 1169 3647 539 
Q 3147 -91 2228 -91 
Q 1306 -91 806 539 
Q 306 1169 306 2328 
Q 306 3491 806 4120 
Q 1306 4750 2228 4750 
Q 3147 4750 3647 4120 
Q 4147 3491 4147 2328 
z
" transform="scale(0.015625)"/>
     </defs>
     <use xlink:href="#DejaVuSans-Bold-4c"/>
     <use xlink:href="#DejaVuSans-Bold-42" transform="translate(63.720703 0)"/>
     <use xlink:href="#DejaVuSans-Bold-57" transform="translate(134.441406 0)"/>
     <use xlink:href="#DejaVuSans-Bold-20" transform="translate(244.744141 0)"/>
     <use xlink:href="#DejaVuSans-Bold-53" transform="translate(279.558594 0)"/>
     <use xlink:href="#DejaVuSans-Bold-57" transform="translate(351.580078 0)"/>
     <use xlink:href="#DejaVuSans-Bold-20" transform="translate(461.882812 0)"/>
     <use xlink:href="#DejaVuSans-Bold-30" transform="translate(496.697266 0)"/>
    </g>
   </g>
   <g id="text_2">
    <!-- (Shanghai) -->
    <g transform="translate(179.501906 184.67645) scale(0.09 -0.09)">
     <defs>
      <path id="DejaVuSans-Oblique-28" d="M 2731 4856 
Q 1903 3822 1495 2892 
Q 1088 1963 1088 1100 
Q 1088 606 1206 120 
Q 1325 -366 1563 -844 
L 1063 -844 
Q 775 -306 634 201 
Q 494 709 494 1197 
Q 494 2125 923 3036 
Q 1353 3947 2222 4856 
L 2731 4856 
z
" transform="scale(0.015625)"/>
      <path id="DejaVuSans-Oblique-53" d="M 3859 4513 
L 3738 3897 
Q 3422 4066 3111 4152 
Q 2800 4238 2509 4238 
Q 1944 4238 1609 3991 
Q 1275 3744 1275 3334 
Q 1275 3109 1398 2989 
Q 1522 2869 2034 2731 
L 2413 2638 
Q 3053 2472 3303 2217 
Q 3553 1963 3553 1503 
Q 3553 797 2998 353 
Q 2444 -91 1538 -91 
Q 1166 -91 791 -17 
Q 416 56 38 206 
L 166 856 
Q 513 641 861 531 
Q 1209 422 1556 422 
Q 2147 422 2503 684 
Q 2859 947 2859 1369 
Q 2859 1650 2717 1795 
Q 2575 1941 2106 2059 
L 1728 2156 
Q 1081 2325 845 2545 
Q 609 2766 609 3163 
Q 609 3859 1145 4304 
Q 1681 4750 2541 4750 
Q 2875 4750 3203 4690 
Q 3531 4631 3859 4513 
z
" transform="scale(0.015625)"/>
      <path id="DejaVuSans-Oblique-68" d="M 3566 2113 
L 3156 0 
L 2578 0 
L 2988 2091 
Q 3016 2238 3031 2350 
Q 3047 2463 3047 2528 
Q 3047 2791 2881 2937 
Q 2716 3084 2419 3084 
Q 1956 3084 1617 2771 
Q 1278 2459 1178 1941 
L 800 0 
L 225 0 
L 1172 4863 
L 1747 4863 
L 1375 2950 
Q 1594 3244 1934 3414 
Q 2275 3584 2650 3584 
Q 3113 3584 3367 3334 
Q 3622 3084 3622 2631 
Q 3622 2519 3608 2391 
Q 3594 2263 3566 2113 
z
" transform="scale(0.015625)"/>
      <path id="DejaVuSans-Oblique-61" d="M 3438 1997 
L 3047 0 
L 2472 0 
L 2578 531 
Q 2325 219 2001 64 
Q 1678 -91 1281 -91 
Q 834 -91 548 182 
Q 263 456 263 884 
Q 263 1497 752 1853 
Q 1241 2209 2100 2209 
L 2900 2209 
L 2931 2363 
Q 2938 2388 2941 2417 
Q 2944 2447 2944 2509 
Q 2944 2788 2717 2942 
Q 2491 3097 2081 3097 
Q 1800 3097 1504 3025 
Q 1209 2953 897 2809 
L 997 3341 
Q 1322 3463 1633 3523 
Q 1944 3584 2234 3584 
Q 2853 3584 3176 3315 
Q 3500 3047 3500 2534 
Q 3500 2431 3484 2292 
Q 3469 2153 3438 1997 
z
M 2816 1759 
L 2241 1759 
Q 1534 1759 1195 1570 
Q 856 1381 856 984 
Q 856 709 1029 553 
Q 1203 397 1509 397 
Q 1978 397 2328 733 
Q 2678 1069 2791 1631 
L 2816 1759 
z
" transform="scale(0.015625)"/>
      <path id="DejaVuSans-Oblique-6e" d="M 3566 2113 
L 3156 0 
L 2578 0 
L 2988 2091 
Q 3016 2238 3031 2350 
Q 3047 2463 3047 2528 
Q 3047 2791 2881 2937 
Q 2716 3084 2419 3084 
Q 1956 3084 1622 2776 
Q 1288 2469 1184 1941 
L 800 0 
L 225 0 
L 903 3500 
L 1478 3500 
L 1363 2950 
Q 1603 3253 1940 3418 
Q 2278 3584 2650 3584 
Q 3113 3584 3367 3334 
Q 3622 3084 3622 2631 
Q 3622 2519 3608 2391 
Q 3594 2263 3566 2113 
z
" transform="scale(0.015625)"/>
      <path id="DejaVuSans-Oblique-67" d="M 3816 3500 
L 3219 434 
Q 3047 -456 2561 -893 
Q 2075 -1331 1253 -1331 
Q 950 -1331 690 -1286 
Q 431 -1241 206 -1147 
L 313 -588 
Q 525 -725 762 -790 
Q 1000 -856 1269 -856 
Q 1816 -856 2167 -557 
Q 2519 -259 2631 300 
L 2681 563 
Q 2441 288 2122 144 
Q 1803 0 1434 0 
Q 903 0 598 351 
Q 294 703 294 1319 
Q 294 1803 478 2267 
Q 663 2731 997 3091 
Q 1219 3328 1514 3456 
Q 1809 3584 2131 3584 
Q 2484 3584 2746 3420 
Q 3009 3256 3138 2956 
L 3238 3500 
L 3816 3500 
z
M 2950 2216 
Q 2950 2641 2750 2872 
Q 2550 3103 2181 3103 
Q 1953 3103 1747 3012 
Q 1541 2922 1394 2759 
Q 1156 2491 1023 2127 
Q 891 1763 891 1375 
Q 891 944 1092 712 
Q 1294 481 1672 481 
Q 2219 481 2584 976 
Q 2950 1472 2950 2216 
z
" transform="scale(0.015625)"/>
      <path id="DejaVuSans-Oblique-69" d="M 1172 4863 
L 1747 4863 
L 1606 4134 
L 1031 4134 
L 1172 4863 
z
M 909 3500 
L 1484 3500 
L 800 0 
L 225 0 
L 909 3500 
z
" transform="scale(0.015625)"/>
      <path id="DejaVuSans-Oblique-29" d="M -397 -844 
Q 434 191 840 1120 
Q 1247 2050 1247 2913 
Q 1247 3406 1130 3892 
Q 1013 4378 775 4856 
L 1275 4856 
Q 1563 4316 1703 3812 
Q 1844 3309 1844 2822 
Q 1844 1891 1411 973 
Q 978 56 116 -844 
L -397 -844 
z
" transform="scale(0.015625)"/>
     </defs>
     <use xlink:href="#DejaVuSans-Oblique-28"/>
     <use xlink:href="#DejaVuSans-Oblique-53" transform="translate(39.013672 0)"/>
     <use xlink:href="#DejaVuSans-Oblique-68" transform="translate(102.490234 0)"/>
     <use xlink:href="#DejaVuSans-Oblique-61" transform="translate(165.869141 0)"/>
     <use xlink:href="#DejaVuSans-Oblique-6e" transform="translate(227.148438 0)"/>
     <use xlink:href="#DejaVuSans-Oblique-67" transform="translate(290.527344 0)"/>
     <use xlink:href="#DejaVuSans-Oblique-68" transform="translate(354.003906 0)"/>
     <use xlink:href="#DejaVuSans-Oblique-61" transform="translate(417.382812 0)"/>
     <use xlink:href="#DejaVuSans-Oblique-69" transform="translate(478.662109 0)"/>
     <use xlink:href="#DejaVuSans-Oblique-29" transform="translate(506.445312 0)"/>
    </g>
   </g>
   <g id="text_3">
    <!-- LBW SW 1 -->
    <g transform="translate(372.5835 165.267587) scale(0.1 -0.1)">
     <defs>
      <path id="DejaVuSans-Bold-31" d="M 750 831 
L 1813 831 
L 1813 3847 
L 722 3622 
L 722 4441 
L 1806 4666 
L 2950 4666 
L 2950 831 
L 4013 831 
L 4013 0 
L 750 0 
L 750 831 
z
" transform="scale(0.015625)"/>
     </defs>
     <use xlink:href="#DejaVuSans-Bold-4c"/>
     <use xlink:href="#DejaVuSans-Bold-42" transform="translate(63.720703 0)"/>
     <use xlink:href="#DejaVuSans-Bold-57" transform="translate(134.441406 0)"/>
     <use xlink:href="#DejaVuSans-Bold-20" transform="translate(244.744141 0)"/>
     <use xlink:href="#DejaVuSans-Bold-53" transform="translate(279.558594 0)"/>
     <use xlink:href="#DejaVuSans-Bold-57" transform="translate(351.580078 0)"/>
     <use xlink:href="#DejaVuSans-Bold-20" transform="translate(461.882812 0)"/>
     <use xlink:href="#DejaVuSans-Bold-31" transform="translate(496.697266 0)"/>
    </g>
   </g>
   <g id="text_4">
    <!-- (Suzhou) -->
    <g transform="translate(380.856937 184.67645) scale(0.09 -0.09)">
     <defs>
      <path id="DejaVuSans-Oblique-75" d="M 428 1388 
L 838 3500 
L 1416 3500 
L 1006 1409 
Q 975 1256 961 1147 
Q 947 1038 947 966 
Q 947 700 1109 554 
Q 1272 409 1569 409 
Q 2031 409 2368 721 
Q 2706 1034 2809 1563 
L 3194 3500 
L 3769 3500 
L 3091 0 
L 2516 0 
L 2631 550 
Q 2388 244 2052 76 
Q 1716 -91 1338 -91 
Q 878 -91 622 161 
Q 366 413 366 863 
Q 366 956 381 1097 
Q 397 1238 428 1388 
z
" transform="scale(0.015625)"/>
      <path id="DejaVuSans-Oblique-7a" d="M 744 3500 
L 3475 3500 
L 3372 2975 
L 738 459 
L 2913 459 
L 2822 0 
L -19 0 
L 84 525 
L 2719 3041 
L 653 3041 
L 744 3500 
z
" transform="scale(0.015625)"/>
      <path id="DejaVuSans-Oblique-6f" d="M 1625 -91 
Q 1009 -91 651 289 
Q 294 669 294 1325 
Q 294 1706 417 2101 
Q 541 2497 738 2766 
Q 1047 3184 1428 3384 
Q 1809 3584 2291 3584 
Q 2888 3584 3255 3212 
Q 3622 2841 3622 2241 
Q 3622 1825 3500 1412 
Q 3378 1000 3181 728 
Q 2875 309 2494 109 
Q 2113 -91 1625 -91 
z
M 891 1344 
Q 891 869 1089 633 
Q 1288 397 1691 397 
Q 2269 397 2648 901 
Q 3028 1406 3028 2181 
Q 3028 2634 2825 2865 
Q 2622 3097 2228 3097 
Q 1903 3097 1650 2945 
Q 1397 2794 1197 2484 
Q 1050 2253 970 1956 
Q 891 1659 891 1344 
z
" transform="scale(0.015625)"/>
     </defs>
     <use xlink:href="#DejaVuSans-Oblique-28"/>
     <use xlink:href="#DejaVuSans-Oblique-53" transform="translate(39.013672 0)"/>
     <use xlink:href="#DejaVuSans-Oblique-75" transform="translate(102.490234 0)"/>
     <use xlink:href="#DejaVuSans-Oblique-7a" transform="translate(165.869141 0)"/>
     <use xlink:href="#DejaVuSans-Oblique-68" transform="translate(218.359375 0)"/>
     <use xlink:href="#DejaVuSans-Oblique-6f" transform="translate(281.738281 0)"/>
     <use xlink:href="#DejaVuSans-Oblique-75" transform="translate(342.919922 0)"/>
     <use xlink:href="#DejaVuSans-Oblique-29" transform="translate(406.298828 0)"/>
    </g>
   </g>
   <g id="text_5">
    <!-- LBW SW 2 -->
    <g transform="translate(569.4315 165.267587) scale(0.1 -0.1)">
     <defs>
      <path id="DejaVuSans-Bold-32" d="M 1844 884 
L 3897 884 
L 3897 0 
L 506 0 
L 506 884 
L 2209 2388 
Q 2438 2594 2547 2791 
Q 2656 2988 2656 3200 
Q 2656 3528 2436 3728 
Q 2216 3928 1850 3928 
Q 1569 3928 1234 3808 
Q 900 3688 519 3450 
L 519 4475 
Q 925 4609 1322 4679 
Q 1719 4750 2100 4750 
Q 2938 4750 3402 4381 
Q 3866 4013 3866 3353 
Q 3866 2972 3669 2642 
Q 3472 2313 2841 1759 
L 1844 884 
z
" transform="scale(0.015625)"/>
     </defs>
     <use xlink:href="#DejaVuSans-Bold-4c"/>
     <use xlink:href="#DejaVuSans-Bold-42" transform="translate(63.720703 0)"/>
     <use xlink:href="#DejaVuSans-Bold-57" transform="translate(134.441406 0)"/>
     <use xlink:href="#DejaVuSans-Bold-20" transform="translate(244.744141 0)"/>
     <use xlink:href="#DejaVuSans-Bold-53" transform="translate(279.558594 0)"/>
     <use xlink:href="#DejaVuSans-Bold-57" transform="translate(351.580078 0)"/>
     <use xlink:href="#DejaVuSans-Bold-20" transform="translate(461.882812 0)"/>
     <use xlink:href="#DejaVuSans-Bold-32" transform="translate(496.697266 0)"/>
    </g>
   </g>
   <g id="text_6">
    <!-- (Hangzhou) -->
    <g transform="translate(571.563141 184.67645) scale(0.09 -0.09)">
     <defs>
      <path id="DejaVuSans-Oblique-48" d="M 1081 4666 
L 1716 4666 
L 1344 2753 
L 3634 2753 
L 4006 4666 
L 4641 4666 
L 3731 0 
L 3097 0 
L 3531 2222 
L 1241 2222 
L 806 0 
L 172 0 
L 1081 4666 
z
" transform="scale(0.015625)"/>
     </defs>
     <use xlink:href="#DejaVuSans-Oblique-28"/>
     <use xlink:href="#DejaVuSans-Oblique-48" transform="translate(39.013672 0)"/>
     <use xlink:href="#DejaVuSans-Oblique-61" transform="translate(114.208984 0)"/>
     <use xlink:href="#DejaVuSans-Oblique-6e" transform="translate(175.488281 0)"/>
     <use xlink:href="#DejaVuSans-Oblique-67" transform="translate(238.867188 0)"/>
     <use xlink:href="#DejaVuSans-Oblique-7a" transform="translate(302.34375 0)"/>
     <use xlink:href="#DejaVuSans-Oblique-68" transform="translate(354.833984 0)"/>
     <use xlink:href="#DejaVuSans-Oblique-6f" transform="translate(418.212891 0)"/>
     <use xlink:href="#DejaVuSans-Oblique-75" transform="translate(479.394531 0)"/>
     <use xlink:href="#DejaVuSans-Oblique-29" transform="translate(542.773438 0)"/>
    </g>
   </g>
   <g id="text_7">
    <!-- LBW SW 3 -->
    <g transform="translate(766.2795 165.267587) scale(0.1 -0.1)">
     <defs>
      <path id="DejaVuSans-Bold-33" d="M 2981 2516 
Q 3453 2394 3698 2092 
Q 3944 1791 3944 1325 
Q 3944 631 3412 270 
Q 2881 -91 1863 -91 
Q 1503 -91 1142 -33 
Q 781 25 428 141 
L 428 1069 
Q 766 900 1098 814 
Q 1431 728 1753 728 
Q 2231 728 2486 893 
Q 2741 1059 2741 1369 
Q 2741 1688 2480 1852 
Q 2219 2016 1709 2016 
L 1228 2016 
L 1228 2791 
L 1734 2791 
Q 2188 2791 2409 2933 
Q 2631 3075 2631 3366 
Q 2631 3634 2415 3781 
Q 2200 3928 1806 3928 
Q 1516 3928 1219 3862 
Q 922 3797 628 3669 
L 628 4550 
Q 984 4650 1334 4700 
Q 1684 4750 2022 4750 
Q 2931 4750 3382 4451 
Q 3834 4153 3834 3553 
Q 3834 3144 3618 2883 
Q 3403 2622 2981 2516 
z
" transform="scale(0.015625)"/>
     </defs>
     <use xlink:href="#DejaVuSans-Bold-4c"/>
     <use xlink:href="#DejaVuSans-Bold-42" transform="translate(63.720703 0)"/>
     <use xlink:href="#DejaVuSans-Bold-57" transform="translate(134.441406 0)"/>
     <use xlink:href="#DejaVuSans-Bold-20" transform="translate(244.744141 0)"/>
     <use xlink:href="#DejaVuSans-Bold-53" transform="translate(279.558594 0)"/>
     <use xlink:href="#DejaVuSans-Bold-57" transform="translate(351.580078 0)"/>
     <use xlink:href="#DejaVuSans-Bold-20" transform="translate(461.882812 0)"/>
     <use xlink:href="#DejaVuSans-Bold-33" transform="translate(496.697266 0)"/>
    </g>
   </g>
   <g id="text_8">
    <!-- (Ningbo) -->
    <g transform="translate(775.144969 184.67645) scale(0.09 -0.09)">
     <defs>
      <path id="DejaVuSans-Oblique-4e" d="M 1081 4666 
L 1931 4666 
L 3219 666 
L 4000 4666 
L 4616 4666 
L 3706 0 
L 2853 0 
L 1569 4025 
L 788 0 
L 172 0 
L 1081 4666 
z
" transform="scale(0.015625)"/>
      <path id="DejaVuSans-Oblique-62" d="M 3169 2138 
Q 3169 2591 2961 2847 
Q 2753 3103 2388 3103 
Q 2122 3103 1889 2973 
Q 1656 2844 1484 2597 
Q 1303 2338 1198 1995 
Q 1094 1653 1094 1313 
Q 1094 881 1298 636 
Q 1503 391 1863 391 
Q 2134 391 2365 517 
Q 2597 644 2772 891 
Q 2950 1147 3059 1487 
Q 3169 1828 3169 2138 
z
M 1381 2969 
Q 1594 3256 1914 3420 
Q 2234 3584 2584 3584 
Q 3122 3584 3439 3221 
Q 3756 2859 3756 2241 
Q 3756 1734 3570 1259 
Q 3384 784 3041 416 
Q 2816 172 2522 40 
Q 2228 -91 1906 -91 
Q 1566 -91 1316 65 
Q 1066 222 909 531 
L 806 0 
L 231 0 
L 1178 4863 
L 1753 4863 
L 1381 2969 
z
" transform="scale(0.015625)"/>
     </defs>
     <use xlink:href="#DejaVuSans-Oblique-28"/>
     <use xlink:href="#DejaVuSans-Oblique-4e" transform="translate(39.013672 0)"/>
     <use xlink:href="#DejaVuSans-Oblique-69" transform="translate(113.818359 0)"/>
     <use xlink:href="#DejaVuSans-Oblique-6e" transform="translate(141.601562 0)"/>
     <use xlink:href="#DejaVuSans-Oblique-67" transform="translate(204.980469 0)"/>
     <use xlink:href="#DejaVuSans-Oblique-62" transform="translate(268.457031 0)"/>
     <use xlink:href="#DejaVuSans-Oblique-6f" transform="translate(331.933594 0)"/>
     <use xlink:href="#DejaVuSans-Oblique-29" transform="translate(393.115234 0)"/>
    </g>
   </g>
   <g id="text_9">
    <!-- Spine Switch -->
    <g transform="translate(455.600625 428.283462) scale(0.12 -0.12)">
     <defs>
      <path id="DejaVuSans-Bold-70" d="M 1656 506 
L 1656 -1331 
L 538 -1331 
L 538 3500 
L 1656 3500 
L 1656 2988 
Q 1888 3294 2169 3439 
Q 2450 3584 2816 3584 
Q 3463 3584 3878 3070 
Q 4294 2556 4294 1747 
Q 4294 938 3878 423 
Q 3463 -91 2816 -91 
Q 2450 -91 2169 54 
Q 1888 200 1656 506 
z
M 2400 2772 
Q 2041 2772 1848 2508 
Q 1656 2244 1656 1747 
Q 1656 1250 1848 986 
Q 2041 722 2400 722 
Q 2759 722 2948 984 
Q 3138 1247 3138 1747 
Q 3138 2247 2948 2509 
Q 2759 2772 2400 2772 
z
" transform="scale(0.015625)"/>
      <path id="DejaVuSans-Bold-69" d="M 538 3500 
L 1656 3500 
L 1656 0 
L 538 0 
L 538 3500 
z
M 538 4863 
L 1656 4863 
L 1656 3950 
L 538 3950 
L 538 4863 
z
" transform="scale(0.015625)"/>
      <path id="DejaVuSans-Bold-6e" d="M 4056 2131 
L 4056 0 
L 2931 0 
L 2931 347 
L 2931 1631 
Q 2931 2084 2911 2256 
Q 2891 2428 2841 2509 
Q 2775 2619 2662 2680 
Q 2550 2741 2406 2741 
Q 2056 2741 1856 2470 
Q 1656 2200 1656 1722 
L 1656 0 
L 538 0 
L 538 3500 
L 1656 3500 
L 1656 2988 
Q 1909 3294 2193 3439 
Q 2478 3584 2822 3584 
Q 3428 3584 3742 3212 
Q 4056 2841 4056 2131 
z
" transform="scale(0.015625)"/>
      <path id="DejaVuSans-Bold-65" d="M 4031 1759 
L 4031 1441 
L 1416 1441 
Q 1456 1047 1700 850 
Q 1944 653 2381 653 
Q 2734 653 3104 758 
Q 3475 863 3866 1075 
L 3866 213 
Q 3469 63 3072 -14 
Q 2675 -91 2278 -91 
Q 1328 -91 801 392 
Q 275 875 275 1747 
Q 275 2603 792 3093 
Q 1309 3584 2216 3584 
Q 3041 3584 3536 3087 
Q 4031 2591 4031 1759 
z
M 2881 2131 
Q 2881 2450 2695 2645 
Q 2509 2841 2209 2841 
Q 1884 2841 1681 2658 
Q 1478 2475 1428 2131 
L 2881 2131 
z
" transform="scale(0.015625)"/>
      <path id="DejaVuSans-Bold-77" d="M 225 3500 
L 1313 3500 
L 1900 1088 
L 2491 3500 
L 3425 3500 
L 4013 1113 
L 4603 3500 
L 5691 3500 
L 4769 0 
L 3547 0 
L 2956 2406 
L 2369 0 
L 1147 0 
L 225 3500 
z
" transform="scale(0.015625)"/>
      <path id="DejaVuSans-Bold-74" d="M 1759 4494 
L 1759 3500 
L 2913 3500 
L 2913 2700 
L 1759 2700 
L 1759 1216 
Q 1759 972 1856 886 
Q 1953 800 2241 800 
L 2816 800 
L 2816 0 
L 1856 0 
Q 1194 0 917 276 
Q 641 553 641 1216 
L 641 2700 
L 84 2700 
L 84 3500 
L 641 3500 
L 641 4494 
L 1759 4494 
z
" transform="scale(0.015625)"/>
      <path id="DejaVuSans-Bold-63" d="M 3366 3391 
L 3366 2478 
Q 3138 2634 2908 2709 
Q 2678 2784 2431 2784 
Q 1963 2784 1702 2511 
Q 1441 2238 1441 1747 
Q 1441 1256 1702 982 
Q 1963 709 2431 709 
Q 2694 709 2930 787 
Q 3166 866 3366 1019 
L 3366 103 
Q 3103 6 2833 -42 
Q 2563 -91 2291 -91 
Q 1344 -91 809 395 
Q 275 881 275 1747 
Q 275 2613 809 3098 
Q 1344 3584 2291 3584 
Q 2566 3584 2833 3536 
Q 3100 3488 3366 3391 
z
" transform="scale(0.015625)"/>
      <path id="DejaVuSans-Bold-68" d="M 4056 2131 
L 4056 0 
L 2931 0 
L 2931 347 
L 2931 1625 
Q 2931 2084 2911 2256 
Q 2891 2428 2841 2509 
Q 2775 2619 2662 2680 
Q 2550 2741 2406 2741 
Q 2056 2741 1856 2470 
Q 1656 2200 1656 1722 
L 1656 0 
L 538 0 
L 538 4863 
L 1656 4863 
L 1656 2988 
Q 1909 3294 2193 3439 
Q 2478 3584 2822 3584 
Q 3428 3584 3742 3212 
Q 4056 2841 4056 2131 
z
" transform="scale(0.015625)"/>
     </defs>
     <use xlink:href="#DejaVuSans-Bold-53"/>
     <use xlink:href="#DejaVuSans-Bold-70" transform="translate(72.021484 0)"/>
     <use xlink:href="#DejaVuSans-Bold-69" transform="translate(143.603516 0)"/>
     <use xlink:href="#DejaVuSans-Bold-6e" transform="translate(177.880859 0)"/>
     <use xlink:href="#DejaVuSans-Bold-65" transform="translate(249.072266 0)"/>
     <use xlink:href="#DejaVuSans-Bold-20" transform="translate(316.894531 0)"/>
     <use xlink:href="#DejaVuSans-Bold-53" transform="translate(351.708984 0)"/>
     <use xlink:href="#DejaVuSans-Bold-77" transform="translate(423.730469 0)"/>
     <use xlink:href="#DejaVuSans-Bold-69" transform="translate(516.113281 0)"/>
     <use xlink:href="#DejaVuSans-Bold-74" transform="translate(550.390625 0)"/>
     <use xlink:href="#DejaVuSans-Bold-63" transform="translate(598.193359 0)"/>
     <use xlink:href="#DejaVuSans-Bold-68" transform="translate(657.470703 0)"/>
    </g>
   </g>
   <g id="text_10">
    <!-- (Jiaxing) -->
    <g transform="translate(478.798906 453.977987) scale(0.1 -0.1)">
     <defs>
      <path id="DejaVuSans-Oblique-4a" d="M 1069 4666 
L 1703 4666 
L 856 325 
Q 691 -522 298 -901 
Q -94 -1281 -800 -1281 
L -1050 -1281 
L -947 -750 
L -750 -750 
Q -328 -750 -109 -509 
Q 109 -269 225 325 
L 1069 4666 
z
" transform="scale(0.015625)"/>
      <path id="DejaVuSans-Oblique-78" d="M 3841 3500 
L 2234 1784 
L 3219 0 
L 2559 0 
L 1819 1388 
L 531 0 
L -166 0 
L 1556 1844 
L 641 3500 
L 1300 3500 
L 1972 2234 
L 3144 3500 
L 3841 3500 
z
" transform="scale(0.015625)"/>
     </defs>
     <use xlink:href="#DejaVuSans-Oblique-28"/>
     <use xlink:href="#DejaVuSans-Oblique-4a" transform="translate(39.013672 0)"/>
     <use xlink:href="#DejaVuSans-Oblique-69" transform="translate(68.505859 0)"/>
     <use xlink:href="#DejaVuSans-Oblique-61" transform="translate(96.289062 0)"/>
     <use xlink:href="#DejaVuSans-Oblique-78" transform="translate(157.568359 0)"/>
     <use xlink:href="#DejaVuSans-Oblique-69" transform="translate(216.748047 0)"/>
     <use xlink:href="#DejaVuSans-Oblique-6e" transform="translate(244.53125 0)"/>
     <use xlink:href="#DejaVuSans-Oblique-67" transform="translate(307.910156 0)"/>
     <use xlink:href="#DejaVuSans-Oblique-29" transform="translate(371.386719 0)"/>
    </g>
   </g>
   <g id="text_11">
    <g id="patch_7">
     <path d="M 297.275297 286.772169 
L 340.476703 286.772169 
Q 342.276703 286.772169 342.276703 284.972169 
L 342.276703 276.261856 
Q 342.276703 274.461856 340.476703 274.461856 
L 297.275297 274.461856 
Q 295.475297 274.461856 295.475297 276.261856 
L 295.475297 284.972169 
Q 295.475297 286.772169 297.275297 286.772169 
z
" style="fill: #ffffff; opacity: 0.8; stroke: #000000; stroke-linejoin: miter"/>
    </g>
    <!-- 0.562ms -->
    <g transform="translate(297.275297 283.10045) scale(0.09 -0.09)">
     <defs>
      <path id="DejaVuSans-Bold-2e" d="M 653 1209 
L 1778 1209 
L 1778 0 
L 653 0 
L 653 1209 
z
" transform="scale(0.015625)"/>
      <path id="DejaVuSans-Bold-35" d="M 678 4666 
L 3669 4666 
L 3669 3781 
L 1638 3781 
L 1638 3059 
Q 1775 3097 1914 3117 
Q 2053 3138 2203 3138 
Q 3056 3138 3531 2711 
Q 4006 2284 4006 1522 
Q 4006 766 3489 337 
Q 2972 -91 2053 -91 
Q 1656 -91 1267 -14 
Q 878 63 494 219 
L 494 1166 
Q 875 947 1217 837 
Q 1559 728 1863 728 
Q 2300 728 2551 942 
Q 2803 1156 2803 1522 
Q 2803 1891 2551 2103 
Q 2300 2316 1863 2316 
Q 1603 2316 1309 2248 
Q 1016 2181 678 2041 
L 678 4666 
z
" transform="scale(0.015625)"/>
      <path id="DejaVuSans-Bold-36" d="M 2316 2303 
Q 2000 2303 1842 2098 
Q 1684 1894 1684 1484 
Q 1684 1075 1842 870 
Q 2000 666 2316 666 
Q 2634 666 2792 870 
Q 2950 1075 2950 1484 
Q 2950 1894 2792 2098 
Q 2634 2303 2316 2303 
z
M 3803 4544 
L 3803 3681 
Q 3506 3822 3243 3889 
Q 2981 3956 2731 3956 
Q 2194 3956 1894 3657 
Q 1594 3359 1544 2772 
Q 1750 2925 1990 3001 
Q 2231 3078 2516 3078 
Q 3231 3078 3670 2659 
Q 4109 2241 4109 1563 
Q 4109 813 3618 361 
Q 3128 -91 2303 -91 
Q 1394 -91 895 523 
Q 397 1138 397 2266 
Q 397 3422 980 4083 
Q 1563 4744 2578 4744 
Q 2900 4744 3203 4694 
Q 3506 4644 3803 4544 
z
" transform="scale(0.015625)"/>
      <path id="DejaVuSans-Bold-6d" d="M 3781 2919 
Q 3994 3244 4286 3414 
Q 4578 3584 4928 3584 
Q 5531 3584 5847 3212 
Q 6163 2841 6163 2131 
L 6163 0 
L 5038 0 
L 5038 1825 
Q 5041 1866 5042 1909 
Q 5044 1953 5044 2034 
Q 5044 2406 4934 2573 
Q 4825 2741 4581 2741 
Q 4263 2741 4089 2478 
Q 3916 2216 3909 1719 
L 3909 0 
L 2784 0 
L 2784 1825 
Q 2784 2406 2684 2573 
Q 2584 2741 2328 2741 
Q 2006 2741 1831 2477 
Q 1656 2213 1656 1722 
L 1656 0 
L 531 0 
L 531 3500 
L 1656 3500 
L 1656 2988 
Q 1863 3284 2130 3434 
Q 2397 3584 2719 3584 
Q 3081 3584 3359 3409 
Q 3638 3234 3781 2919 
z
" transform="scale(0.015625)"/>
      <path id="DejaVuSans-Bold-73" d="M 3272 3391 
L 3272 2541 
Q 2913 2691 2578 2766 
Q 2244 2841 1947 2841 
Q 1628 2841 1473 2761 
Q 1319 2681 1319 2516 
Q 1319 2381 1436 2309 
Q 1553 2238 1856 2203 
L 2053 2175 
Q 2913 2066 3209 1816 
Q 3506 1566 3506 1031 
Q 3506 472 3093 190 
Q 2681 -91 1863 -91 
Q 1516 -91 1145 -36 
Q 775 19 384 128 
L 384 978 
Q 719 816 1070 734 
Q 1422 653 1784 653 
Q 2113 653 2278 743 
Q 2444 834 2444 1013 
Q 2444 1163 2330 1236 
Q 2216 1309 1875 1350 
L 1678 1375 
Q 931 1469 631 1722 
Q 331 1975 331 2491 
Q 331 3047 712 3315 
Q 1094 3584 1881 3584 
Q 2191 3584 2531 3537 
Q 2872 3491 3272 3391 
z
" transform="scale(0.015625)"/>
     </defs>
     <use xlink:href="#DejaVuSans-Bold-30"/>
     <use xlink:href="#DejaVuSans-Bold-2e" transform="translate(69.580078 0)"/>
     <use xlink:href="#DejaVuSans-Bold-35" transform="translate(107.568359 0)"/>
     <use xlink:href="#DejaVuSans-Bold-36" transform="translate(177.148438 0)"/>
     <use xlink:href="#DejaVuSans-Bold-32" transform="translate(246.728516 0)"/>
     <use xlink:href="#DejaVuSans-Bold-6d" transform="translate(316.308594 0)"/>
     <use xlink:href="#DejaVuSans-Bold-73" transform="translate(420.507812 0)"/>
    </g>
   </g>
   <g id="text_12">
    <g id="patch_8">
     <path d="M 296.3535 305.373062 
L 341.3985 305.373062 
Q 342.5985 305.373062 342.5985 304.173062 
L 342.5985 296.430562 
Q 342.5985 295.230562 341.3985 295.230562 
L 296.3535 295.230562 
Q 295.1535 295.230562 295.1535 296.430562 
L 295.1535 304.173062 
Q 295.1535 305.373062 296.3535 305.373062 
z
" style="fill: #ffffe0; opacity: 0.9; stroke: #000000; stroke-linejoin: miter"/>
    </g>
    <!-- 1200Gbps -->
    <g style="fill: #ff0000" transform="translate(296.3535 302.509312) scale(0.08 -0.08)">
     <defs>
      <path id="DejaVuSans-Bold-47" d="M 4781 347 
Q 4331 128 3847 18 
Q 3363 -91 2847 -91 
Q 1681 -91 1000 561 
Q 319 1213 319 2328 
Q 319 3456 1012 4103 
Q 1706 4750 2913 4750 
Q 3378 4750 3804 4662 
Q 4231 4575 4609 4403 
L 4609 3438 
Q 4219 3659 3833 3768 
Q 3447 3878 3059 3878 
Q 2341 3878 1952 3476 
Q 1563 3075 1563 2328 
Q 1563 1588 1938 1184 
Q 2313 781 3003 781 
Q 3191 781 3352 804 
Q 3513 828 3641 878 
L 3641 1784 
L 2906 1784 
L 2906 2591 
L 4781 2591 
L 4781 347 
z
" transform="scale(0.015625)"/>
      <path id="DejaVuSans-Bold-62" d="M 2400 722 
Q 2759 722 2948 984 
Q 3138 1247 3138 1747 
Q 3138 2247 2948 2509 
Q 2759 2772 2400 2772 
Q 2041 2772 1848 2508 
Q 1656 2244 1656 1747 
Q 1656 1250 1848 986 
Q 2041 722 2400 722 
z
M 1656 2988 
Q 1888 3294 2169 3439 
Q 2450 3584 2816 3584 
Q 3463 3584 3878 3070 
Q 4294 2556 4294 1747 
Q 4294 938 3878 423 
Q 3463 -91 2816 -91 
Q 2450 -91 2169 54 
Q 1888 200 1656 506 
L 1656 0 
L 538 0 
L 538 4863 
L 1656 4863 
L 1656 2988 
z
" transform="scale(0.015625)"/>
     </defs>
     <use xlink:href="#DejaVuSans-Bold-31"/>
     <use xlink:href="#DejaVuSans-Bold-32" transform="translate(69.580078 0)"/>
     <use xlink:href="#DejaVuSans-Bold-30" transform="translate(139.160156 0)"/>
     <use xlink:href="#DejaVuSans-Bold-30" transform="translate(208.740234 0)"/>
     <use xlink:href="#DejaVuSans-Bold-47" transform="translate(278.320312 0)"/>
     <use xlink:href="#DejaVuSans-Bold-62" transform="translate(360.400391 0)"/>
     <use xlink:href="#DejaVuSans-Bold-70" transform="translate(431.982422 0)"/>
     <use xlink:href="#DejaVuSans-Bold-73" transform="translate(503.564453 0)"/>
    </g>
   </g>
   <g id="text_13">
    <g id="patch_9">
     <path d="M 408.822497 280.210569 
L 452.023903 280.210569 
Q 453.823903 280.210569 453.823903 278.410569 
L 453.823903 269.700256 
Q 453.823903 267.900256 452.023903 267.900256 
L 408.822497 267.900256 
Q 407.022497 267.900256 407.022497 269.700256 
L 407.022497 278.410569 
Q 407.022497 280.210569 408.822497 280.210569 
z
" style="fill: #ffffff; opacity: 0.8; stroke: #000000; stroke-linejoin: miter"/>
    </g>
    <!-- 0.501ms -->
    <g transform="translate(408.822497 276.53885) scale(0.09 -0.09)">
     <use xlink:href="#DejaVuSans-Bold-30"/>
     <use xlink:href="#DejaVuSans-Bold-2e" transform="translate(69.580078 0)"/>
     <use xlink:href="#DejaVuSans-Bold-35" transform="translate(107.568359 0)"/>
     <use xlink:href="#DejaVuSans-Bold-30" transform="translate(177.148438 0)"/>
     <use xlink:href="#DejaVuSans-Bold-31" transform="translate(246.728516 0)"/>
     <use xlink:href="#DejaVuSans-Bold-6d" transform="translate(316.308594 0)"/>
     <use xlink:href="#DejaVuSans-Bold-73" transform="translate(420.507812 0)"/>
    </g>
   </g>
   <g id="text_14">
    <g id="patch_10">
     <path d="M 407.9007 298.811462 
L 452.9457 298.811462 
Q 454.1457 298.811462 454.1457 297.611462 
L 454.1457 289.868962 
Q 454.1457 288.668962 452.9457 288.668962 
L 407.9007 288.668962 
Q 406.7007 288.668962 406.7007 289.868962 
L 406.7007 297.611462 
Q 406.7007 298.811462 407.9007 298.811462 
z
" style="fill: #ffffe0; opacity: 0.9; stroke: #000000; stroke-linejoin: miter"/>
    </g>
    <!-- 1200Gbps -->
    <g style="fill: #ff0000" transform="translate(407.9007 295.947712) scale(0.08 -0.08)">
     <use xlink:href="#DejaVuSans-Bold-31"/>
     <use xlink:href="#DejaVuSans-Bold-32" transform="translate(69.580078 0)"/>
     <use xlink:href="#DejaVuSans-Bold-30" transform="translate(139.160156 0)"/>
     <use xlink:href="#DejaVuSans-Bold-30" transform="translate(208.740234 0)"/>
     <use xlink:href="#DejaVuSans-Bold-47" transform="translate(278.320312 0)"/>
     <use xlink:href="#DejaVuSans-Bold-62" transform="translate(360.400391 0)"/>
     <use xlink:href="#DejaVuSans-Bold-70" transform="translate(431.982422 0)"/>
     <use xlink:href="#DejaVuSans-Bold-73" transform="translate(503.564453 0)"/>
    </g>
   </g>
   <g id="text_15">
    <g id="patch_11">
     <path d="M 546.616097 280.210569 
L 589.817503 280.210569 
Q 591.617503 280.210569 591.617503 278.410569 
L 591.617503 269.700256 
Q 591.617503 267.900256 589.817503 267.900256 
L 546.616097 267.900256 
Q 544.816097 267.900256 544.816097 269.700256 
L 544.816097 278.410569 
Q 544.816097 280.210569 546.616097 280.210569 
z
" style="fill: #ffffff; opacity: 0.8; stroke: #000000; stroke-linejoin: miter"/>
    </g>
    <!-- 0.402ms -->
    <g transform="translate(546.616097 276.53885) scale(0.09 -0.09)">
     <defs>
      <path id="DejaVuSans-Bold-34" d="M 2356 3675 
L 1038 1722 
L 2356 1722 
L 2356 3675 
z
M 2156 4666 
L 3494 4666 
L 3494 1722 
L 4159 1722 
L 4159 850 
L 3494 850 
L 3494 0 
L 2356 0 
L 2356 850 
L 288 850 
L 288 1881 
L 2156 4666 
z
" transform="scale(0.015625)"/>
     </defs>
     <use xlink:href="#DejaVuSans-Bold-30"/>
     <use xlink:href="#DejaVuSans-Bold-2e" transform="translate(69.580078 0)"/>
     <use xlink:href="#DejaVuSans-Bold-34" transform="translate(107.568359 0)"/>
     <use xlink:href="#DejaVuSans-Bold-30" transform="translate(177.148438 0)"/>
     <use xlink:href="#DejaVuSans-Bold-32" transform="translate(246.728516 0)"/>
     <use xlink:href="#DejaVuSans-Bold-6d" transform="translate(316.308594 0)"/>
     <use xlink:href="#DejaVuSans-Bold-73" transform="translate(420.507812 0)"/>
    </g>
   </g>
   <g id="text_16">
    <g id="patch_12">
     <path d="M 545.6943 298.811462 
L 590.7393 298.811462 
Q 591.9393 298.811462 591.9393 297.611462 
L 591.9393 289.868962 
Q 591.9393 288.668962 590.7393 288.668962 
L 545.6943 288.668962 
Q 544.4943 288.668962 544.4943 289.868962 
L 544.4943 297.611462 
Q 544.4943 298.811462 545.6943 298.811462 
z
" style="fill: #ffffe0; opacity: 0.9; stroke: #000000; stroke-linejoin: miter"/>
    </g>
    <!-- 1200Gbps -->
    <g style="fill: #ff0000" transform="translate(545.6943 295.947712) scale(0.08 -0.08)">
     <use xlink:href="#DejaVuSans-Bold-31"/>
     <use xlink:href="#DejaVuSans-Bold-32" transform="translate(69.580078 0)"/>
     <use xlink:href="#DejaVuSans-Bold-30" transform="translate(139.160156 0)"/>
     <use xlink:href="#DejaVuSans-Bold-30" transform="translate(208.740234 0)"/>
     <use xlink:href="#DejaVuSans-Bold-47" transform="translate(278.320312 0)"/>
     <use xlink:href="#DejaVuSans-Bold-62" transform="translate(360.400391 0)"/>
     <use xlink:href="#DejaVuSans-Bold-70" transform="translate(431.982422 0)"/>
     <use xlink:href="#DejaVuSans-Bold-73" transform="translate(503.564453 0)"/>
    </g>
   </g>
   <g id="text_17">
    <g id="patch_13">
     <path d="M 658.163297 286.772169 
L 701.364703 286.772169 
Q 703.164703 286.772169 703.164703 284.972169 
L 703.164703 276.261856 
Q 703.164703 274.461856 701.364703 274.461856 
L 658.163297 274.461856 
Q 656.363297 274.461856 656.363297 276.261856 
L 656.363297 284.972169 
Q 656.363297 286.772169 658.163297 286.772169 
z
" style="fill: #ffffff; opacity: 0.8; stroke: #000000; stroke-linejoin: miter"/>
    </g>
    <!-- 0.317ms -->
    <g transform="translate(658.163297 283.10045) scale(0.09 -0.09)">
     <defs>
      <path id="DejaVuSans-Bold-37" d="M 428 4666 
L 3944 4666 
L 3944 3988 
L 2125 0 
L 953 0 
L 2675 3781 
L 428 3781 
L 428 4666 
z
" transform="scale(0.015625)"/>
     </defs>
     <use xlink:href="#DejaVuSans-Bold-30"/>
     <use xlink:href="#DejaVuSans-Bold-2e" transform="translate(69.580078 0)"/>
     <use xlink:href="#DejaVuSans-Bold-33" transform="translate(107.568359 0)"/>
     <use xlink:href="#DejaVuSans-Bold-31" transform="translate(177.148438 0)"/>
     <use xlink:href="#DejaVuSans-Bold-37" transform="translate(246.728516 0)"/>
     <use xlink:href="#DejaVuSans-Bold-6d" transform="translate(316.308594 0)"/>
     <use xlink:href="#DejaVuSans-Bold-73" transform="translate(420.507812 0)"/>
    </g>
   </g>
   <g id="text_18">
    <g id="patch_14">
     <path d="M 657.2415 305.373062 
L 702.2865 305.373062 
Q 703.4865 305.373062 703.4865 304.173062 
L 703.4865 296.430562 
Q 703.4865 295.230562 702.2865 295.230562 
L 657.2415 295.230562 
Q 656.0415 295.230562 656.0415 296.430562 
L 656.0415 304.173062 
Q 656.0415 305.373062 657.2415 305.373062 
z
" style="fill: #ffffe0; opacity: 0.9; stroke: #000000; stroke-linejoin: miter"/>
    </g>
    <!-- 1200Gbps -->
    <g style="fill: #ff0000" transform="translate(657.2415 302.509312) scale(0.08 -0.08)">
     <use xlink:href="#DejaVuSans-Bold-31"/>
     <use xlink:href="#DejaVuSans-Bold-32" transform="translate(69.580078 0)"/>
     <use xlink:href="#DejaVuSans-Bold-30" transform="translate(139.160156 0)"/>
     <use xlink:href="#DejaVuSans-Bold-30" transform="translate(208.740234 0)"/>
     <use xlink:href="#DejaVuSans-Bold-47" transform="translate(278.320312 0)"/>
     <use xlink:href="#DejaVuSans-Bold-62" transform="translate(360.400391 0)"/>
     <use xlink:href="#DejaVuSans-Bold-70" transform="translate(431.982422 0)"/>
     <use xlink:href="#DejaVuSans-Bold-73" transform="translate(503.564453 0)"/>
    </g>
   </g>
   <g id="text_19">
    <!-- Cross-DC Network Topology (4 DCs + Spine Switch) -->
    <g transform="translate(297.265 17.837812) scale(0.14 -0.14)">
     <defs>
      <path id="DejaVuSans-Bold-43" d="M 4288 256 
Q 3956 84 3597 -3 
Q 3238 -91 2847 -91 
Q 1681 -91 1000 561 
Q 319 1213 319 2328 
Q 319 3447 1000 4098 
Q 1681 4750 2847 4750 
Q 3238 4750 3597 4662 
Q 3956 4575 4288 4403 
L 4288 3438 
Q 3953 3666 3628 3772 
Q 3303 3878 2944 3878 
Q 2300 3878 1931 3465 
Q 1563 3053 1563 2328 
Q 1563 1606 1931 1193 
Q 2300 781 2944 781 
Q 3303 781 3628 887 
Q 3953 994 4288 1222 
L 4288 256 
z
" transform="scale(0.015625)"/>
      <path id="DejaVuSans-Bold-72" d="M 3138 2547 
Q 2991 2616 2845 2648 
Q 2700 2681 2553 2681 
Q 2122 2681 1889 2404 
Q 1656 2128 1656 1613 
L 1656 0 
L 538 0 
L 538 3500 
L 1656 3500 
L 1656 2925 
Q 1872 3269 2151 3426 
Q 2431 3584 2822 3584 
Q 2878 3584 2943 3579 
Q 3009 3575 3134 3559 
L 3138 2547 
z
" transform="scale(0.015625)"/>
      <path id="DejaVuSans-Bold-6f" d="M 2203 2784 
Q 1831 2784 1636 2517 
Q 1441 2250 1441 1747 
Q 1441 1244 1636 976 
Q 1831 709 2203 709 
Q 2569 709 2762 976 
Q 2956 1244 2956 1747 
Q 2956 2250 2762 2517 
Q 2569 2784 2203 2784 
z
M 2203 3584 
Q 3106 3584 3614 3096 
Q 4122 2609 4122 1747 
Q 4122 884 3614 396 
Q 3106 -91 2203 -91 
Q 1297 -91 786 396 
Q 275 884 275 1747 
Q 275 2609 786 3096 
Q 1297 3584 2203 3584 
z
" transform="scale(0.015625)"/>
      <path id="DejaVuSans-Bold-2d" d="M 347 2297 
L 2309 2297 
L 2309 1388 
L 347 1388 
L 347 2297 
z
" transform="scale(0.015625)"/>
      <path id="DejaVuSans-Bold-44" d="M 1791 3756 
L 1791 909 
L 2222 909 
Q 2959 909 3348 1275 
Q 3738 1641 3738 2338 
Q 3738 3031 3350 3393 
Q 2963 3756 2222 3756 
L 1791 3756 
z
M 588 4666 
L 1856 4666 
Q 2919 4666 3439 4514 
Q 3959 4363 4331 4000 
Q 4659 3684 4818 3271 
Q 4978 2859 4978 2338 
Q 4978 1809 4818 1395 
Q 4659 981 4331 666 
Q 3956 303 3431 151 
Q 2906 0 1856 0 
L 588 0 
L 588 4666 
z
" transform="scale(0.015625)"/>
      <path id="DejaVuSans-Bold-4e" d="M 588 4666 
L 1931 4666 
L 3628 1466 
L 3628 4666 
L 4769 4666 
L 4769 0 
L 3425 0 
L 1728 3200 
L 1728 0 
L 588 0 
L 588 4666 
z
" transform="scale(0.015625)"/>
      <path id="DejaVuSans-Bold-6b" d="M 538 4863 
L 1656 4863 
L 1656 2216 
L 2944 3500 
L 4244 3500 
L 2534 1894 
L 4378 0 
L 3022 0 
L 1656 1459 
L 1656 0 
L 538 0 
L 538 4863 
z
" transform="scale(0.015625)"/>
      <path id="DejaVuSans-Bold-54" d="M 31 4666 
L 4331 4666 
L 4331 3756 
L 2784 3756 
L 2784 0 
L 1581 0 
L 1581 3756 
L 31 3756 
L 31 4666 
z
" transform="scale(0.015625)"/>
      <path id="DejaVuSans-Bold-6c" d="M 538 4863 
L 1656 4863 
L 1656 0 
L 538 0 
L 538 4863 
z
" transform="scale(0.015625)"/>
      <path id="DejaVuSans-Bold-67" d="M 2919 594 
Q 2688 288 2409 144 
Q 2131 0 1766 0 
Q 1125 0 706 504 
Q 288 1009 288 1791 
Q 288 2575 706 3076 
Q 1125 3578 1766 3578 
Q 2131 3578 2409 3434 
Q 2688 3291 2919 2981 
L 2919 3500 
L 4044 3500 
L 4044 353 
Q 4044 -491 3511 -936 
Q 2978 -1381 1966 -1381 
Q 1638 -1381 1331 -1331 
Q 1025 -1281 716 -1178 
L 716 -306 
Q 1009 -475 1290 -558 
Q 1572 -641 1856 -641 
Q 2406 -641 2662 -400 
Q 2919 -159 2919 353 
L 2919 594 
z
M 2181 2772 
Q 1834 2772 1640 2515 
Q 1447 2259 1447 1791 
Q 1447 1309 1634 1061 
Q 1822 813 2181 813 
Q 2531 813 2725 1069 
Q 2919 1325 2919 1791 
Q 2919 2259 2725 2515 
Q 2531 2772 2181 2772 
z
" transform="scale(0.015625)"/>
      <path id="DejaVuSans-Bold-79" d="M 78 3500 
L 1197 3500 
L 2138 1125 
L 2938 3500 
L 4056 3500 
L 2584 -331 
Q 2363 -916 2067 -1148 
Q 1772 -1381 1288 -1381 
L 641 -1381 
L 641 -647 
L 991 -647 
Q 1275 -647 1404 -556 
Q 1534 -466 1606 -231 
L 1638 -134 
L 78 3500 
z
" transform="scale(0.015625)"/>
      <path id="DejaVuSans-Bold-28" d="M 2413 -844 
L 1484 -844 
Q 1006 -72 778 623 
Q 550 1319 550 2003 
Q 550 2688 779 3389 
Q 1009 4091 1484 4856 
L 2413 4856 
Q 2013 4116 1813 3408 
Q 1613 2700 1613 2009 
Q 1613 1319 1811 609 
Q 2009 -100 2413 -844 
z
" transform="scale(0.015625)"/>
      <path id="DejaVuSans-Bold-2b" d="M 3053 4013 
L 3053 2375 
L 4684 2375 
L 4684 1638 
L 3053 1638 
L 3053 0 
L 2309 0 
L 2309 1638 
L 678 1638 
L 678 2375 
L 2309 2375 
L 2309 4013 
L 3053 4013 
z
" transform="scale(0.015625)"/>
      <path id="DejaVuSans-Bold-29" d="M 513 -844 
Q 913 -100 1113 609 
Q 1313 1319 1313 2009 
Q 1313 2700 1113 3408 
Q 913 4116 513 4856 
L 1441 4856 
Q 1916 4091 2145 3389 
Q 2375 2688 2375 2003 
Q 2375 1319 2147 623 
Q 1919 -72 1441 -844 
L 513 -844 
z
" transform="scale(0.015625)"/>
     </defs>
     <use xlink:href="#DejaVuSans-Bold-43"/>
     <use xlink:href="#DejaVuSans-Bold-72" transform="translate(73.388672 0)"/>
     <use xlink:href="#DejaVuSans-Bold-6f" transform="translate(122.705078 0)"/>
     <use xlink:href="#DejaVuSans-Bold-73" transform="translate(191.40625 0)"/>
     <use xlink:href="#DejaVuSans-Bold-73" transform="translate(250.927734 0)"/>
     <use xlink:href="#DejaVuSans-Bold-2d" transform="translate(310.449219 0)"/>
     <use xlink:href="#DejaVuSans-Bold-44" transform="translate(351.953125 0)"/>
     <use xlink:href="#DejaVuSans-Bold-43" transform="translate(434.960938 0)"/>
     <use xlink:href="#DejaVuSans-Bold-20" transform="translate(508.349609 0)"/>
     <use xlink:href="#DejaVuSans-Bold-4e" transform="translate(543.164062 0)"/>
     <use xlink:href="#DejaVuSans-Bold-65" transform="translate(626.855469 0)"/>
     <use xlink:href="#DejaVuSans-Bold-74" transform="translate(694.677734 0)"/>
     <use xlink:href="#DejaVuSans-Bold-77" transform="translate(742.480469 0)"/>
     <use xlink:href="#DejaVuSans-Bold-6f" transform="translate(834.863281 0)"/>
     <use xlink:href="#DejaVuSans-Bold-72" transform="translate(903.564453 0)"/>
     <use xlink:href="#DejaVuSans-Bold-6b" transform="translate(952.880859 0)"/>
     <use xlink:href="#DejaVuSans-Bold-20" transform="translate(1019.384766 0)"/>
     <use xlink:href="#DejaVuSans-Bold-54" transform="translate(1054.199219 0)"/>
     <use xlink:href="#DejaVuSans-Bold-6f" transform="translate(1109.162109 0)"/>
     <use xlink:href="#DejaVuSans-Bold-70" transform="translate(1177.863281 0)"/>
     <use xlink:href="#DejaVuSans-Bold-6f" transform="translate(1249.445312 0)"/>
     <use xlink:href="#DejaVuSans-Bold-6c" transform="translate(1318.146484 0)"/>
     <use xlink:href="#DejaVuSans-Bold-6f" transform="translate(1352.423828 0)"/>
     <use xlink:href="#DejaVuSans-Bold-67" transform="translate(1421.125 0)"/>
     <use xlink:href="#DejaVuSans-Bold-79" transform="translate(1492.707031 0)"/>
     <use xlink:href="#DejaVuSans-Bold-20" transform="translate(1557.892578 0)"/>
     <use xlink:href="#DejaVuSans-Bold-28" transform="translate(1592.707031 0)"/>
     <use xlink:href="#DejaVuSans-Bold-34" transform="translate(1638.410156 0)"/>
     <use xlink:href="#DejaVuSans-Bold-20" transform="translate(1707.990234 0)"/>
     <use xlink:href="#DejaVuSans-Bold-44" transform="translate(1742.804688 0)"/>
     <use xlink:href="#DejaVuSans-Bold-43" transform="translate(1825.8125 0)"/>
     <use xlink:href="#DejaVuSans-Bold-73" transform="translate(1899.201172 0)"/>
     <use xlink:href="#DejaVuSans-Bold-20" transform="translate(1958.722656 0)"/>
     <use xlink:href="#DejaVuSans-Bold-2b" transform="translate(1993.537109 0)"/>
     <use xlink:href="#DejaVuSans-Bold-20" transform="translate(2077.326172 0)"/>
     <use xlink:href="#DejaVuSans-Bold-53" transform="translate(2112.140625 0)"/>
     <use xlink:href="#DejaVuSans-Bold-70" transform="translate(2184.162109 0)"/>
     <use xlink:href="#DejaVuSans-Bold-69" transform="translate(2255.744141 0)"/>
     <use xlink:href="#DejaVuSans-Bold-6e" transform="translate(2290.021484 0)"/>
     <use xlink:href="#DejaVuSans-Bold-65" transform="translate(2361.212891 0)"/>
     <use xlink:href="#DejaVuSans-Bold-20" transform="translate(2429.035156 0)"/>
     <use xlink:href="#DejaVuSans-Bold-53" transform="translate(2463.849609 0)"/>
     <use xlink:href="#DejaVuSans-Bold-77" transform="translate(2535.871094 0)"/>
     <use xlink:href="#DejaVuSans-Bold-69" transform="translate(2628.253906 0)"/>
     <use xlink:href="#DejaVuSans-Bold-74" transform="translate(2662.53125 0)"/>
     <use xlink:href="#DejaVuSans-Bold-63" transform="translate(2710.333984 0)"/>
     <use xlink:href="#DejaVuSans-Bold-68" transform="translate(2769.611328 0)"/>
     <use xlink:href="#DejaVuSans-Bold-29" transform="translate(2840.802734 0)"/>
    </g>
   </g>
  </g>
 </g>
 <defs>
  <clipPath id="p76331cc10d">
   <rect x="7.2" y="37.837812" width="984.24" height="524.928"/>
  </clipPath>
 </defs>
</svg>
