<?xml version="1.0" encoding="utf-8" standalone="no"?>
<!DOCTYPE svg PUBLIC "-//W3C//DTD SVG 1.1//EN"
  "http://www.w3.org/Graphics/SVG/1.1/DTD/svg11.dtd">
<svg xmlns:xlink="http://www.w3.org/1999/xlink" width="1286.64pt" height="859.749pt" viewBox="0 0 1286.64 859.749" xmlns="http://www.w3.org/2000/svg" version="1.1">
 <metadata>
  <rdf:RDF xmlns:dc="http://purl.org/dc/elements/1.1/" xmlns:cc="http://creativecommons.org/ns#" xmlns:rdf="http://www.w3.org/1999/02/22-rdf-syntax-ns#">
   <cc:Work>
    <dc:type rdf:resource="http://purl.org/dc/dcmitype/StillImage"/>
    <dc:date>2026-04-08T18:10:20.850695</dc:date>
    <dc:format>image/svg+xml</dc:format>
    <dc:creator>
     <cc:Agent>
      <dc:title>Matplotlib v3.10.8, https://matplotlib.org/</dc:title>
     </cc:Agent>
    </dc:creator>
   </cc:Work>
  </rdf:RDF>
 </metadata>
 <defs>
  <style type="text/css">*{stroke-linejoin: round; stroke-linecap: butt}</style>
 </defs>
 <g id="figure_1">
  <g id="patch_1">
   <path d="M 0 859.749 
L 1286.64 859.749 
L 1286.64 -0 
L 0 -0 
z
" style="fill: #ffffff"/>
  </g>
  <g id="axes_1">
   <g id="patch_2">
    <path d="M 86.715 383.4105 
L 245.745 383.4105 
Q 253.6965 383.4105 253.6965 375.459 
L 253.6965 216.429 
Q 253.6965 208.4775 245.745 208.4775 
L 86.715 208.4775 
Q 78.7635 208.4775 78.7635 216.429 
L 78.7635 375.459 
Q 78.7635 383.4105 86.715 383.4105 
z
" clip-path="url(#p827a66ebf8)" style="fill: #add8e6; stroke: #000080; stroke-width: 2; stroke-linejoin: miter"/>
   </g>
   <g id="patch_3">
    <path d="M 404.775 383.4105 
L 563.805 383.4105 
Q 571.7565 383.4105 571.7565 375.459 
L 571.7565 216.429 
Q 571.7565 208.4775 563.805 208.4775 
L 404.775 208.4775 
Q 396.8235 208.4775 396.8235 216.429 
L 396.8235 375.459 
Q 396.8235 383.4105 404.775 383.4105 
z
" clip-path="url(#p827a66ebf8)" style="fill: #add8e6; stroke: #000080; stroke-width: 2; stroke-linejoin: miter"/>
   </g>
   <g id="patch_4">
    <path d="M 722.835 383.4105 
L 881.865 383.4105 
Q 889.8165 383.4105 889.8165 375.459 
L 889.8165 216.429 
Q 889.8165 208.4775 881.865 208.4775 
L 722.835 208.4775 
Q 714.8835 208.4775 714.8835 216.429 
L 714.8835 375.459 
Q 714.8835 383.4105 722.835 383.4105 
z
" clip-path="url(#p827a66ebf8)" style="fill: #add8e6; stroke: #000080; stroke-width: 2; stroke-linejoin: miter"/>
   </g>
   <g id="patch_5">
    <path d="M 1040.895 383.4105 
L 1199.925 383.4105 
Q 1207.8765 383.4105 1207.8765 375.459 
L 1207.8765 216.429 
Q 1207.8765 208.4775 1199.925 208.4775 
L 1040.895 208.4775 
Q 1032.9435 208.4775 1032.9435 216.429 
L 1032.9435 375.459 
Q 1032.9435 383.4105 1040.895 383.4105 
z
" clip-path="url(#p827a66ebf8)" style="fill: #add8e6; stroke: #000080; stroke-width: 2; stroke-linejoin: miter"/>
   </g>
   <g id="patch_6">
    <path d="M 365.0175 780.9855 
L 603.5625 780.9855 
Q 611.514 780.9855 611.514 773.034 
L 611.514 614.004 
Q 611.514 606.0525 603.5625 606.0525 
L 365.0175 606.0525 
Q 357.066 606.0525 357.066 614.004 
L 357.066 773.034 
Q 357.066 780.9855 365.0175 780.9855 
z
" clip-path="url(#p827a66ebf8)" style="fill: #90ee90; stroke: #006400; stroke-width: 3; stroke-linejoin: miter"/>
   </g>
   <g id="patch_7">
    <path d="M 683.0775 780.9855 
L 921.6225 780.9855 
Q 929.574 780.9855 929.574 773.034 
L 929.574 614.004 
Q 929.574 606.0525 921.6225 606.0525 
L 683.0775 606.0525 
Q 675.126 606.0525 675.126 614.004 
L 675.126 773.034 
Q 675.126 780.9855 683.0775 780.9855 
z
" clip-path="url(#p827a66ebf8)" style="fill: #b0c4de; stroke: #00008b; stroke-width: 3; stroke-linejoin: miter"/>
   </g>
   <g id="patch_8">
    <path d="M 175.599123 307.655403 
Q 322.136146 490.826683 468.67317 673.997962 
" style="fill: none; stroke: #006400; stroke-width: 3; stroke-linecap: round"/>
   </g>
   <g id="patch_9">
    <path d="M 178.947838 303.892649 
Q 480.04858 492.080613 781.149323 680.268577 
" style="fill: none; stroke-dasharray: 11.1,4.8; stroke-dashoffset: 0; stroke: #00008b; stroke-width: 3; stroke-linecap: round"/>
   </g>
   <g id="patch_10">
    <path d="M 484.29 310.943454 
Q 484.29 489.731381 484.29 668.519309 
" style="fill: none; stroke: #006400; stroke-width: 3; stroke-linecap: round"/>
   </g>
   <g id="patch_11">
    <path d="M 493.659123 307.655403 
Q 640.196146 490.826683 786.73317 673.997962 
" style="fill: none; stroke-dasharray: 11.1,4.8; stroke-dashoffset: 0; stroke: #00008b; stroke-width: 3; stroke-linecap: round"/>
   </g>
   <g id="patch_12">
    <path d="M 792.980877 307.655403 
Q 646.443854 490.826683 499.90683 673.997962 
" style="fill: none; stroke: #006400; stroke-width: 3; stroke-linecap: round"/>
   </g>
   <g id="patch_13">
    <path d="M 802.35 310.943454 
Q 802.35 489.731381 802.35 668.519309 
" style="fill: none; stroke-dasharray: 11.1,4.8; stroke-dashoffset: 0; stroke: #00008b; stroke-width: 3; stroke-linecap: round"/>
   </g>
   <g id="patch_14">
    <path d="M 1107.692162 303.892649 
Q 806.59142 492.080613 505.490677 680.268577 
" style="fill: none; stroke: #006400; stroke-width: 3; stroke-linecap: round"/>
   </g>
   <g id="patch_15">
    <path d="M 1111.040877 307.655403 
Q 964.503854 490.826683 817.96683 673.997962 
" style="fill: none; stroke-dasharray: 11.1,4.8; stroke-dashoffset: 0; stroke: #00008b; stroke-width: 3; stroke-linecap: round"/>
   </g>
   <g id="text_1">
    <!-- DC 0 -->
    <g transform="translate(150.582188 283.35225) scale(0.12 -0.12)">
     <defs>
      <path id="DejaVuSans-Bold-44" d="M 1791 3756 
L 1791 909 
L 2222 909 
Q 2959 909 3348 1275 
Q 3738 1641 3738 2338 
Q 3738 3031 3350 3393 
Q 2963 3756 2222 3756 
L 1791 3756 
z
M 588 4666 
L 1856 4666 
Q 2919 4666 3439 4514 
Q 3959 4363 4331 4000 
Q 4659 3684 4818 3271 
Q 4978 2859 4978 2338 
Q 4978 1809 4818 1395 
Q 4659 981 4331 666 
Q 3956 303 3431 151 
Q 2906 0 1856 0 
L 588 0 
L 588 4666 
z
" transform="scale(0.015625)"/>
      <path id="DejaVuSans-Bold-43" d="M 4288 256 
Q 3956 84 3597 -3 
Q 3238 -91 2847 -91 
Q 1681 -91 1000 561 
Q 319 1213 319 2328 
Q 319 3447 1000 4098 
Q 1681 4750 2847 4750 
Q 3238 4750 3597 4662 
Q 3956 4575 4288 4403 
L 4288 3438 
Q 3953 3666 3628 3772 
Q 3303 3878 2944 3878 
Q 2300 3878 1931 3465 
Q 1563 3053 1563 2328 
Q 1563 1606 1931 1193 
Q 2300 781 2944 781 
Q 3303 781 3628 887 
Q 3953 994 4288 1222 
L 4288 256 
z
" transform="scale(0.015625)"/>
      <path id="DejaVuSans-Bold-20" transform="scale(0.015625)"/>
      <path id="DejaVuSans-Bold-30" d="M 2944 2338 
Q 2944 3213 2780 3570 
Q 2616 3928 2228 3928 
Q 1841 3928 1675 3570 
Q 1509 3213 1509 2338 
Q 1509 1453 1675 1090 
Q 1841 728 2228 728 
Q 2613 728 2778 1090 
Q 2944 1453 2944 2338 
z
M 4147 2328 
Q 4147 1169 3647 539 
Q 3147 -91 2228 -91 
Q 1306 -91 806 539 
Q 306 1169 306 2328 
Q 306 3491 806 4120 
Q 1306 4750 2228 4750 
Q 3147 4750 3647 4120 
Q 4147 3491 4147 2328 
z
" transform="scale(0.015625)"/>
     </defs>
     <use xlink:href="#DejaVuSans-Bold-44"/>
     <use xlink:href="#DejaVuSans-Bold-43" transform="translate(83.007812 0)"/>
     <use xlink:href="#DejaVuSans-Bold-20" transform="translate(156.396484 0)"/>
     <use xlink:href="#DejaVuSans-Bold-30" transform="translate(191.210938 0)"/>
    </g>
   </g>
   <g id="text_2">
    <!-- Shanghai Lingang -->
    <g transform="translate(121.344063 314.606375) scale(0.1 -0.1)">
     <defs>
      <path id="DejaVuSans-Oblique-53" d="M 3859 4513 
L 3738 3897 
Q 3422 4066 3111 4152 
Q 2800 4238 2509 4238 
Q 1944 4238 1609 3991 
Q 1275 3744 1275 3334 
Q 1275 3109 1398 2989 
Q 1522 2869 2034 2731 
L 2413 2638 
Q 3053 2472 3303 2217 
Q 3553 1963 3553 1503 
Q 3553 797 2998 353 
Q 2444 -91 1538 -91 
Q 1166 -91 791 -17 
Q 416 56 38 206 
L 166 856 
Q 513 641 861 531 
Q 1209 422 1556 422 
Q 2147 422 2503 684 
Q 2859 947 2859 1369 
Q 2859 1650 2717 1795 
Q 2575 1941 2106 2059 
L 1728 2156 
Q 1081 2325 845 2545 
Q 609 2766 609 3163 
Q 609 3859 1145 4304 
Q 1681 4750 2541 4750 
Q 2875 4750 3203 4690 
Q 3531 4631 3859 4513 
z
" transform="scale(0.015625)"/>
      <path id="DejaVuSans-Oblique-68" d="M 3566 2113 
L 3156 0 
L 2578 0 
L 2988 2091 
Q 3016 2238 3031 2350 
Q 3047 2463 3047 2528 
Q 3047 2791 2881 2937 
Q 2716 3084 2419 3084 
Q 1956 3084 1617 2771 
Q 1278 2459 1178 1941 
L 800 0 
L 225 0 
L 1172 4863 
L 1747 4863 
L 1375 2950 
Q 1594 3244 1934 3414 
Q 2275 3584 2650 3584 
Q 3113 3584 3367 3334 
Q 3622 3084 3622 2631 
Q 3622 2519 3608 2391 
Q 3594 2263 3566 2113 
z
" transform="scale(0.015625)"/>
      <path id="DejaVuSans-Oblique-61" d="M 3438 1997 
L 3047 0 
L 2472 0 
L 2578 531 
Q 2325 219 2001 64 
Q 1678 -91 1281 -91 
Q 834 -91 548 182 
Q 263 456 263 884 
Q 263 1497 752 1853 
Q 1241 2209 2100 2209 
L 2900 2209 
L 2931 2363 
Q 2938 2388 2941 2417 
Q 2944 2447 2944 2509 
Q 2944 2788 2717 2942 
Q 2491 3097 2081 3097 
Q 1800 3097 1504 3025 
Q 1209 2953 897 2809 
L 997 3341 
Q 1322 3463 1633 3523 
Q 1944 3584 2234 3584 
Q 2853 3584 3176 3315 
Q 3500 3047 3500 2534 
Q 3500 2431 3484 2292 
Q 3469 2153 3438 1997 
z
M 2816 1759 
L 2241 1759 
Q 1534 1759 1195 1570 
Q 856 1381 856 984 
Q 856 709 1029 553 
Q 1203 397 1509 397 
Q 1978 397 2328 733 
Q 2678 1069 2791 1631 
L 2816 1759 
z
" transform="scale(0.015625)"/>
      <path id="DejaVuSans-Oblique-6e" d="M 3566 2113 
L 3156 0 
L 2578 0 
L 2988 2091 
Q 3016 2238 3031 2350 
Q 3047 2463 3047 2528 
Q 3047 2791 2881 2937 
Q 2716 3084 2419 3084 
Q 1956 3084 1622 2776 
Q 1288 2469 1184 1941 
L 800 0 
L 225 0 
L 903 3500 
L 1478 3500 
L 1363 2950 
Q 1603 3253 1940 3418 
Q 2278 3584 2650 3584 
Q 3113 3584 3367 3334 
Q 3622 3084 3622 2631 
Q 3622 2519 3608 2391 
Q 3594 2263 3566 2113 
z
" transform="scale(0.015625)"/>
      <path id="DejaVuSans-Oblique-67" d="M 3816 3500 
L 3219 434 
Q 3047 -456 2561 -893 
Q 2075 -1331 1253 -1331 
Q 950 -1331 690 -1286 
Q 431 -1241 206 -1147 
L 313 -588 
Q 525 -725 762 -790 
Q 1000 -856 1269 -856 
Q 1816 -856 2167 -557 
Q 2519 -259 2631 300 
L 2681 563 
Q 2441 288 2122 144 
Q 1803 0 1434 0 
Q 903 0 598 351 
Q 294 703 294 1319 
Q 294 1803 478 2267 
Q 663 2731 997 3091 
Q 1219 3328 1514 3456 
Q 1809 3584 2131 3584 
Q 2484 3584 2746 3420 
Q 3009 3256 3138 2956 
L 3238 3500 
L 3816 3500 
z
M 2950 2216 
Q 2950 2641 2750 2872 
Q 2550 3103 2181 3103 
Q 1953 3103 1747 3012 
Q 1541 2922 1394 2759 
Q 1156 2491 1023 2127 
Q 891 1763 891 1375 
Q 891 944 1092 712 
Q 1294 481 1672 481 
Q 2219 481 2584 976 
Q 2950 1472 2950 2216 
z
" transform="scale(0.015625)"/>
      <path id="DejaVuSans-Oblique-69" d="M 1172 4863 
L 1747 4863 
L 1606 4134 
L 1031 4134 
L 1172 4863 
z
M 909 3500 
L 1484 3500 
L 800 0 
L 225 0 
L 909 3500 
z
" transform="scale(0.015625)"/>
      <path id="DejaVuSans-Oblique-20" transform="scale(0.015625)"/>
      <path id="DejaVuSans-Oblique-4c" d="M 1075 4666 
L 1709 4666 
L 909 525 
L 3181 525 
L 3078 0 
L 172 0 
L 1075 4666 
z
" transform="scale(0.015625)"/>
     </defs>
     <use xlink:href="#DejaVuSans-Oblique-53"/>
     <use xlink:href="#DejaVuSans-Oblique-68" transform="translate(63.476562 0)"/>
     <use xlink:href="#DejaVuSans-Oblique-61" transform="translate(126.855469 0)"/>
     <use xlink:href="#DejaVuSans-Oblique-6e" transform="translate(188.134766 0)"/>
     <use xlink:href="#DejaVuSans-Oblique-67" transform="translate(251.513672 0)"/>
     <use xlink:href="#DejaVuSans-Oblique-68" transform="translate(314.990234 0)"/>
     <use xlink:href="#DejaVuSans-Oblique-61" transform="translate(378.369141 0)"/>
     <use xlink:href="#DejaVuSans-Oblique-69" transform="translate(439.648438 0)"/>
     <use xlink:href="#DejaVuSans-Oblique-20" transform="translate(467.431641 0)"/>
     <use xlink:href="#DejaVuSans-Oblique-4c" transform="translate(499.21875 0)"/>
     <use xlink:href="#DejaVuSans-Oblique-69" transform="translate(554.931641 0)"/>
     <use xlink:href="#DejaVuSans-Oblique-6e" transform="translate(582.714844 0)"/>
     <use xlink:href="#DejaVuSans-Oblique-67" transform="translate(646.09375 0)"/>
     <use xlink:href="#DejaVuSans-Oblique-61" transform="translate(709.570312 0)"/>
     <use xlink:href="#DejaVuSans-Oblique-6e" transform="translate(770.849609 0)"/>
     <use xlink:href="#DejaVuSans-Oblique-67" transform="translate(834.228516 0)"/>
    </g>
   </g>
   <g id="text_3">
    <!-- DC 1 -->
    <g transform="translate(468.642188 283.35225) scale(0.12 -0.12)">
     <defs>
      <path id="DejaVuSans-Bold-31" d="M 750 831 
L 1813 831 
L 1813 3847 
L 722 3622 
L 722 4441 
L 1806 4666 
L 2950 4666 
L 2950 831 
L 4013 831 
L 4013 0 
L 750 0 
L 750 831 
z
" transform="scale(0.015625)"/>
     </defs>
     <use xlink:href="#DejaVuSans-Bold-44"/>
     <use xlink:href="#DejaVuSans-Bold-43" transform="translate(83.007812 0)"/>
     <use xlink:href="#DejaVuSans-Bold-20" transform="translate(156.396484 0)"/>
     <use xlink:href="#DejaVuSans-Bold-31" transform="translate(191.210938 0)"/>
    </g>
   </g>
   <g id="text_4">
    <!-- Suzhou Changshu -->
    <g transform="translate(439.3275 314.606375) scale(0.1 -0.1)">
     <defs>
      <path id="DejaVuSans-Oblique-75" d="M 428 1388 
L 838 3500 
L 1416 3500 
L 1006 1409 
Q 975 1256 961 1147 
Q 947 1038 947 966 
Q 947 700 1109 554 
Q 1272 409 1569 409 
Q 2031 409 2368 721 
Q 2706 1034 2809 1563 
L 3194 3500 
L 3769 3500 
L 3091 0 
L 2516 0 
L 2631 550 
Q 2388 244 2052 76 
Q 1716 -91 1338 -91 
Q 878 -91 622 161 
Q 366 413 366 863 
Q 366 956 381 1097 
Q 397 1238 428 1388 
z
" transform="scale(0.015625)"/>
      <path id="DejaVuSans-Oblique-7a" d="M 744 3500 
L 3475 3500 
L 3372 2975 
L 738 459 
L 2913 459 
L 2822 0 
L -19 0 
L 84 525 
L 2719 3041 
L 653 3041 
L 744 3500 
z
" transform="scale(0.015625)"/>
      <path id="DejaVuSans-Oblique-6f" d="M 1625 -91 
Q 1009 -91 651 289 
Q 294 669 294 1325 
Q 294 1706 417 2101 
Q 541 2497 738 2766 
Q 1047 3184 1428 3384 
Q 1809 3584 2291 3584 
Q 2888 3584 3255 3212 
Q 3622 2841 3622 2241 
Q 3622 1825 3500 1412 
Q 3378 1000 3181 728 
Q 2875 309 2494 109 
Q 2113 -91 1625 -91 
z
M 891 1344 
Q 891 869 1089 633 
Q 1288 397 1691 397 
Q 2269 397 2648 901 
Q 3028 1406 3028 2181 
Q 3028 2634 2825 2865 
Q 2622 3097 2228 3097 
Q 1903 3097 1650 2945 
Q 1397 2794 1197 2484 
Q 1050 2253 970 1956 
Q 891 1659 891 1344 
z
" transform="scale(0.015625)"/>
      <path id="DejaVuSans-Oblique-43" d="M 4447 4306 
L 4319 3641 
Q 4019 3944 3683 4091 
Q 3347 4238 2956 4238 
Q 2422 4238 2017 3981 
Q 1613 3725 1319 3200 
Q 1131 2863 1032 2486 
Q 934 2109 934 1728 
Q 934 1091 1264 756 
Q 1594 422 2222 422 
Q 2656 422 3056 561 
Q 3456 700 3834 978 
L 3688 231 
Q 3316 72 2936 -9 
Q 2556 -91 2175 -91 
Q 1278 -91 773 396 
Q 269 884 269 1753 
Q 269 2309 461 2846 
Q 653 3384 1013 3828 
Q 1394 4300 1883 4525 
Q 2372 4750 3022 4750 
Q 3422 4750 3780 4639 
Q 4138 4528 4447 4306 
z
" transform="scale(0.015625)"/>
      <path id="DejaVuSans-Oblique-73" d="M 3200 3397 
L 3091 2853 
Q 2863 2978 2609 3040 
Q 2356 3103 2088 3103 
Q 1634 3103 1373 2948 
Q 1113 2794 1113 2528 
Q 1113 2219 1719 2053 
Q 1766 2041 1788 2034 
L 1972 1978 
Q 2547 1819 2739 1644 
Q 2931 1469 2931 1166 
Q 2931 609 2489 259 
Q 2047 -91 1331 -91 
Q 1053 -91 747 -37 
Q 441 16 72 128 
L 184 722 
Q 500 559 806 475 
Q 1113 391 1394 391 
Q 1816 391 2080 572 
Q 2344 753 2344 1031 
Q 2344 1331 1650 1516 
L 1591 1531 
L 1394 1581 
Q 956 1697 753 1886 
Q 550 2075 550 2369 
Q 550 2928 970 3256 
Q 1391 3584 2113 3584 
Q 2397 3584 2667 3537 
Q 2938 3491 3200 3397 
z
" transform="scale(0.015625)"/>
     </defs>
     <use xlink:href="#DejaVuSans-Oblique-53"/>
     <use xlink:href="#DejaVuSans-Oblique-75" transform="translate(63.476562 0)"/>
     <use xlink:href="#DejaVuSans-Oblique-7a" transform="translate(126.855469 0)"/>
     <use xlink:href="#DejaVuSans-Oblique-68" transform="translate(179.345703 0)"/>
     <use xlink:href="#DejaVuSans-Oblique-6f" transform="translate(242.724609 0)"/>
     <use xlink:href="#DejaVuSans-Oblique-75" transform="translate(303.90625 0)"/>
     <use xlink:href="#DejaVuSans-Oblique-20" transform="translate(367.285156 0)"/>
     <use xlink:href="#DejaVuSans-Oblique-43" transform="translate(399.072266 0)"/>
     <use xlink:href="#DejaVuSans-Oblique-68" transform="translate(468.896484 0)"/>
     <use xlink:href="#DejaVuSans-Oblique-61" transform="translate(532.275391 0)"/>
     <use xlink:href="#DejaVuSans-Oblique-6e" transform="translate(593.554688 0)"/>
     <use xlink:href="#DejaVuSans-Oblique-67" transform="translate(656.933594 0)"/>
     <use xlink:href="#DejaVuSans-Oblique-73" transform="translate(720.410156 0)"/>
     <use xlink:href="#DejaVuSans-Oblique-68" transform="translate(772.509766 0)"/>
     <use xlink:href="#DejaVuSans-Oblique-75" transform="translate(835.888672 0)"/>
    </g>
   </g>
   <g id="text_5">
    <!-- DC 2 -->
    <g transform="translate(786.702187 283.35225) scale(0.12 -0.12)">
     <defs>
      <path id="DejaVuSans-Bold-32" d="M 1844 884 
L 3897 884 
L 3897 0 
L 506 0 
L 506 884 
L 2209 2388 
Q 2438 2594 2547 2791 
Q 2656 2988 2656 3200 
Q 2656 3528 2436 3728 
Q 2216 3928 1850 3928 
Q 1569 3928 1234 3808 
Q 900 3688 519 3450 
L 519 4475 
Q 925 4609 1322 4679 
Q 1719 4750 2100 4750 
Q 2938 4750 3402 4381 
Q 3866 4013 3866 3353 
Q 3866 2972 3669 2642 
Q 3472 2313 2841 1759 
L 1844 884 
z
" transform="scale(0.015625)"/>
     </defs>
     <use xlink:href="#DejaVuSans-Bold-44"/>
     <use xlink:href="#DejaVuSans-Bold-43" transform="translate(83.007812 0)"/>
     <use xlink:href="#DejaVuSans-Bold-20" transform="translate(156.396484 0)"/>
     <use xlink:href="#DejaVuSans-Bold-32" transform="translate(191.210938 0)"/>
    </g>
   </g>
   <g id="text_6">
    <!-- Hangzhou Binjiang -->
    <g transform="translate(755.399219 314.606375) scale(0.1 -0.1)">
     <defs>
      <path id="DejaVuSans-Oblique-48" d="M 1081 4666 
L 1716 4666 
L 1344 2753 
L 3634 2753 
L 4006 4666 
L 4641 4666 
L 3731 0 
L 3097 0 
L 3531 2222 
L 1241 2222 
L 806 0 
L 172 0 
L 1081 4666 
z
" transform="scale(0.015625)"/>
      <path id="DejaVuSans-Oblique-42" d="M 1081 4666 
L 2694 4666 
Q 3350 4666 3675 4422 
Q 4000 4178 4000 3688 
Q 4000 3238 3720 2911 
Q 3441 2584 2988 2516 
Q 3375 2428 3569 2181 
Q 3763 1934 3763 1522 
Q 3763 819 3242 409 
Q 2722 0 1819 0 
L 172 0 
L 1081 4666 
z
M 1234 2228 
L 903 519 
L 1919 519 
Q 2491 519 2800 781 
Q 3109 1044 3109 1522 
Q 3109 1891 2904 2059 
Q 2700 2228 2247 2228 
L 1234 2228 
z
M 1606 4147 
L 1331 2741 
L 2272 2741 
Q 2775 2741 3058 2959 
Q 3341 3178 3341 3566 
Q 3341 3869 3150 4008 
Q 2959 4147 2541 4147 
L 1606 4147 
z
" transform="scale(0.015625)"/>
      <path id="DejaVuSans-Oblique-6a" d="M 928 3500 
L 1503 3500 
L 813 -63 
L 809 -78 
Q 694 -675 544 -897 
Q 403 -1106 132 -1218 
Q -138 -1331 -506 -1331 
L -722 -1331 
L -628 -844 
L -481 -844 
Q -144 -844 -1 -703 
Q 141 -563 238 -63 
L 928 3500 
z
M 1197 4863 
L 1772 4863 
L 1631 4134 
L 1056 4134 
L 1197 4863 
z
" transform="scale(0.015625)"/>
     </defs>
     <use xlink:href="#DejaVuSans-Oblique-48"/>
     <use xlink:href="#DejaVuSans-Oblique-61" transform="translate(75.195312 0)"/>
     <use xlink:href="#DejaVuSans-Oblique-6e" transform="translate(136.474609 0)"/>
     <use xlink:href="#DejaVuSans-Oblique-67" transform="translate(199.853516 0)"/>
     <use xlink:href="#DejaVuSans-Oblique-7a" transform="translate(263.330078 0)"/>
     <use xlink:href="#DejaVuSans-Oblique-68" transform="translate(315.820312 0)"/>
     <use xlink:href="#DejaVuSans-Oblique-6f" transform="translate(379.199219 0)"/>
     <use xlink:href="#DejaVuSans-Oblique-75" transform="translate(440.380859 0)"/>
     <use xlink:href="#DejaVuSans-Oblique-20" transform="translate(503.759766 0)"/>
     <use xlink:href="#DejaVuSans-Oblique-42" transform="translate(535.546875 0)"/>
     <use xlink:href="#DejaVuSans-Oblique-69" transform="translate(604.150391 0)"/>
     <use xlink:href="#DejaVuSans-Oblique-6e" transform="translate(631.933594 0)"/>
     <use xlink:href="#DejaVuSans-Oblique-6a" transform="translate(695.3125 0)"/>
     <use xlink:href="#DejaVuSans-Oblique-69" transform="translate(723.095703 0)"/>
     <use xlink:href="#DejaVuSans-Oblique-61" transform="translate(750.878906 0)"/>
     <use xlink:href="#DejaVuSans-Oblique-6e" transform="translate(812.158203 0)"/>
     <use xlink:href="#DejaVuSans-Oblique-67" transform="translate(875.537109 0)"/>
    </g>
   </g>
   <g id="text_7">
    <!-- DC 3 -->
    <g transform="translate(1104.762187 283.35225) scale(0.12 -0.12)">
     <defs>
      <path id="DejaVuSans-Bold-33" d="M 2981 2516 
Q 3453 2394 3698 2092 
Q 3944 1791 3944 1325 
Q 3944 631 3412 270 
Q 2881 -91 1863 -91 
Q 1503 -91 1142 -33 
Q 781 25 428 141 
L 428 1069 
Q 766 900 1098 814 
Q 1431 728 1753 728 
Q 2231 728 2486 893 
Q 2741 1059 2741 1369 
Q 2741 1688 2480 1852 
Q 2219 2016 1709 2016 
L 1228 2016 
L 1228 2791 
L 1734 2791 
Q 2188 2791 2409 2933 
Q 2631 3075 2631 3366 
Q 2631 3634 2415 3781 
Q 2200 3928 1806 3928 
Q 1516 3928 1219 3862 
Q 922 3797 628 3669 
L 628 4550 
Q 984 4650 1334 4700 
Q 1684 4750 2022 4750 
Q 2931 4750 3382 4451 
Q 3834 4153 3834 3553 
Q 3834 3144 3618 2883 
Q 3403 2622 2981 2516 
z
" transform="scale(0.015625)"/>
     </defs>
     <use xlink:href="#DejaVuSans-Bold-44"/>
     <use xlink:href="#DejaVuSans-Bold-43" transform="translate(83.007812 0)"/>
     <use xlink:href="#DejaVuSans-Bold-20" transform="translate(156.396484 0)"/>
     <use xlink:href="#DejaVuSans-Bold-33" transform="translate(191.210938 0)"/>
    </g>
   </g>
   <g id="text_8">
    <!-- Ningbo Hangzhou Bay -->
    <g transform="translate(1064.883437 314.606375) scale(0.1 -0.1)">
     <defs>
      <path id="DejaVuSans-Oblique-4e" d="M 1081 4666 
L 1931 4666 
L 3219 666 
L 4000 4666 
L 4616 4666 
L 3706 0 
L 2853 0 
L 1569 4025 
L 788 0 
L 172 0 
L 1081 4666 
z
" transform="scale(0.015625)"/>
      <path id="DejaVuSans-Oblique-62" d="M 3169 2138 
Q 3169 2591 2961 2847 
Q 2753 3103 2388 3103 
Q 2122 3103 1889 2973 
Q 1656 2844 1484 2597 
Q 1303 2338 1198 1995 
Q 1094 1653 1094 1313 
Q 1094 881 1298 636 
Q 1503 391 1863 391 
Q 2134 391 2365 517 
Q 2597 644 2772 891 
Q 2950 1147 3059 1487 
Q 3169 1828 3169 2138 
z
M 1381 2969 
Q 1594 3256 1914 3420 
Q 2234 3584 2584 3584 
Q 3122 3584 3439 3221 
Q 3756 2859 3756 2241 
Q 3756 1734 3570 1259 
Q 3384 784 3041 416 
Q 2816 172 2522 40 
Q 2228 -91 1906 -91 
Q 1566 -91 1316 65 
Q 1066 222 909 531 
L 806 0 
L 231 0 
L 1178 4863 
L 1753 4863 
L 1381 2969 
z
" transform="scale(0.015625)"/>
      <path id="DejaVuSans-Oblique-79" d="M 1588 -325 
Q 1188 -997 936 -1164 
Q 684 -1331 294 -1331 
L -159 -1331 
L -63 -850 
L 269 -850 
Q 509 -850 678 -719 
Q 847 -588 1056 -206 
L 1234 128 
L 459 3500 
L 1069 3500 
L 1650 819 
L 3256 3500 
L 3859 3500 
L 1588 -325 
z
" transform="scale(0.015625)"/>
     </defs>
     <use xlink:href="#DejaVuSans-Oblique-4e"/>
     <use xlink:href="#DejaVuSans-Oblique-69" transform="translate(74.804688 0)"/>
     <use xlink:href="#DejaVuSans-Oblique-6e" transform="translate(102.587891 0)"/>
     <use xlink:href="#DejaVuSans-Oblique-67" transform="translate(165.966797 0)"/>
     <use xlink:href="#DejaVuSans-Oblique-62" transform="translate(229.443359 0)"/>
     <use xlink:href="#DejaVuSans-Oblique-6f" transform="translate(292.919922 0)"/>
     <use xlink:href="#DejaVuSans-Oblique-20" transform="translate(354.101562 0)"/>
     <use xlink:href="#DejaVuSans-Oblique-48" transform="translate(385.888672 0)"/>
     <use xlink:href="#DejaVuSans-Oblique-61" transform="translate(461.083984 0)"/>
     <use xlink:href="#DejaVuSans-Oblique-6e" transform="translate(522.363281 0)"/>
     <use xlink:href="#DejaVuSans-Oblique-67" transform="translate(585.742188 0)"/>
     <use xlink:href="#DejaVuSans-Oblique-7a" transform="translate(649.21875 0)"/>
     <use xlink:href="#DejaVuSans-Oblique-68" transform="translate(701.708984 0)"/>
     <use xlink:href="#DejaVuSans-Oblique-6f" transform="translate(765.087891 0)"/>
     <use xlink:href="#DejaVuSans-Oblique-75" transform="translate(826.269531 0)"/>
     <use xlink:href="#DejaVuSans-Oblique-20" transform="translate(889.648438 0)"/>
     <use xlink:href="#DejaVuSans-Oblique-42" transform="translate(921.435547 0)"/>
     <use xlink:href="#DejaVuSans-Oblique-61" transform="translate(990.039062 0)"/>
     <use xlink:href="#DejaVuSans-Oblique-79" transform="translate(1051.318359 0)"/>
    </g>
   </g>
   <g id="text_9">
    <!-- Spine Switch 1 -->
    <g style="fill: #006400" transform="translate(438.472422 672.699812) scale(0.11 -0.11)">
     <defs>
      <path id="DejaVuSans-Bold-53" d="M 3834 4519 
L 3834 3531 
Q 3450 3703 3084 3790 
Q 2719 3878 2394 3878 
Q 1963 3878 1756 3759 
Q 1550 3641 1550 3391 
Q 1550 3203 1689 3098 
Q 1828 2994 2194 2919 
L 2706 2816 
Q 3484 2659 3812 2340 
Q 4141 2022 4141 1434 
Q 4141 663 3683 286 
Q 3225 -91 2284 -91 
Q 1841 -91 1394 -6 
Q 947 78 500 244 
L 500 1259 
Q 947 1022 1364 901 
Q 1781 781 2169 781 
Q 2563 781 2772 912 
Q 2981 1044 2981 1288 
Q 2981 1506 2839 1625 
Q 2697 1744 2272 1838 
L 1806 1941 
Q 1106 2091 782 2419 
Q 459 2747 459 3303 
Q 459 4000 909 4375 
Q 1359 4750 2203 4750 
Q 2588 4750 2994 4692 
Q 3400 4634 3834 4519 
z
" transform="scale(0.015625)"/>
      <path id="DejaVuSans-Bold-70" d="M 1656 506 
L 1656 -1331 
L 538 -1331 
L 538 3500 
L 1656 3500 
L 1656 2988 
Q 1888 3294 2169 3439 
Q 2450 3584 2816 3584 
Q 3463 3584 3878 3070 
Q 4294 2556 4294 1747 
Q 4294 938 3878 423 
Q 3463 -91 2816 -91 
Q 2450 -91 2169 54 
Q 1888 200 1656 506 
z
M 2400 2772 
Q 2041 2772 1848 2508 
Q 1656 2244 1656 1747 
Q 1656 1250 1848 986 
Q 2041 722 2400 722 
Q 2759 722 2948 984 
Q 3138 1247 3138 1747 
Q 3138 2247 2948 2509 
Q 2759 2772 2400 2772 
z
" transform="scale(0.015625)"/>
      <path id="DejaVuSans-Bold-69" d="M 538 3500 
L 1656 3500 
L 1656 0 
L 538 0 
L 538 3500 
z
M 538 4863 
L 1656 4863 
L 1656 3950 
L 538 3950 
L 538 4863 
z
" transform="scale(0.015625)"/>
      <path id="DejaVuSans-Bold-6e" d="M 4056 2131 
L 4056 0 
L 2931 0 
L 2931 347 
L 2931 1631 
Q 2931 2084 2911 2256 
Q 2891 2428 2841 2509 
Q 2775 2619 2662 2680 
Q 2550 2741 2406 2741 
Q 2056 2741 1856 2470 
Q 1656 2200 1656 1722 
L 1656 0 
L 538 0 
L 538 3500 
L 1656 3500 
L 1656 2988 
Q 1909 3294 2193 3439 
Q 2478 3584 2822 3584 
Q 3428 3584 3742 3212 
Q 4056 2841 4056 2131 
z
" transform="scale(0.015625)"/>
      <path id="DejaVuSans-Bold-65" d="M 4031 1759 
L 4031 1441 
L 1416 1441 
Q 1456 1047 1700 850 
Q 1944 653 2381 653 
Q 2734 653 3104 758 
Q 3475 863 3866 1075 
L 3866 213 
Q 3469 63 3072 -14 
Q 2675 -91 2278 -91 
Q 1328 -91 801 392 
Q 275 875 275 1747 
Q 275 2603 792 3093 
Q 1309 3584 2216 3584 
Q 3041 3584 3536 3087 
Q 4031 2591 4031 1759 
z
M 2881 2131 
Q 2881 2450 2695 2645 
Q 2509 2841 2209 2841 
Q 1884 2841 1681 2658 
Q 1478 2475 1428 2131 
L 2881 2131 
z
" transform="scale(0.015625)"/>
      <path id="DejaVuSans-Bold-77" d="M 225 3500 
L 1313 3500 
L 1900 1088 
L 2491 3500 
L 3425 3500 
L 4013 1113 
L 4603 3500 
L 5691 3500 
L 4769 0 
L 3547 0 
L 2956 2406 
L 2369 0 
L 1147 0 
L 225 3500 
z
" transform="scale(0.015625)"/>
      <path id="DejaVuSans-Bold-74" d="M 1759 4494 
L 1759 3500 
L 2913 3500 
L 2913 2700 
L 1759 2700 
L 1759 1216 
Q 1759 972 1856 886 
Q 1953 800 2241 800 
L 2816 800 
L 2816 0 
L 1856 0 
Q 1194 0 917 276 
Q 641 553 641 1216 
L 641 2700 
L 84 2700 
L 84 3500 
L 641 3500 
L 641 4494 
L 1759 4494 
z
" transform="scale(0.015625)"/>
      <path id="DejaVuSans-Bold-63" d="M 3366 3391 
L 3366 2478 
Q 3138 2634 2908 2709 
Q 2678 2784 2431 2784 
Q 1963 2784 1702 2511 
Q 1441 2238 1441 1747 
Q 1441 1256 1702 982 
Q 1963 709 2431 709 
Q 2694 709 2930 787 
Q 3166 866 3366 1019 
L 3366 103 
Q 3103 6 2833 -42 
Q 2563 -91 2291 -91 
Q 1344 -91 809 395 
Q 275 881 275 1747 
Q 275 2613 809 3098 
Q 1344 3584 2291 3584 
Q 2566 3584 2833 3536 
Q 3100 3488 3366 3391 
z
" transform="scale(0.015625)"/>
      <path id="DejaVuSans-Bold-68" d="M 4056 2131 
L 4056 0 
L 2931 0 
L 2931 347 
L 2931 1625 
Q 2931 2084 2911 2256 
Q 2891 2428 2841 2509 
Q 2775 2619 2662 2680 
Q 2550 2741 2406 2741 
Q 2056 2741 1856 2470 
Q 1656 2200 1656 1722 
L 1656 0 
L 538 0 
L 538 4863 
L 1656 4863 
L 1656 2988 
Q 1909 3294 2193 3439 
Q 2478 3584 2822 3584 
Q 3428 3584 3742 3212 
Q 4056 2841 4056 2131 
z
" transform="scale(0.015625)"/>
     </defs>
     <use xlink:href="#DejaVuSans-Bold-53"/>
     <use xlink:href="#DejaVuSans-Bold-70" transform="translate(72.021484 0)"/>
     <use xlink:href="#DejaVuSans-Bold-69" transform="translate(143.603516 0)"/>
     <use xlink:href="#DejaVuSans-Bold-6e" transform="translate(177.880859 0)"/>
     <use xlink:href="#DejaVuSans-Bold-65" transform="translate(249.072266 0)"/>
     <use xlink:href="#DejaVuSans-Bold-20" transform="translate(316.894531 0)"/>
     <use xlink:href="#DejaVuSans-Bold-53" transform="translate(351.708984 0)"/>
     <use xlink:href="#DejaVuSans-Bold-77" transform="translate(423.730469 0)"/>
     <use xlink:href="#DejaVuSans-Bold-69" transform="translate(516.113281 0)"/>
     <use xlink:href="#DejaVuSans-Bold-74" transform="translate(550.390625 0)"/>
     <use xlink:href="#DejaVuSans-Bold-63" transform="translate(598.193359 0)"/>
     <use xlink:href="#DejaVuSans-Bold-68" transform="translate(657.470703 0)"/>
     <use xlink:href="#DejaVuSans-Bold-20" transform="translate(728.662109 0)"/>
     <use xlink:href="#DejaVuSans-Bold-31" transform="translate(763.476562 0)"/>
    </g>
   </g>
   <g id="text_10">
    <!-- Jiaxing -->
    <g style="fill: #006400" transform="translate(467.670469 720.132875) scale(0.1 -0.1)">
     <defs>
      <path id="DejaVuSans-Oblique-4a" d="M 1069 4666 
L 1703 4666 
L 856 325 
Q 691 -522 298 -901 
Q -94 -1281 -800 -1281 
L -1050 -1281 
L -947 -750 
L -750 -750 
Q -328 -750 -109 -509 
Q 109 -269 225 325 
L 1069 4666 
z
" transform="scale(0.015625)"/>
      <path id="DejaVuSans-Oblique-78" d="M 3841 3500 
L 2234 1784 
L 3219 0 
L 2559 0 
L 1819 1388 
L 531 0 
L -166 0 
L 1556 1844 
L 641 3500 
L 1300 3500 
L 1972 2234 
L 3144 3500 
L 3841 3500 
z
" transform="scale(0.015625)"/>
     </defs>
     <use xlink:href="#DejaVuSans-Oblique-4a"/>
     <use xlink:href="#DejaVuSans-Oblique-69" transform="translate(29.492188 0)"/>
     <use xlink:href="#DejaVuSans-Oblique-61" transform="translate(57.275391 0)"/>
     <use xlink:href="#DejaVuSans-Oblique-78" transform="translate(118.554688 0)"/>
     <use xlink:href="#DejaVuSans-Oblique-69" transform="translate(177.734375 0)"/>
     <use xlink:href="#DejaVuSans-Oblique-6e" transform="translate(205.517578 0)"/>
     <use xlink:href="#DejaVuSans-Oblique-67" transform="translate(268.896484 0)"/>
    </g>
   </g>
   <g id="text_11">
    <!-- Spine Switch 2 -->
    <g style="fill: #00008b" transform="translate(756.532422 672.699812) scale(0.11 -0.11)">
     <use xlink:href="#DejaVuSans-Bold-53"/>
     <use xlink:href="#DejaVuSans-Bold-70" transform="translate(72.021484 0)"/>
     <use xlink:href="#DejaVuSans-Bold-69" transform="translate(143.603516 0)"/>
     <use xlink:href="#DejaVuSans-Bold-6e" transform="translate(177.880859 0)"/>
     <use xlink:href="#DejaVuSans-Bold-65" transform="translate(249.072266 0)"/>
     <use xlink:href="#DejaVuSans-Bold-20" transform="translate(316.894531 0)"/>
     <use xlink:href="#DejaVuSans-Bold-53" transform="translate(351.708984 0)"/>
     <use xlink:href="#DejaVuSans-Bold-77" transform="translate(423.730469 0)"/>
     <use xlink:href="#DejaVuSans-Bold-69" transform="translate(516.113281 0)"/>
     <use xlink:href="#DejaVuSans-Bold-74" transform="translate(550.390625 0)"/>
     <use xlink:href="#DejaVuSans-Bold-63" transform="translate(598.193359 0)"/>
     <use xlink:href="#DejaVuSans-Bold-68" transform="translate(657.470703 0)"/>
     <use xlink:href="#DejaVuSans-Bold-20" transform="translate(728.662109 0)"/>
     <use xlink:href="#DejaVuSans-Bold-32" transform="translate(763.476562 0)"/>
    </g>
   </g>
   <g id="text_12">
    <!-- Shanghai Songjiang -->
    <g style="fill: #00008b" transform="translate(752.627344 720.132875) scale(0.1 -0.1)">
     <use xlink:href="#DejaVuSans-Oblique-53"/>
     <use xlink:href="#DejaVuSans-Oblique-68" transform="translate(63.476562 0)"/>
     <use xlink:href="#DejaVuSans-Oblique-61" transform="translate(126.855469 0)"/>
     <use xlink:href="#DejaVuSans-Oblique-6e" transform="translate(188.134766 0)"/>
     <use xlink:href="#DejaVuSans-Oblique-67" transform="translate(251.513672 0)"/>
     <use xlink:href="#DejaVuSans-Oblique-68" transform="translate(314.990234 0)"/>
     <use xlink:href="#DejaVuSans-Oblique-61" transform="translate(378.369141 0)"/>
     <use xlink:href="#DejaVuSans-Oblique-69" transform="translate(439.648438 0)"/>
     <use xlink:href="#DejaVuSans-Oblique-20" transform="translate(467.431641 0)"/>
     <use xlink:href="#DejaVuSans-Oblique-53" transform="translate(499.21875 0)"/>
     <use xlink:href="#DejaVuSans-Oblique-6f" transform="translate(562.695312 0)"/>
     <use xlink:href="#DejaVuSans-Oblique-6e" transform="translate(623.876953 0)"/>
     <use xlink:href="#DejaVuSans-Oblique-67" transform="translate(687.255859 0)"/>
     <use xlink:href="#DejaVuSans-Oblique-6a" transform="translate(750.732422 0)"/>
     <use xlink:href="#DejaVuSans-Oblique-69" transform="translate(778.515625 0)"/>
     <use xlink:href="#DejaVuSans-Oblique-61" transform="translate(806.298828 0)"/>
     <use xlink:href="#DejaVuSans-Oblique-6e" transform="translate(867.578125 0)"/>
     <use xlink:href="#DejaVuSans-Oblique-67" transform="translate(930.957031 0)"/>
    </g>
   </g>
   <g id="text_13">
    <g id="patch_16">
     <path d="M 333.065219 541.828062 
L 381.066781 541.828062 
Q 383.566781 541.828062 383.566781 539.328062 
L 383.566781 529.649937 
Q 383.566781 527.149937 381.066781 527.149937 
L 333.065219 527.149937 
Q 330.565219 527.149937 330.565219 529.649937 
L 330.565219 539.328062 
Q 330.565219 541.828062 333.065219 541.828062 
z
" style="fill: #e8f5e8; opacity: 0.95; stroke: #006400; stroke-linejoin: miter"/>
    </g>
    <!-- 0.562ms -->
    <g style="fill: #006400" transform="translate(333.065219 537.248375) scale(0.1 -0.1)">
     <defs>
      <path id="DejaVuSans-Bold-2e" d="M 653 1209 
L 1778 1209 
L 1778 0 
L 653 0 
L 653 1209 
z
" transform="scale(0.015625)"/>
      <path id="DejaVuSans-Bold-35" d="M 678 4666 
L 3669 4666 
L 3669 3781 
L 1638 3781 
L 1638 3059 
Q 1775 3097 1914 3117 
Q 2053 3138 2203 3138 
Q 3056 3138 3531 2711 
Q 4006 2284 4006 1522 
Q 4006 766 3489 337 
Q 2972 -91 2053 -91 
Q 1656 -91 1267 -14 
Q 878 63 494 219 
L 494 1166 
Q 875 947 1217 837 
Q 1559 728 1863 728 
Q 2300 728 2551 942 
Q 2803 1156 2803 1522 
Q 2803 1891 2551 2103 
Q 2300 2316 1863 2316 
Q 1603 2316 1309 2248 
Q 1016 2181 678 2041 
L 678 4666 
z
" transform="scale(0.015625)"/>
      <path id="DejaVuSans-Bold-36" d="M 2316 2303 
Q 2000 2303 1842 2098 
Q 1684 1894 1684 1484 
Q 1684 1075 1842 870 
Q 2000 666 2316 666 
Q 2634 666 2792 870 
Q 2950 1075 2950 1484 
Q 2950 1894 2792 2098 
Q 2634 2303 2316 2303 
z
M 3803 4544 
L 3803 3681 
Q 3506 3822 3243 3889 
Q 2981 3956 2731 3956 
Q 2194 3956 1894 3657 
Q 1594 3359 1544 2772 
Q 1750 2925 1990 3001 
Q 2231 3078 2516 3078 
Q 3231 3078 3670 2659 
Q 4109 2241 4109 1563 
Q 4109 813 3618 361 
Q 3128 -91 2303 -91 
Q 1394 -91 895 523 
Q 397 1138 397 2266 
Q 397 3422 980 4083 
Q 1563 4744 2578 4744 
Q 2900 4744 3203 4694 
Q 3506 4644 3803 4544 
z
" transform="scale(0.015625)"/>
      <path id="DejaVuSans-Bold-6d" d="M 3781 2919 
Q 3994 3244 4286 3414 
Q 4578 3584 4928 3584 
Q 5531 3584 5847 3212 
Q 6163 2841 6163 2131 
L 6163 0 
L 5038 0 
L 5038 1825 
Q 5041 1866 5042 1909 
Q 5044 1953 5044 2034 
Q 5044 2406 4934 2573 
Q 4825 2741 4581 2741 
Q 4263 2741 4089 2478 
Q 3916 2216 3909 1719 
L 3909 0 
L 2784 0 
L 2784 1825 
Q 2784 2406 2684 2573 
Q 2584 2741 2328 2741 
Q 2006 2741 1831 2477 
Q 1656 2213 1656 1722 
L 1656 0 
L 531 0 
L 531 3500 
L 1656 3500 
L 1656 2988 
Q 1863 3284 2130 3434 
Q 2397 3584 2719 3584 
Q 3081 3584 3359 3409 
Q 3638 3234 3781 2919 
z
" transform="scale(0.015625)"/>
      <path id="DejaVuSans-Bold-73" d="M 3272 3391 
L 3272 2541 
Q 2913 2691 2578 2766 
Q 2244 2841 1947 2841 
Q 1628 2841 1473 2761 
Q 1319 2681 1319 2516 
Q 1319 2381 1436 2309 
Q 1553 2238 1856 2203 
L 2053 2175 
Q 2913 2066 3209 1816 
Q 3506 1566 3506 1031 
Q 3506 472 3093 190 
Q 2681 -91 1863 -91 
Q 1516 -91 1145 -36 
Q 775 19 384 128 
L 384 978 
Q 719 816 1070 734 
Q 1422 653 1784 653 
Q 2113 653 2278 743 
Q 2444 834 2444 1013 
Q 2444 1163 2330 1236 
Q 2216 1309 1875 1350 
L 1678 1375 
Q 931 1469 631 1722 
Q 331 1975 331 2491 
Q 331 3047 712 3315 
Q 1094 3584 1881 3584 
Q 2191 3584 2531 3537 
Q 2872 3491 3272 3391 
z
" transform="scale(0.015625)"/>
     </defs>
     <use xlink:href="#DejaVuSans-Bold-30"/>
     <use xlink:href="#DejaVuSans-Bold-2e" transform="translate(69.580078 0)"/>
     <use xlink:href="#DejaVuSans-Bold-35" transform="translate(107.568359 0)"/>
     <use xlink:href="#DejaVuSans-Bold-36" transform="translate(177.148438 0)"/>
     <use xlink:href="#DejaVuSans-Bold-32" transform="translate(246.728516 0)"/>
     <use xlink:href="#DejaVuSans-Bold-6d" transform="translate(316.308594 0)"/>
     <use xlink:href="#DejaVuSans-Bold-73" transform="translate(420.507812 0)"/>
    </g>
   </g>
   <g id="text_14">
    <g id="patch_17">
     <path d="M 523.659683 527.992124 
L 564.364926 553.432901 
Q 566.484922 554.757899 567.80992 552.637903 
L 572.939316 544.430869 
Q 574.264313 542.310873 572.144317 540.985876 
L 531.439074 515.545099 
Q 529.319078 514.220101 527.99408 516.340097 
L 522.864684 524.547131 
Q 521.539687 526.667127 523.659683 527.992124 
z
" style="fill: #e8f0ff; opacity: 0.95; stroke: #00008b; stroke-linejoin: miter"/>
    </g>
    <!-- 0.340ms -->
    <g style="fill: #00008b" transform="translate(526.086912 524.108557) rotate(-327.994617) scale(0.1 -0.1)">
     <defs>
      <path id="DejaVuSans-Bold-34" d="M 2356 3675 
L 1038 1722 
L 2356 1722 
L 2356 3675 
z
M 2156 4666 
L 3494 4666 
L 3494 1722 
L 4159 1722 
L 4159 850 
L 3494 850 
L 3494 0 
L 2356 0 
L 2356 850 
L 288 850 
L 288 1881 
L 2156 4666 
z
" transform="scale(0.015625)"/>
     </defs>
     <use xlink:href="#DejaVuSans-Bold-30"/>
     <use xlink:href="#DejaVuSans-Bold-2e" transform="translate(69.580078 0)"/>
     <use xlink:href="#DejaVuSans-Bold-33" transform="translate(107.568359 0)"/>
     <use xlink:href="#DejaVuSans-Bold-34" transform="translate(177.148438 0)"/>
     <use xlink:href="#DejaVuSans-Bold-30" transform="translate(246.728516 0)"/>
     <use xlink:href="#DejaVuSans-Bold-6d" transform="translate(316.308594 0)"/>
     <use xlink:href="#DejaVuSans-Bold-73" transform="translate(420.507812 0)"/>
    </g>
   </g>
   <g id="text_15">
    <g id="patch_18">
     <path d="M 460.289219 541.828062 
L 508.290781 541.828062 
Q 510.790781 541.828062 510.790781 539.328062 
L 510.790781 529.649937 
Q 510.790781 527.149937 508.290781 527.149937 
L 460.289219 527.149937 
Q 457.789219 527.149937 457.789219 529.649937 
L 457.789219 539.328062 
Q 457.789219 541.828062 460.289219 541.828062 
z
" style="fill: #e8f5e8; opacity: 0.95; stroke: #006400; stroke-linejoin: miter"/>
    </g>
    <!-- 0.501ms -->
    <g style="fill: #006400" transform="translate(460.289219 537.248375) scale(0.1 -0.1)">
     <use xlink:href="#DejaVuSans-Bold-30"/>
     <use xlink:href="#DejaVuSans-Bold-2e" transform="translate(69.580078 0)"/>
     <use xlink:href="#DejaVuSans-Bold-35" transform="translate(107.568359 0)"/>
     <use xlink:href="#DejaVuSans-Bold-30" transform="translate(177.148438 0)"/>
     <use xlink:href="#DejaVuSans-Bold-31" transform="translate(246.728516 0)"/>
     <use xlink:href="#DejaVuSans-Bold-6d" transform="translate(316.308594 0)"/>
     <use xlink:href="#DejaVuSans-Bold-73" transform="translate(420.507812 0)"/>
    </g>
   </g>
   <g id="text_16">
    <g id="patch_19">
     <path d="M 651.125219 541.828062 
L 699.126781 541.828062 
Q 701.626781 541.828062 701.626781 539.328062 
L 701.626781 529.649937 
Q 701.626781 527.149937 699.126781 527.149937 
L 651.125219 527.149937 
Q 648.625219 527.149937 648.625219 529.649937 
L 648.625219 539.328062 
Q 648.625219 541.828062 651.125219 541.828062 
z
" style="fill: #e8f0ff; opacity: 0.95; stroke: #00008b; stroke-linejoin: miter"/>
    </g>
    <!-- 0.411ms -->
    <g style="fill: #00008b" transform="translate(651.125219 537.248375) scale(0.1 -0.1)">
     <use xlink:href="#DejaVuSans-Bold-30"/>
     <use xlink:href="#DejaVuSans-Bold-2e" transform="translate(69.580078 0)"/>
     <use xlink:href="#DejaVuSans-Bold-34" transform="translate(107.568359 0)"/>
     <use xlink:href="#DejaVuSans-Bold-31" transform="translate(177.148438 0)"/>
     <use xlink:href="#DejaVuSans-Bold-31" transform="translate(246.728516 0)"/>
     <use xlink:href="#DejaVuSans-Bold-6d" transform="translate(316.308594 0)"/>
     <use xlink:href="#DejaVuSans-Bold-73" transform="translate(420.507812 0)"/>
    </g>
   </g>
   <g id="text_17">
    <g id="patch_20">
     <path d="M 587.513219 541.828062 
L 635.514781 541.828062 
Q 638.014781 541.828062 638.014781 539.328062 
L 638.014781 529.649937 
Q 638.014781 527.149937 635.514781 527.149937 
L 587.513219 527.149937 
Q 585.013219 527.149937 585.013219 529.649937 
L 585.013219 539.328062 
Q 585.013219 541.828062 587.513219 541.828062 
z
" style="fill: #e8f5e8; opacity: 0.95; stroke: #006400; stroke-linejoin: miter"/>
    </g>
    <!-- 0.402ms -->
    <g style="fill: #006400" transform="translate(587.513219 537.248375) scale(0.1 -0.1)">
     <use xlink:href="#DejaVuSans-Bold-30"/>
     <use xlink:href="#DejaVuSans-Bold-2e" transform="translate(69.580078 0)"/>
     <use xlink:href="#DejaVuSans-Bold-34" transform="translate(107.568359 0)"/>
     <use xlink:href="#DejaVuSans-Bold-30" transform="translate(177.148438 0)"/>
     <use xlink:href="#DejaVuSans-Bold-32" transform="translate(246.728516 0)"/>
     <use xlink:href="#DejaVuSans-Bold-6d" transform="translate(316.308594 0)"/>
     <use xlink:href="#DejaVuSans-Bold-73" transform="translate(420.507812 0)"/>
    </g>
   </g>
   <g id="text_18">
    <g id="patch_21">
     <path d="M 778.349219 541.828062 
L 826.350781 541.828062 
Q 828.850781 541.828062 828.850781 539.328062 
L 828.850781 529.649937 
Q 828.850781 527.149937 826.350781 527.149937 
L 778.349219 527.149937 
Q 775.849219 527.149937 775.849219 529.649937 
L 775.849219 539.328062 
Q 775.849219 541.828062 778.349219 541.828062 
z
" style="fill: #e8f0ff; opacity: 0.95; stroke: #00008b; stroke-linejoin: miter"/>
    </g>
    <!-- 0.670ms -->
    <g style="fill: #00008b" transform="translate(778.349219 537.248375) scale(0.1 -0.1)">
     <defs>
      <path id="DejaVuSans-Bold-37" d="M 428 4666 
L 3944 4666 
L 3944 3988 
L 2125 0 
L 953 0 
L 2675 3781 
L 428 3781 
L 428 4666 
z
" transform="scale(0.015625)"/>
     </defs>
     <use xlink:href="#DejaVuSans-Bold-30"/>
     <use xlink:href="#DejaVuSans-Bold-2e" transform="translate(69.580078 0)"/>
     <use xlink:href="#DejaVuSans-Bold-36" transform="translate(107.568359 0)"/>
     <use xlink:href="#DejaVuSans-Bold-37" transform="translate(177.148438 0)"/>
     <use xlink:href="#DejaVuSans-Bold-30" transform="translate(246.728516 0)"/>
     <use xlink:href="#DejaVuSans-Bold-6d" transform="translate(316.308594 0)"/>
     <use xlink:href="#DejaVuSans-Bold-73" transform="translate(420.507812 0)"/>
    </g>
   </g>
   <g id="text_19">
    <g id="patch_22">
     <path d="M 722.275074 553.432901 
L 762.980317 527.992124 
Q 765.100313 526.667127 763.775316 524.547131 
L 758.64592 516.340097 
Q 757.320922 514.220101 755.200926 515.545099 
L 714.495683 540.985876 
Q 712.375687 542.310873 713.700684 544.430869 
L 718.83008 552.637903 
Q 720.155078 554.757899 722.275074 553.432901 
z
" style="fill: #e8f5e8; opacity: 0.95; stroke: #006400; stroke-linejoin: miter"/>
    </g>
    <!-- 0.317ms -->
    <g style="fill: #006400" transform="translate(719.847844 549.549334) rotate(-32.005383) scale(0.1 -0.1)">
     <use xlink:href="#DejaVuSans-Bold-30"/>
     <use xlink:href="#DejaVuSans-Bold-2e" transform="translate(69.580078 0)"/>
     <use xlink:href="#DejaVuSans-Bold-33" transform="translate(107.568359 0)"/>
     <use xlink:href="#DejaVuSans-Bold-31" transform="translate(177.148438 0)"/>
     <use xlink:href="#DejaVuSans-Bold-37" transform="translate(246.728516 0)"/>
     <use xlink:href="#DejaVuSans-Bold-6d" transform="translate(316.308594 0)"/>
     <use xlink:href="#DejaVuSans-Bold-73" transform="translate(420.507812 0)"/>
    </g>
   </g>
   <g id="text_20">
    <g id="patch_23">
     <path d="M 905.573219 541.828062 
L 953.574781 541.828062 
Q 956.074781 541.828062 956.074781 539.328062 
L 956.074781 529.649937 
Q 956.074781 527.149937 953.574781 527.149937 
L 905.573219 527.149937 
Q 903.073219 527.149937 903.073219 529.649937 
L 903.073219 539.328062 
Q 903.073219 541.828062 905.573219 541.828062 
z
" style="fill: #e8f0ff; opacity: 0.95; stroke: #00008b; stroke-linejoin: miter"/>
    </g>
    <!-- 0.397ms -->
    <g style="fill: #00008b" transform="translate(905.573219 537.248375) scale(0.1 -0.1)">
     <defs>
      <path id="DejaVuSans-Bold-39" d="M 641 103 
L 641 966 
Q 928 831 1190 764 
Q 1453 697 1709 697 
Q 2247 697 2547 995 
Q 2847 1294 2900 1881 
Q 2688 1725 2447 1647 
Q 2206 1569 1925 1569 
Q 1209 1569 770 1986 
Q 331 2403 331 3084 
Q 331 3838 820 4291 
Q 1309 4744 2131 4744 
Q 3044 4744 3544 4128 
Q 4044 3513 4044 2388 
Q 4044 1231 3459 570 
Q 2875 -91 1856 -91 
Q 1528 -91 1228 -42 
Q 928 6 641 103 
z
M 2125 2350 
Q 2441 2350 2600 2554 
Q 2759 2759 2759 3169 
Q 2759 3575 2600 3781 
Q 2441 3988 2125 3988 
Q 1809 3988 1650 3781 
Q 1491 3575 1491 3169 
Q 1491 2759 1650 2554 
Q 1809 2350 2125 2350 
z
" transform="scale(0.015625)"/>
     </defs>
     <use xlink:href="#DejaVuSans-Bold-30"/>
     <use xlink:href="#DejaVuSans-Bold-2e" transform="translate(69.580078 0)"/>
     <use xlink:href="#DejaVuSans-Bold-33" transform="translate(107.568359 0)"/>
     <use xlink:href="#DejaVuSans-Bold-39" transform="translate(177.148438 0)"/>
     <use xlink:href="#DejaVuSans-Bold-37" transform="translate(246.728516 0)"/>
     <use xlink:href="#DejaVuSans-Bold-6d" transform="translate(316.308594 0)"/>
     <use xlink:href="#DejaVuSans-Bold-73" transform="translate(420.507812 0)"/>
    </g>
   </g>
   <g id="text_21">
    <g id="patch_24">
     <path d="M 522.11625 148.76775 
L 764.52375 148.76775 
Q 770.52375 148.76775 770.52375 142.76775 
L 770.52375 131.06025 
Q 770.52375 125.06025 764.52375 125.06025 
L 522.11625 125.06025 
Q 516.11625 125.06025 516.11625 131.06025 
L 516.11625 142.76775 
Q 516.11625 148.76775 522.11625 148.76775 
z
" style="fill: #ffffe0; opacity: 0.8; stroke: #000000; stroke-linejoin: miter"/>
    </g>
    <!-- Link Delay Values (Single Direction) -->
    <g transform="translate(522.11625 140.178375) scale(0.12 -0.12)">
     <defs>
      <path id="DejaVuSans-Bold-4c" d="M 588 4666 
L 1791 4666 
L 1791 909 
L 3903 909 
L 3903 0 
L 588 0 
L 588 4666 
z
" transform="scale(0.015625)"/>
      <path id="DejaVuSans-Bold-6b" d="M 538 4863 
L 1656 4863 
L 1656 2216 
L 2944 3500 
L 4244 3500 
L 2534 1894 
L 4378 0 
L 3022 0 
L 1656 1459 
L 1656 0 
L 538 0 
L 538 4863 
z
" transform="scale(0.015625)"/>
      <path id="DejaVuSans-Bold-6c" d="M 538 4863 
L 1656 4863 
L 1656 0 
L 538 0 
L 538 4863 
z
" transform="scale(0.015625)"/>
      <path id="DejaVuSans-Bold-61" d="M 2106 1575 
Q 1756 1575 1579 1456 
Q 1403 1338 1403 1106 
Q 1403 894 1545 773 
Q 1688 653 1941 653 
Q 2256 653 2472 879 
Q 2688 1106 2688 1447 
L 2688 1575 
L 2106 1575 
z
M 3816 1997 
L 3816 0 
L 2688 0 
L 2688 519 
Q 2463 200 2181 54 
Q 1900 -91 1497 -91 
Q 953 -91 614 226 
Q 275 544 275 1050 
Q 275 1666 698 1953 
Q 1122 2241 2028 2241 
L 2688 2241 
L 2688 2328 
Q 2688 2594 2478 2717 
Q 2269 2841 1825 2841 
Q 1466 2841 1156 2769 
Q 847 2697 581 2553 
L 581 3406 
Q 941 3494 1303 3539 
Q 1666 3584 2028 3584 
Q 2975 3584 3395 3211 
Q 3816 2838 3816 1997 
z
" transform="scale(0.015625)"/>
      <path id="DejaVuSans-Bold-79" d="M 78 3500 
L 1197 3500 
L 2138 1125 
L 2938 3500 
L 4056 3500 
L 2584 -331 
Q 2363 -916 2067 -1148 
Q 1772 -1381 1288 -1381 
L 641 -1381 
L 641 -647 
L 991 -647 
Q 1275 -647 1404 -556 
Q 1534 -466 1606 -231 
L 1638 -134 
L 78 3500 
z
" transform="scale(0.015625)"/>
      <path id="DejaVuSans-Bold-56" d="M 31 4666 
L 1241 4666 
L 2478 1222 
L 3713 4666 
L 4922 4666 
L 3194 0 
L 1759 0 
L 31 4666 
z
" transform="scale(0.015625)"/>
      <path id="DejaVuSans-Bold-75" d="M 500 1363 
L 500 3500 
L 1625 3500 
L 1625 3150 
Q 1625 2866 1622 2436 
Q 1619 2006 1619 1863 
Q 1619 1441 1641 1255 
Q 1663 1069 1716 984 
Q 1784 875 1895 815 
Q 2006 756 2150 756 
Q 2500 756 2700 1025 
Q 2900 1294 2900 1772 
L 2900 3500 
L 4019 3500 
L 4019 0 
L 2900 0 
L 2900 506 
Q 2647 200 2364 54 
Q 2081 -91 1741 -91 
Q 1134 -91 817 281 
Q 500 653 500 1363 
z
" transform="scale(0.015625)"/>
      <path id="DejaVuSans-Bold-28" d="M 2413 -844 
L 1484 -844 
Q 1006 -72 778 623 
Q 550 1319 550 2003 
Q 550 2688 779 3389 
Q 1009 4091 1484 4856 
L 2413 4856 
Q 2013 4116 1813 3408 
Q 1613 2700 1613 2009 
Q 1613 1319 1811 609 
Q 2009 -100 2413 -844 
z
" transform="scale(0.015625)"/>
      <path id="DejaVuSans-Bold-67" d="M 2919 594 
Q 2688 288 2409 144 
Q 2131 0 1766 0 
Q 1125 0 706 504 
Q 288 1009 288 1791 
Q 288 2575 706 3076 
Q 1125 3578 1766 3578 
Q 2131 3578 2409 3434 
Q 2688 3291 2919 2981 
L 2919 3500 
L 4044 3500 
L 4044 353 
Q 4044 -491 3511 -936 
Q 2978 -1381 1966 -1381 
Q 1638 -1381 1331 -1331 
Q 1025 -1281 716 -1178 
L 716 -306 
Q 1009 -475 1290 -558 
Q 1572 -641 1856 -641 
Q 2406 -641 2662 -400 
Q 2919 -159 2919 353 
L 2919 594 
z
M 2181 2772 
Q 1834 2772 1640 2515 
Q 1447 2259 1447 1791 
Q 1447 1309 1634 1061 
Q 1822 813 2181 813 
Q 2531 813 2725 1069 
Q 2919 1325 2919 1791 
Q 2919 2259 2725 2515 
Q 2531 2772 2181 2772 
z
" transform="scale(0.015625)"/>
      <path id="DejaVuSans-Bold-72" d="M 3138 2547 
Q 2991 2616 2845 2648 
Q 2700 2681 2553 2681 
Q 2122 2681 1889 2404 
Q 1656 2128 1656 1613 
L 1656 0 
L 538 0 
L 538 3500 
L 1656 3500 
L 1656 2925 
Q 1872 3269 2151 3426 
Q 2431 3584 2822 3584 
Q 2878 3584 2943 3579 
Q 3009 3575 3134 3559 
L 3138 2547 
z
" transform="scale(0.015625)"/>
      <path id="DejaVuSans-Bold-6f" d="M 2203 2784 
Q 1831 2784 1636 2517 
Q 1441 2250 1441 1747 
Q 1441 1244 1636 976 
Q 1831 709 2203 709 
Q 2569 709 2762 976 
Q 2956 1244 2956 1747 
Q 2956 2250 2762 2517 
Q 2569 2784 2203 2784 
z
M 2203 3584 
Q 3106 3584 3614 3096 
Q 4122 2609 4122 1747 
Q 4122 884 3614 396 
Q 3106 -91 2203 -91 
Q 1297 -91 786 396 
Q 275 884 275 1747 
Q 275 2609 786 3096 
Q 1297 3584 2203 3584 
z
" transform="scale(0.015625)"/>
      <path id="DejaVuSans-Bold-29" d="M 513 -844 
Q 913 -100 1113 609 
Q 1313 1319 1313 2009 
Q 1313 2700 1113 3408 
Q 913 4116 513 4856 
L 1441 4856 
Q 1916 4091 2145 3389 
Q 2375 2688 2375 2003 
Q 2375 1319 2147 623 
Q 1919 -72 1441 -844 
L 513 -844 
z
" transform="scale(0.015625)"/>
     </defs>
     <use xlink:href="#DejaVuSans-Bold-4c"/>
     <use xlink:href="#DejaVuSans-Bold-69" transform="translate(63.720703 0)"/>
     <use xlink:href="#DejaVuSans-Bold-6e" transform="translate(97.998047 0)"/>
     <use xlink:href="#DejaVuSans-Bold-6b" transform="translate(169.189453 0)"/>
     <use xlink:href="#DejaVuSans-Bold-20" transform="translate(235.693359 0)"/>
     <use xlink:href="#DejaVuSans-Bold-44" transform="translate(270.507812 0)"/>
     <use xlink:href="#DejaVuSans-Bold-65" transform="translate(353.515625 0)"/>
     <use xlink:href="#DejaVuSans-Bold-6c" transform="translate(421.337891 0)"/>
     <use xlink:href="#DejaVuSans-Bold-61" transform="translate(455.615234 0)"/>
     <use xlink:href="#DejaVuSans-Bold-79" transform="translate(519.970703 0)"/>
     <use xlink:href="#DejaVuSans-Bold-20" transform="translate(585.15625 0)"/>
     <use xlink:href="#DejaVuSans-Bold-56" transform="translate(619.970703 0)"/>
     <use xlink:href="#DejaVuSans-Bold-61" transform="translate(691.863281 0)"/>
     <use xlink:href="#DejaVuSans-Bold-6c" transform="translate(759.34375 0)"/>
     <use xlink:href="#DejaVuSans-Bold-75" transform="translate(793.621094 0)"/>
     <use xlink:href="#DejaVuSans-Bold-65" transform="translate(864.8125 0)"/>
     <use xlink:href="#DejaVuSans-Bold-73" transform="translate(932.634766 0)"/>
     <use xlink:href="#DejaVuSans-Bold-20" transform="translate(992.15625 0)"/>
     <use xlink:href="#DejaVuSans-Bold-28" transform="translate(1026.970703 0)"/>
     <use xlink:href="#DejaVuSans-Bold-53" transform="translate(1072.673828 0)"/>
     <use xlink:href="#DejaVuSans-Bold-69" transform="translate(1144.695312 0)"/>
     <use xlink:href="#DejaVuSans-Bold-6e" transform="translate(1178.972656 0)"/>
     <use xlink:href="#DejaVuSans-Bold-67" transform="translate(1250.164062 0)"/>
     <use xlink:href="#DejaVuSans-Bold-6c" transform="translate(1321.746094 0)"/>
     <use xlink:href="#DejaVuSans-Bold-65" transform="translate(1356.023438 0)"/>
     <use xlink:href="#DejaVuSans-Bold-20" transform="translate(1423.845703 0)"/>
     <use xlink:href="#DejaVuSans-Bold-44" transform="translate(1458.660156 0)"/>
     <use xlink:href="#DejaVuSans-Bold-69" transform="translate(1541.667969 0)"/>
     <use xlink:href="#DejaVuSans-Bold-72" transform="translate(1575.945312 0)"/>
     <use xlink:href="#DejaVuSans-Bold-65" transform="translate(1625.261719 0)"/>
     <use xlink:href="#DejaVuSans-Bold-63" transform="translate(1693.083984 0)"/>
     <use xlink:href="#DejaVuSans-Bold-74" transform="translate(1752.361328 0)"/>
     <use xlink:href="#DejaVuSans-Bold-69" transform="translate(1800.164062 0)"/>
     <use xlink:href="#DejaVuSans-Bold-6f" transform="translate(1834.441406 0)"/>
     <use xlink:href="#DejaVuSans-Bold-6e" transform="translate(1903.142578 0)"/>
     <use xlink:href="#DejaVuSans-Bold-29" transform="translate(1974.333984 0)"/>
    </g>
   </g>
   <g id="text_22">
    <!-- Dual Spine Switch Cross-DC Topology -->
    <g transform="translate(475.23125 19.3575) scale(0.16 -0.16)">
     <defs>
      <path id="DejaVuSans-Bold-2d" d="M 347 2297 
L 2309 2297 
L 2309 1388 
L 347 1388 
L 347 2297 
z
" transform="scale(0.015625)"/>
      <path id="DejaVuSans-Bold-54" d="M 31 4666 
L 4331 4666 
L 4331 3756 
L 2784 3756 
L 2784 0 
L 1581 0 
L 1581 3756 
L 31 3756 
L 31 4666 
z
" transform="scale(0.015625)"/>
     </defs>
     <use xlink:href="#DejaVuSans-Bold-44"/>
     <use xlink:href="#DejaVuSans-Bold-75" transform="translate(83.007812 0)"/>
     <use xlink:href="#DejaVuSans-Bold-61" transform="translate(154.199219 0)"/>
     <use xlink:href="#DejaVuSans-Bold-6c" transform="translate(221.679688 0)"/>
     <use xlink:href="#DejaVuSans-Bold-20" transform="translate(255.957031 0)"/>
     <use xlink:href="#DejaVuSans-Bold-53" transform="translate(290.771484 0)"/>
     <use xlink:href="#DejaVuSans-Bold-70" transform="translate(362.792969 0)"/>
     <use xlink:href="#DejaVuSans-Bold-69" transform="translate(434.375 0)"/>
     <use xlink:href="#DejaVuSans-Bold-6e" transform="translate(468.652344 0)"/>
     <use xlink:href="#DejaVuSans-Bold-65" transform="translate(539.84375 0)"/>
     <use xlink:href="#DejaVuSans-Bold-20" transform="translate(607.666016 0)"/>
     <use xlink:href="#DejaVuSans-Bold-53" transform="translate(642.480469 0)"/>
     <use xlink:href="#DejaVuSans-Bold-77" transform="translate(714.501953 0)"/>
     <use xlink:href="#DejaVuSans-Bold-69" transform="translate(806.884766 0)"/>
     <use xlink:href="#DejaVuSans-Bold-74" transform="translate(841.162109 0)"/>
     <use xlink:href="#DejaVuSans-Bold-63" transform="translate(888.964844 0)"/>
     <use xlink:href="#DejaVuSans-Bold-68" transform="translate(948.242188 0)"/>
     <use xlink:href="#DejaVuSans-Bold-20" transform="translate(1019.433594 0)"/>
     <use xlink:href="#DejaVuSans-Bold-43" transform="translate(1054.248047 0)"/>
     <use xlink:href="#DejaVuSans-Bold-72" transform="translate(1127.636719 0)"/>
     <use xlink:href="#DejaVuSans-Bold-6f" transform="translate(1176.953125 0)"/>
     <use xlink:href="#DejaVuSans-Bold-73" transform="translate(1245.654297 0)"/>
     <use xlink:href="#DejaVuSans-Bold-73" transform="translate(1305.175781 0)"/>
     <use xlink:href="#DejaVuSans-Bold-2d" transform="translate(1364.697266 0)"/>
     <use xlink:href="#DejaVuSans-Bold-44" transform="translate(1406.201172 0)"/>
     <use xlink:href="#DejaVuSans-Bold-43" transform="translate(1489.208984 0)"/>
     <use xlink:href="#DejaVuSans-Bold-20" transform="translate(1562.597656 0)"/>
     <use xlink:href="#DejaVuSans-Bold-54" transform="translate(1597.412109 0)"/>
     <use xlink:href="#DejaVuSans-Bold-6f" transform="translate(1652.375 0)"/>
     <use xlink:href="#DejaVuSans-Bold-70" transform="translate(1721.076172 0)"/>
     <use xlink:href="#DejaVuSans-Bold-6f" transform="translate(1792.658203 0)"/>
     <use xlink:href="#DejaVuSans-Bold-6c" transform="translate(1861.359375 0)"/>
     <use xlink:href="#DejaVuSans-Bold-6f" transform="translate(1895.636719 0)"/>
     <use xlink:href="#DejaVuSans-Bold-67" transform="translate(1964.337891 0)"/>
     <use xlink:href="#DejaVuSans-Bold-79" transform="translate(2035.919922 0)"/>
    </g>
    <!--  -->
    <g transform="translate(643.32 37.399) scale(0.16 -0.16)"/>
   </g>
   <g id="legend_1">
    <g id="patch_25">
     <path d="M 16.9 100.490875 
L 214.826094 100.490875 
Q 217.026094 100.490875 217.026094 98.290875 
L 217.026094 67.099 
Q 217.026094 64.899 214.826094 64.899 
L 16.9 64.899 
Q 14.7 64.899 14.7 67.099 
L 14.7 98.290875 
Q 14.7 100.490875 16.9 100.490875 
z
" style="fill: #4d4d4d; opacity: 0.5; stroke: #4d4d4d; stroke-linejoin: miter"/>
    </g>
    <g id="patch_26">
     <path d="M 14.9 98.490875 
L 212.826094 98.490875 
Q 215.026094 98.490875 215.026094 96.290875 
L 215.026094 65.099 
Q 215.026094 62.899 212.826094 62.899 
L 14.9 62.899 
Q 12.7 62.899 12.7 65.099 
L 12.7 96.290875 
Q 12.7 98.490875 14.9 98.490875 
z
" style="fill: #ffffff; stroke: #cccccc; stroke-linejoin: miter"/>
    </g>
    <g id="line2d_1">
     <path d="M 17.1 71.807281 
L 28.1 71.807281 
L 39.1 71.807281 
" style="fill: none; stroke: #006400; stroke-width: 3; stroke-linecap: square"/>
    </g>
    <g id="text_23">
     <!-- Spine 1 (Jiaxing) -->
     <g transform="translate(47.9 75.657281) scale(0.11 -0.11)">
      <defs>
       <path id="DejaVuSans-53" d="M 3425 4513 
L 3425 3897 
Q 3066 4069 2747 4153 
Q 2428 4238 2131 4238 
Q 1616 4238 1336 4038 
Q 1056 3838 1056 3469 
Q 1056 3159 1242 3001 
Q 1428 2844 1947 2747 
L 2328 2669 
Q 3034 2534 3370 2195 
Q 3706 1856 3706 1288 
Q 3706 609 3251 259 
Q 2797 -91 1919 -91 
Q 1588 -91 1214 -16 
Q 841 59 441 206 
L 441 856 
Q 825 641 1194 531 
Q 1563 422 1919 422 
Q 2459 422 2753 634 
Q 3047 847 3047 1241 
Q 3047 1584 2836 1778 
Q 2625 1972 2144 2069 
L 1759 2144 
Q 1053 2284 737 2584 
Q 422 2884 422 3419 
Q 422 4038 858 4394 
Q 1294 4750 2059 4750 
Q 2388 4750 2728 4690 
Q 3069 4631 3425 4513 
z
" transform="scale(0.015625)"/>
       <path id="DejaVuSans-70" d="M 1159 525 
L 1159 -1331 
L 581 -1331 
L 581 3500 
L 1159 3500 
L 1159 2969 
Q 1341 3281 1617 3432 
Q 1894 3584 2278 3584 
Q 2916 3584 3314 3078 
Q 3713 2572 3713 1747 
Q 3713 922 3314 415 
Q 2916 -91 2278 -91 
Q 1894 -91 1617 61 
Q 1341 213 1159 525 
z
M 3116 1747 
Q 3116 2381 2855 2742 
Q 2594 3103 2138 3103 
Q 1681 3103 1420 2742 
Q 1159 2381 1159 1747 
Q 1159 1113 1420 752 
Q 1681 391 2138 391 
Q 2594 391 2855 752 
Q 3116 1113 3116 1747 
z
" transform="scale(0.015625)"/>
       <path id="DejaVuSans-69" d="M 603 3500 
L 1178 3500 
L 1178 0 
L 603 0 
L 603 3500 
z
M 603 4863 
L 1178 4863 
L 1178 4134 
L 603 4134 
L 603 4863 
z
" transform="scale(0.015625)"/>
       <path id="DejaVuSans-6e" d="M 3513 2113 
L 3513 0 
L 2938 0 
L 2938 2094 
Q 2938 2591 2744 2837 
Q 2550 3084 2163 3084 
Q 1697 3084 1428 2787 
Q 1159 2491 1159 1978 
L 1159 0 
L 581 0 
L 581 3500 
L 1159 3500 
L 1159 2956 
Q 1366 3272 1645 3428 
Q 1925 3584 2291 3584 
Q 2894 3584 3203 3211 
Q 3513 2838 3513 2113 
z
" transform="scale(0.015625)"/>
       <path id="DejaVuSans-65" d="M 3597 1894 
L 3597 1613 
L 953 1613 
Q 991 1019 1311 708 
Q 1631 397 2203 397 
Q 2534 397 2845 478 
Q 3156 559 3463 722 
L 3463 178 
Q 3153 47 2828 -22 
Q 2503 -91 2169 -91 
Q 1331 -91 842 396 
Q 353 884 353 1716 
Q 353 2575 817 3079 
Q 1281 3584 2069 3584 
Q 2775 3584 3186 3129 
Q 3597 2675 3597 1894 
z
M 3022 2063 
Q 3016 2534 2758 2815 
Q 2500 3097 2075 3097 
Q 1594 3097 1305 2825 
Q 1016 2553 972 2059 
L 3022 2063 
z
" transform="scale(0.015625)"/>
       <path id="DejaVuSans-20" transform="scale(0.015625)"/>
       <path id="DejaVuSans-31" d="M 794 531 
L 1825 531 
L 1825 4091 
L 703 3866 
L 703 4441 
L 1819 4666 
L 2450 4666 
L 2450 531 
L 3481 531 
L 3481 0 
L 794 0 
L 794 531 
z
" transform="scale(0.015625)"/>
       <path id="DejaVuSans-28" d="M 1984 4856 
Q 1566 4138 1362 3434 
Q 1159 2731 1159 2009 
Q 1159 1288 1364 580 
Q 1569 -128 1984 -844 
L 1484 -844 
Q 1016 -109 783 600 
Q 550 1309 550 2009 
Q 550 2706 781 3412 
Q 1013 4119 1484 4856 
L 1984 4856 
z
" transform="scale(0.015625)"/>
       <path id="DejaVuSans-4a" d="M 628 4666 
L 1259 4666 
L 1259 325 
Q 1259 -519 939 -900 
Q 619 -1281 -91 -1281 
L -331 -1281 
L -331 -750 
L -134 -750 
Q 284 -750 456 -515 
Q 628 -281 628 325 
L 628 4666 
z
" transform="scale(0.015625)"/>
       <path id="DejaVuSans-61" d="M 2194 1759 
Q 1497 1759 1228 1600 
Q 959 1441 959 1056 
Q 959 750 1161 570 
Q 1363 391 1709 391 
Q 2188 391 2477 730 
Q 2766 1069 2766 1631 
L 2766 1759 
L 2194 1759 
z
M 3341 1997 
L 3341 0 
L 2766 0 
L 2766 531 
Q 2569 213 2275 61 
Q 1981 -91 1556 -91 
Q 1019 -91 701 211 
Q 384 513 384 1019 
Q 384 1609 779 1909 
Q 1175 2209 1959 2209 
L 2766 2209 
L 2766 2266 
Q 2766 2663 2505 2880 
Q 2244 3097 1772 3097 
Q 1472 3097 1187 3025 
Q 903 2953 641 2809 
L 641 3341 
Q 956 3463 1253 3523 
Q 1550 3584 1831 3584 
Q 2591 3584 2966 3190 
Q 3341 2797 3341 1997 
z
" transform="scale(0.015625)"/>
       <path id="DejaVuSans-78" d="M 3513 3500 
L 2247 1797 
L 3578 0 
L 2900 0 
L 1881 1375 
L 863 0 
L 184 0 
L 1544 1831 
L 300 3500 
L 978 3500 
L 1906 2253 
L 2834 3500 
L 3513 3500 
z
" transform="scale(0.015625)"/>
       <path id="DejaVuSans-67" d="M 2906 1791 
Q 2906 2416 2648 2759 
Q 2391 3103 1925 3103 
Q 1463 3103 1205 2759 
Q 947 2416 947 1791 
Q 947 1169 1205 825 
Q 1463 481 1925 481 
Q 2391 481 2648 825 
Q 2906 1169 2906 1791 
z
M 3481 434 
Q 3481 -459 3084 -895 
Q 2688 -1331 1869 -1331 
Q 1566 -1331 1297 -1286 
Q 1028 -1241 775 -1147 
L 775 -588 
Q 1028 -725 1275 -790 
Q 1522 -856 1778 -856 
Q 2344 -856 2625 -561 
Q 2906 -266 2906 331 
L 2906 616 
Q 2728 306 2450 153 
Q 2172 0 1784 0 
Q 1141 0 747 490 
Q 353 981 353 1791 
Q 353 2603 747 3093 
Q 1141 3584 1784 3584 
Q 2172 3584 2450 3431 
Q 2728 3278 2906 2969 
L 2906 3500 
L 3481 3500 
L 3481 434 
z
" transform="scale(0.015625)"/>
       <path id="DejaVuSans-29" d="M 513 4856 
L 1013 4856 
Q 1481 4119 1714 3412 
Q 1947 2706 1947 2009 
Q 1947 1309 1714 600 
Q 1481 -109 1013 -844 
L 513 -844 
Q 928 -128 1133 580 
Q 1338 1288 1338 2009 
Q 1338 2731 1133 3434 
Q 928 4138 513 4856 
z
" transform="scale(0.015625)"/>
      </defs>
      <use xlink:href="#DejaVuSans-53"/>
      <use xlink:href="#DejaVuSans-70" transform="translate(63.476562 0)"/>
      <use xlink:href="#DejaVuSans-69" transform="translate(126.953125 0)"/>
      <use xlink:href="#DejaVuSans-6e" transform="translate(154.736328 0)"/>
      <use xlink:href="#DejaVuSans-65" transform="translate(218.115234 0)"/>
      <use xlink:href="#DejaVuSans-20" transform="translate(279.638672 0)"/>
      <use xlink:href="#DejaVuSans-31" transform="translate(311.425781 0)"/>
      <use xlink:href="#DejaVuSans-20" transform="translate(375.048828 0)"/>
      <use xlink:href="#DejaVuSans-28" transform="translate(406.835938 0)"/>
      <use xlink:href="#DejaVuSans-4a" transform="translate(445.849609 0)"/>
      <use xlink:href="#DejaVuSans-69" transform="translate(475.341797 0)"/>
      <use xlink:href="#DejaVuSans-61" transform="translate(503.125 0)"/>
      <use xlink:href="#DejaVuSans-78" transform="translate(564.404297 0)"/>
      <use xlink:href="#DejaVuSans-69" transform="translate(623.583984 0)"/>
      <use xlink:href="#DejaVuSans-6e" transform="translate(651.367188 0)"/>
      <use xlink:href="#DejaVuSans-67" transform="translate(714.746094 0)"/>
      <use xlink:href="#DejaVuSans-29" transform="translate(778.222656 0)"/>
     </g>
    </g>
    <g id="line2d_2">
     <path d="M 17.1 87.953219 
L 28.1 87.953219 
L 39.1 87.953219 
" style="fill: none; stroke-dasharray: 11.1,4.8; stroke-dashoffset: 0; stroke: #00008b; stroke-width: 3"/>
    </g>
    <g id="text_24">
     <!-- Spine 2 (Shanghai Songjiang) -->
     <g transform="translate(47.9 91.803219) scale(0.11 -0.11)">
      <defs>
       <path id="DejaVuSans-32" d="M 1228 531 
L 3431 531 
L 3431 0 
L 469 0 
L 469 531 
Q 828 903 1448 1529 
Q 2069 2156 2228 2338 
Q 2531 2678 2651 2914 
Q 2772 3150 2772 3378 
Q 2772 3750 2511 3984 
Q 2250 4219 1831 4219 
Q 1534 4219 1204 4116 
Q 875 4013 500 3803 
L 500 4441 
Q 881 4594 1212 4672 
Q 1544 4750 1819 4750 
Q 2544 4750 2975 4387 
Q 3406 4025 3406 3419 
Q 3406 3131 3298 2873 
Q 3191 2616 2906 2266 
Q 2828 2175 2409 1742 
Q 1991 1309 1228 531 
z
" transform="scale(0.015625)"/>
       <path id="DejaVuSans-68" d="M 3513 2113 
L 3513 0 
L 2938 0 
L 2938 2094 
Q 2938 2591 2744 2837 
Q 2550 3084 2163 3084 
Q 1697 3084 1428 2787 
Q 1159 2491 1159 1978 
L 1159 0 
L 581 0 
L 581 4863 
L 1159 4863 
L 1159 2956 
Q 1366 3272 1645 3428 
Q 1925 3584 2291 3584 
Q 2894 3584 3203 3211 
Q 3513 2838 3513 2113 
z
" transform="scale(0.015625)"/>
       <path id="DejaVuSans-6f" d="M 1959 3097 
Q 1497 3097 1228 2736 
Q 959 2375 959 1747 
Q 959 1119 1226 758 
Q 1494 397 1959 397 
Q 2419 397 2687 759 
Q 2956 1122 2956 1747 
Q 2956 2369 2687 2733 
Q 2419 3097 1959 3097 
z
M 1959 3584 
Q 2709 3584 3137 3096 
Q 3566 2609 3566 1747 
Q 3566 888 3137 398 
Q 2709 -91 1959 -91 
Q 1206 -91 779 398 
Q 353 888 353 1747 
Q 353 2609 779 3096 
Q 1206 3584 1959 3584 
z
" transform="scale(0.015625)"/>
       <path id="DejaVuSans-6a" d="M 603 3500 
L 1178 3500 
L 1178 -63 
Q 1178 -731 923 -1031 
Q 669 -1331 103 -1331 
L -116 -1331 
L -116 -844 
L 38 -844 
Q 366 -844 484 -692 
Q 603 -541 603 -63 
L 603 3500 
z
M 603 4863 
L 1178 4863 
L 1178 4134 
L 603 4134 
L 603 4863 
z
" transform="scale(0.015625)"/>
      </defs>
      <use xlink:href="#DejaVuSans-53"/>
      <use xlink:href="#DejaVuSans-70" transform="translate(63.476562 0)"/>
      <use xlink:href="#DejaVuSans-69" transform="translate(126.953125 0)"/>
      <use xlink:href="#DejaVuSans-6e" transform="translate(154.736328 0)"/>
      <use xlink:href="#DejaVuSans-65" transform="translate(218.115234 0)"/>
      <use xlink:href="#DejaVuSans-20" transform="translate(279.638672 0)"/>
      <use xlink:href="#DejaVuSans-32" transform="translate(311.425781 0)"/>
      <use xlink:href="#DejaVuSans-20" transform="translate(375.048828 0)"/>
      <use xlink:href="#DejaVuSans-28" transform="translate(406.835938 0)"/>
      <use xlink:href="#DejaVuSans-53" transform="translate(445.849609 0)"/>
      <use xlink:href="#DejaVuSans-68" transform="translate(509.326172 0)"/>
      <use xlink:href="#DejaVuSans-61" transform="translate(572.705078 0)"/>
      <use xlink:href="#DejaVuSans-6e" transform="translate(633.984375 0)"/>
      <use xlink:href="#DejaVuSans-67" transform="translate(697.363281 0)"/>
      <use xlink:href="#DejaVuSans-68" transform="translate(760.839844 0)"/>
      <use xlink:href="#DejaVuSans-61" transform="translate(824.21875 0)"/>
      <use xlink:href="#DejaVuSans-69" transform="translate(885.498047 0)"/>
      <use xlink:href="#DejaVuSans-20" transform="translate(913.28125 0)"/>
      <use xlink:href="#DejaVuSans-53" transform="translate(945.068359 0)"/>
      <use xlink:href="#DejaVuSans-6f" transform="translate(1008.544922 0)"/>
      <use xlink:href="#DejaVuSans-6e" transform="translate(1069.726562 0)"/>
      <use xlink:href="#DejaVuSans-67" transform="translate(1133.105469 0)"/>
      <use xlink:href="#DejaVuSans-6a" transform="translate(1196.582031 0)"/>
      <use xlink:href="#DejaVuSans-69" transform="translate(1224.365234 0)"/>
      <use xlink:href="#DejaVuSans-61" transform="translate(1252.148438 0)"/>
      <use xlink:href="#DejaVuSans-6e" transform="translate(1313.427734 0)"/>
      <use xlink:href="#DejaVuSans-67" transform="translate(1376.806641 0)"/>
      <use xlink:href="#DejaVuSans-29" transform="translate(1440.283203 0)"/>
     </g>
    </g>
   </g>
  </g>
 </g>
 <defs>
  <clipPath id="p827a66ebf8">
   <rect x="7.2" y="57.399" width="1272.24" height="795.15"/>
  </clipPath>
 </defs>
</svg>
