<?xml version="1.0" encoding="utf-8" standalone="no"?>
<!DOCTYPE svg PUBLIC "-//W3C//DTD SVG 1.1//EN"
  "http://www.w3.org/Graphics/SVG/1.1/DTD/svg11.dtd">
<svg xmlns:xlink="http://www.w3.org/1999/xlink" width="998.64pt" height="652.243654pt" viewBox="0 0 998.64 652.243654" xmlns="http://www.w3.org/2000/svg" version="1.1">
 <metadata>
  <rdf:RDF xmlns:dc="http://purl.org/dc/elements/1.1/" xmlns:cc="http://creativecommons.org/ns#" xmlns:rdf="http://www.w3.org/1999/02/22-rdf-syntax-ns#">
   <cc:Work>
    <dc:type rdf:resource="http://purl.org/dc/dcmitype/StillImage"/>
    <dc:date>2026-04-08T17:49:18.815479</dc:date>
    <dc:format>image/svg+xml</dc:format>
    <dc:creator>
     <cc:Agent>
      <dc:title>Matplotlib v3.10.8, https://matplotlib.org/</dc:title>
     </cc:Agent>
    </dc:creator>
   </cc:Work>
  </rdf:RDF>
 </metadata>
 <defs>
  <style type="text/css">*{stroke-linejoin: round; stroke-linecap: butt}</style>
 </defs>
 <g id="figure_1">
  <g id="patch_1">
   <path d="M 0 652.243654 
L 998.64 652.243654 
L 998.64 0 
L 0 0 
z
" style="fill: #ffffff"/>
  </g>
  <g id="axes_1">
   <g id="patch_2">
    <path d="M 158.621538 258.918731 
C 176.692396 258.918731 194.025551 251.739103 206.803577 238.961077 
C 219.581603 226.183051 226.761231 208.849896 226.761231 190.779038 
C 226.761231 172.708181 219.581603 155.375026 206.803577 142.597 
C 194.025551 129.818974 176.692396 122.639346 158.621538 122.639346 
C 140.550681 122.639346 123.217526 129.818974 110.4395 142.597 
C 97.661474 155.375026 90.481846 172.708181 90.481846 190.779038 
C 90.481846 208.849896 97.661474 226.183051 110.4395 238.961077 
C 123.217526 251.739103 140.550681 258.918731 158.621538 258.918731 
z
" clip-path="url(#p445f85f528)" style="fill: #add8e6; stroke: #000080; stroke-width: 2; stroke-linejoin: miter"/>
   </g>
   <g id="patch_3">
    <path d="M 385.753846 258.918731 
C 403.824704 258.918731 421.157859 251.739103 433.935885 238.961077 
C 446.713911 226.183051 453.893538 208.849896 453.893538 190.779038 
C 453.893538 172.708181 446.713911 155.375026 433.935885 142.597 
C 421.157859 129.818974 403.824704 122.639346 385.753846 122.639346 
C 367.682989 122.639346 350.349834 129.818974 337.571808 142.597 
C 324.793782 155.375026 317.614154 172.708181 317.614154 190.779038 
C 317.614154 208.849896 324.793782 226.183051 337.571808 238.961077 
C 350.349834 251.739103 367.682989 258.918731 385.753846 258.918731 
z
" clip-path="url(#p445f85f528)" style="fill: #add8e6; stroke: #000080; stroke-width: 2; stroke-linejoin: miter"/>
   </g>
   <g id="patch_4">
    <path d="M 612.886154 258.918731 
C 630.957011 258.918731 648.290166 251.739103 661.068192 238.961077 
C 673.846218 226.183051 681.025846 208.849896 681.025846 190.779038 
C 681.025846 172.708181 673.846218 155.375026 661.068192 142.597 
C 648.290166 129.818974 630.957011 122.639346 612.886154 122.639346 
C 594.815296 122.639346 577.482141 129.818974 564.704115 142.597 
C 551.926089 155.375026 544.746462 172.708181 544.746462 190.779038 
C 544.746462 208.849896 551.926089 226.183051 564.704115 238.961077 
C 577.482141 251.739103 594.815296 258.918731 612.886154 258.918731 
z
" clip-path="url(#p445f85f528)" style="fill: #add8e6; stroke: #000080; stroke-width: 2; stroke-linejoin: miter"/>
   </g>
   <g id="patch_5">
    <path d="M 840.018462 258.918731 
C 858.089319 258.918731 875.422474 251.739103 888.2005 238.961077 
C 900.978526 226.183051 908.158154 208.849896 908.158154 190.779038 
C 908.158154 172.708181 900.978526 155.375026 888.2005 142.597 
C 875.422474 129.818974 858.089319 122.639346 840.018462 122.639346 
C 821.947604 122.639346 804.614449 129.818974 791.836423 142.597 
C 779.058397 155.375026 771.878769 172.708181 771.878769 190.779038 
C 771.878769 208.849896 779.058397 226.183051 791.836423 238.961077 
C 804.614449 251.739103 821.947604 258.918731 840.018462 258.918731 
z
" clip-path="url(#p445f85f528)" style="fill: #add8e6; stroke: #000080; stroke-width: 2; stroke-linejoin: miter"/>
   </g>
   <g id="patch_6">
    <path d="M 234.332308 546.619654 
L 385.753846 546.619654 
Q 393.324923 546.619654 393.324923 539.048577 
L 393.324923 448.195654 
Q 393.324923 440.624577 385.753846 440.624577 
L 234.332308 440.624577 
Q 226.761231 440.624577 226.761231 448.195654 
L 226.761231 539.048577 
Q 226.761231 546.619654 234.332308 546.619654 
z
" clip-path="url(#p445f85f528)" style="fill: #ffa500; stroke: #000000; stroke-width: 2; stroke-linejoin: miter"/>
   </g>
   <g id="patch_7">
    <path d="M 612.886154 546.619654 
L 764.307692 546.619654 
Q 771.878769 546.619654 771.878769 539.048577 
L 771.878769 448.195654 
Q 771.878769 440.624577 764.307692 440.624577 
L 612.886154 440.624577 
Q 605.315077 440.624577 605.315077 448.195654 
L 605.315077 539.048577 
Q 605.315077 546.619654 612.886154 546.619654 
z
" clip-path="url(#p445f85f528)" style="fill: #ffa500; stroke: #000000; stroke-width: 2; stroke-linejoin: miter"/>
   </g>
   <g id="line2d_1">
    <path d="M 158.621538 258.918731 
L 310.043077 448.195654 
" clip-path="url(#p445f85f528)" style="fill: none; stroke: #0000ff; stroke-width: 2; stroke-linecap: square"/>
   </g>
   <!-- Latency label for LBW SW 0 to OCS 1 -->
   <g id="latency_text_1">
    <text x="180" y="290" font-family="DejaVu Sans" font-size="10" fill="#0000ff" text-anchor="middle">0.562ms</text>
   </g>
   <g id="line2d_2">
    <path d="M 158.621538 258.918731 
L 688.596923 448.195654 
" clip-path="url(#p445f85f528)" style="fill: none; stroke: #008000; stroke-width: 2; stroke-linecap: square"/>
   </g>
   <!-- Latency label for LBW SW 0 to OCS 2 -->
   <g id="latency_text_2">
    <text x="200" y="300" font-family="DejaVu Sans" font-size="10" fill="#008000" text-anchor="middle">0.340ms</text>
   </g>
   <g id="line2d_3">
    <path d="M 385.753846 258.918731 
L 310.043077 448.195654 
" clip-path="url(#p445f85f528)" style="fill: none; stroke: #0000ff; stroke-width: 2; stroke-linecap: square"/>
   </g>
   <!-- Latency label for LBW SW 1 to OCS 1 -->
   <g id="latency_text_3">
    <text x="365" y="290" font-family="DejaVu Sans" font-size="10" fill="#0000ff" text-anchor="middle">0.501ms</text>
   </g>
   <g id="line2d_4">
    <path d="M 385.753846 258.918731 
L 688.596923 448.195654 
" clip-path="url(#p445f85f528)" style="fill: none; stroke: #008000; stroke-width: 2; stroke-linecap: square"/>
   </g>
   <!-- Latency label for LBW SW 1 to OCS 2 -->
   <g id="latency_text_4">
    <text x="420" y="300" font-family="DejaVu Sans" font-size="10" fill="#008000" text-anchor="middle">0.411ms</text>
   </g>
   <g id="line2d_5">
    <path d="M 612.886154 258.918731 
L 310.043077 448.195654 
" clip-path="url(#p445f85f528)" style="fill: none; stroke: #0000ff; stroke-width: 2; stroke-linecap: square"/>
   </g>
   <!-- Latency label for LBW SW 2 to OCS 1 -->
   <g id="latency_text_5">
    <text x="590" y="290" font-family="DejaVu Sans" font-size="10" fill="#0000ff" text-anchor="middle">0.402ms</text>
   </g>
   <g id="line2d_6">
    <path d="M 612.886154 258.918731 
L 688.596923 448.195654 
" clip-path="url(#p445f85f528)" style="fill: none; stroke: #008000; stroke-width: 2; stroke-linecap: square"/>
   </g>
   <!-- Latency label for LBW SW 2 to OCS 2 -->
   <g id="latency_text_6">
    <text x="640" y="300" font-family="DejaVu Sans" font-size="10" fill="#008000" text-anchor="middle">0.670ms</text>
   </g>
   <g id="line2d_7">
    <path d="M 840.018462 258.918731 
L 310.043077 448.195654 
" clip-path="url(#p445f85f528)" style="fill: none; stroke: #0000ff; stroke-width: 2; stroke-linecap: square"/>
   </g>
   <!-- Latency label for LBW SW 3 to OCS 1 -->
   <g id="latency_text_7">
    <text x="810" y="290" font-family="DejaVu Sans" font-size="10" fill="#0000ff" text-anchor="middle">0.317ms</text>
   </g>
   <g id="line2d_8">
    <path d="M 840.018462 258.918731 
L 688.596923 448.195654 
" clip-path="url(#p445f85f528)" style="fill: none; stroke: #008000; stroke-width: 2; stroke-linecap: square"/>
   </g>
   <!-- Latency label for LBW SW 3 to OCS 2 -->
   <g id="latency_text_8">
    <text x="820" y="300" font-family="DejaVu Sans" font-size="10" fill="#008000" text-anchor="middle">0.397ms</text>
   </g>
   <g id="text_1">
    <!-- LBW SW 0 -->
    <g transform="translate(130.309038 178.39626) scale(0.1 -0.1)">
     <defs>
      <path id="DejaVuSans-Bold-4c" d="M 588 4666 
L 1791 4666 
L 1791 909 
L 3903 909 
L 3903 0 
L 588 0 
L 588 4666 
z
" transform="scale(0.015625)"/>
      <path id="DejaVuSans-Bold-42" d="M 2456 2859 
Q 2741 2859 2887 2984 
Q 3034 3109 3034 3353 
Q 3034 3594 2887 3720 
Q 2741 3847 2456 3847 
L 1791 3847 
L 1791 2859 
L 2456 2859 
z
M 2497 819 
Q 2859 819 3042 972 
Q 3225 1125 3225 1434 
Q 3225 1738 3044 1889 
Q 2863 2041 2497 2041 
L 1791 2041 
L 1791 819 
L 2497 819 
z
M 3616 2497 
Q 4003 2384 4215 2081 
Q 4428 1778 4428 1338 
Q 4428 663 3972 331 
Q 3516 0 2584 0 
L 588 0 
L 588 4666 
L 2394 4666 
Q 3366 4666 3802 4372 
Q 4238 4078 4238 3431 
Q 4238 3091 4078 2852 
Q 3919 2613 3616 2497 
z
" transform="scale(0.015625)"/>
      <path id="DejaVuSans-Bold-57" d="M 191 4666 
L 1344 4666 
L 2150 1275 
L 2950 4666 
L 4109 4666 
L 4909 1275 
L 5716 4666 
L 6859 4666 
L 5759 0 
L 4372 0 
L 3525 3547 
L 2688 0 
L 1300 0 
L 191 4666 
z
" transform="scale(0.015625)"/>
      <path id="DejaVuSans-Bold-20" transform="scale(0.015625)"/>
      <path id="DejaVuSans-Bold-53" d="M 3834 4519 
L 3834 3531 
Q 3450 3703 3084 3790 
Q 2719 3878 2394 3878 
Q 1963 3878 1756 3759 
Q 1550 3641 1550 3391 
Q 1550 3203 1689 3098 
Q 1828 2994 2194 2919 
L 2706 2816 
Q 3484 2659 3812 2340 
Q 4141 2022 4141 1434 
Q 4141 663 3683 286 
Q 3225 -91 2284 -91 
Q 1841 -91 1394 -6 
Q 947 78 500 244 
L 500 1259 
Q 947 1022 1364 901 
Q 1781 781 2169 781 
Q 2563 781 2772 912 
Q 2981 1044 2981 1288 
Q 2981 1506 2839 1625 
Q 2697 1744 2272 1838 
L 1806 1941 
Q 1106 2091 782 2419 
Q 459 2747 459 3303 
Q 459 4000 909 4375 
Q 1359 4750 2203 4750 
Q 2588 4750 2994 4692 
Q 3400 4634 3834 4519 
z
" transform="scale(0.015625)"/>
      <path id="DejaVuSans-Bold-30" d="M 2944 2338 
Q 2944 3213 2780 3570 
Q 2616 3928 2228 3928 
Q 1841 3928 1675 3570 
Q 1509 3213 1509 2338 
Q 1509 1453 1675 1090 
Q 1841 728 2228 728 
Q 2613 728 2778 1090 
Q 2944 1453 2944 2338 
z
M 4147 2328 
Q 4147 1169 3647 539 
Q 3147 -91 2228 -91 
Q 1306 -91 806 539 
Q 306 1169 306 2328 
Q 306 3491 806 4120 
Q 1306 4750 2228 4750 
Q 3147 4750 3647 4120 
Q 4147 3491 4147 2328 
z
" transform="scale(0.015625)"/>
     </defs>
     <use xlink:href="#DejaVuSans-Bold-4c"/>
     <use xlink:href="#DejaVuSans-Bold-42" transform="translate(63.720703 0)"/>
     <use xlink:href="#DejaVuSans-Bold-57" transform="translate(134.441406 0)"/>
     <use xlink:href="#DejaVuSans-Bold-20" transform="translate(244.744141 0)"/>
     <use xlink:href="#DejaVuSans-Bold-53" transform="translate(279.558594 0)"/>
     <use xlink:href="#DejaVuSans-Bold-57" transform="translate(351.580078 0)"/>
     <use xlink:href="#DejaVuSans-Bold-20" transform="translate(461.882812 0)"/>
     <use xlink:href="#DejaVuSans-Bold-30" transform="translate(496.697266 0)"/>
    </g>
   </g>
   <g id="text_2">
    <!-- (Shanghai) -->
    <g transform="translate(136.802788 208.128692) scale(0.08 -0.08)">
     <defs>
      <path id="DejaVuSans-28" d="M 1984 4856 
Q 1566 4138 1362 3434 
Q 1159 2731 1159 2009 
Q 1159 1288 1364 580 
Q 1569 -128 1984 -844 
L 1484 -844 
Q 1016 -109 783 600 
Q 550 1309 550 2009 
Q 550 2706 781 3412 
Q 1013 4119 1484 4856 
L 1984 4856 
z
" transform="scale(0.015625)"/>
      <path id="DejaVuSans-53" d="M 3425 4513 
L 3425 3897 
Q 3066 4069 2747 4153 
Q 2428 4238 2131 4238 
Q 1616 4238 1336 4038 
Q 1056 3838 1056 3469 
Q 1056 3159 1242 3001 
Q 1428 2844 1947 2747 
L 2328 2669 
Q 3034 2534 3370 2195 
Q 3706 1856 3706 1288 
Q 3706 609 3251 259 
Q 2797 -91 1919 -91 
Q 1588 -91 1214 -16 
Q 841 59 441 206 
L 441 856 
Q 825 641 1194 531 
Q 1563 422 1919 422 
Q 2459 422 2753 634 
Q 3047 847 3047 1241 
Q 3047 1584 2836 1778 
Q 2625 1972 2144 2069 
L 1759 2144 
Q 1053 2284 737 2584 
Q 422 2884 422 3419 
Q 422 4038 858 4394 
Q 1294 4750 2059 4750 
Q 2388 4750 2728 4690 
Q 3069 4631 3425 4513 
z
" transform="scale(0.015625)"/>
      <path id="DejaVuSans-68" d="M 3513 2113 
L 3513 0 
L 2938 0 
L 2938 2094 
Q 2938 2591 2744 2837 
Q 2550 3084 2163 3084 
Q 1697 3084 1428 2787 
Q 1159 2491 1159 1978 
L 1159 0 
L 581 0 
L 581 4863 
L 1159 4863 
L 1159 2956 
Q 1366 3272 1645 3428 
Q 1925 3584 2291 3584 
Q 2894 3584 3203 3211 
Q 3513 2838 3513 2113 
z
" transform="scale(0.015625)"/>
      <path id="DejaVuSans-61" d="M 2194 1759 
Q 1497 1759 1228 1600 
Q 959 1441 959 1056 
Q 959 750 1161 570 
Q 1363 391 1709 391 
Q 2188 391 2477 730 
Q 2766 1069 2766 1631 
L 2766 1759 
L 2194 1759 
z
M 3341 1997 
L 3341 0 
L 2766 0 
L 2766 531 
Q 2569 213 2275 61 
Q 1981 -91 1556 -91 
Q 1019 -91 701 211 
Q 384 513 384 1019 
Q 384 1609 779 1909 
Q 1175 2209 1959 2209 
L 2766 2209 
L 2766 2266 
Q 2766 2663 2505 2880 
Q 2244 3097 1772 3097 
Q 1472 3097 1187 3025 
Q 903 2953 641 2809 
L 641 3341 
Q 956 3463 1253 3523 
Q 1550 3584 1831 3584 
Q 2591 3584 2966 3190 
Q 3341 2797 3341 1997 
z
" transform="scale(0.015625)"/>
      <path id="DejaVuSans-6e" d="M 3513 2113 
L 3513 0 
L 2938 0 
L 2938 2094 
Q 2938 2591 2744 2837 
Q 2550 3084 2163 3084 
Q 1697 3084 1428 2787 
Q 1159 2491 1159 1978 
L 1159 0 
L 581 0 
L 581 3500 
L 1159 3500 
L 1159 2956 
Q 1366 3272 1645 3428 
Q 1925 3584 2291 3584 
Q 2894 3584 3203 3211 
Q 3513 2838 3513 2113 
z
" transform="scale(0.015625)"/>
      <path id="DejaVuSans-67" d="M 2906 1791 
Q 2906 2416 2648 2759 
Q 2391 3103 1925 3103 
Q 1463 3103 1205 2759 
Q 947 2416 947 1791 
Q 947 1169 1205 825 
Q 1463 481 1925 481 
Q 2391 481 2648 825 
Q 2906 1169 2906 1791 
z
M 3481 434 
Q 3481 -459 3084 -895 
Q 2688 -1331 1869 -1331 
Q 1566 -1331 1297 -1286 
Q 1028 -1241 775 -1147 
L 775 -588 
Q 1028 -725 1275 -790 
Q 1522 -856 1778 -856 
Q 2344 -856 2625 -561 
Q 2906 -266 2906 331 
L 2906 616 
Q 2728 306 2450 153 
Q 2172 0 1784 0 
Q 1141 0 747 490 
Q 353 981 353 1791 
Q 353 2603 747 3093 
Q 1141 3584 1784 3584 
Q 2172 3584 2450 3431 
Q 2728 3278 2906 2969 
L 2906 3500 
L 3481 3500 
L 3481 434 
z
" transform="scale(0.015625)"/>
      <path id="DejaVuSans-69" d="M 603 3500 
L 1178 3500 
L 1178 0 
L 603 0 
L 603 3500 
z
M 603 4863 
L 1178 4863 
L 1178 4134 
L 603 4134 
L 603 4863 
z
" transform="scale(0.015625)"/>
      <path id="DejaVuSans-29" d="M 513 4856 
L 1013 4856 
Q 1481 4119 1714 3412 
Q 1947 2706 1947 2009 
Q 1947 1309 1714 600 
Q 1481 -109 1013 -844 
L 513 -844 
Q 928 -128 1133 580 
Q 1338 1288 1338 2009 
Q 1338 2731 1133 3434 
Q 928 4138 513 4856 
z
" transform="scale(0.015625)"/>
     </defs>
     <use xlink:href="#DejaVuSans-28"/>
     <use xlink:href="#DejaVuSans-53" transform="translate(39.013672 0)"/>
     <use xlink:href="#DejaVuSans-68" transform="translate(102.490234 0)"/>
     <use xlink:href="#DejaVuSans-61" transform="translate(165.869141 0)"/>
     <use xlink:href="#DejaVuSans-6e" transform="translate(227.148438 0)"/>
     <use xlink:href="#DejaVuSans-67" transform="translate(290.527344 0)"/>
     <use xlink:href="#DejaVuSans-68" transform="translate(354.003906 0)"/>
     <use xlink:href="#DejaVuSans-61" transform="translate(417.382812 0)"/>
     <use xlink:href="#DejaVuSans-69" transform="translate(478.662109 0)"/>
     <use xlink:href="#DejaVuSans-29" transform="translate(506.445312 0)"/>
    </g>
   </g>
   <g id="text_3">
    <!-- LBW SW 1 -->
    <g transform="translate(357.441346 178.39626) scale(0.1 -0.1)">
     <defs>
      <path id="DejaVuSans-Bold-31" d="M 750 831 
L 1813 831 
L 1813 3847 
L 722 3622 
L 722 4441 
L 1806 4666 
L 2950 4666 
L 2950 831 
L 4013 831 
L 4013 0 
L 750 0 
L 750 831 
z
" transform="scale(0.015625)"/>
     </defs>
     <use xlink:href="#DejaVuSans-Bold-4c"/>
     <use xlink:href="#DejaVuSans-Bold-42" transform="translate(63.720703 0)"/>
     <use xlink:href="#DejaVuSans-Bold-57" transform="translate(134.441406 0)"/>
     <use xlink:href="#DejaVuSans-Bold-20" transform="translate(244.744141 0)"/>
     <use xlink:href="#DejaVuSans-Bold-53" transform="translate(279.558594 0)"/>
     <use xlink:href="#DejaVuSans-Bold-57" transform="translate(351.580078 0)"/>
     <use xlink:href="#DejaVuSans-Bold-20" transform="translate(461.882812 0)"/>
     <use xlink:href="#DejaVuSans-Bold-31" transform="translate(496.697266 0)"/>
    </g>
   </g>
   <g id="text_4">
    <!-- (Suzhou) -->
    <g transform="translate(367.941346 208.128692) scale(0.08 -0.08)">
     <defs>
      <path id="DejaVuSans-75" d="M 544 1381 
L 544 3500 
L 1119 3500 
L 1119 1403 
Q 1119 906 1312 657 
Q 1506 409 1894 409 
Q 2359 409 2629 706 
Q 2900 1003 2900 1516 
L 2900 3500 
L 3475 3500 
L 3475 0 
L 2900 0 
L 2900 538 
Q 2691 219 2414 64 
Q 2138 -91 1772 -91 
Q 1169 -91 856 284 
Q 544 659 544 1381 
z
M 1991 3584 
L 1991 3584 
z
" transform="scale(0.015625)"/>
      <path id="DejaVuSans-7a" d="M 353 3500 
L 3084 3500 
L 3084 2975 
L 922 459 
L 3084 459 
L 3084 0 
L 275 0 
L 275 525 
L 2438 3041 
L 353 3041 
L 353 3500 
z
" transform="scale(0.015625)"/>
      <path id="DejaVuSans-6f" d="M 1959 3097 
Q 1497 3097 1228 2736 
Q 959 2375 959 1747 
Q 959 1119 1226 758 
Q 1494 397 1959 397 
Q 2419 397 2687 759 
Q 2956 1122 2956 1747 
Q 2956 2369 2687 2733 
Q 2419 3097 1959 3097 
z
M 1959 3584 
Q 2709 3584 3137 3096 
Q 3566 2609 3566 1747 
Q 3566 888 3137 398 
Q 2709 -91 1959 -91 
Q 1206 -91 779 398 
Q 353 888 353 1747 
Q 353 2609 779 3096 
Q 1206 3584 1959 3584 
z
" transform="scale(0.015625)"/>
     </defs>
     <use xlink:href="#DejaVuSans-28"/>
     <use xlink:href="#DejaVuSans-53" transform="translate(39.013672 0)"/>
     <use xlink:href="#DejaVuSans-75" transform="translate(102.490234 0)"/>
     <use xlink:href="#DejaVuSans-7a" transform="translate(165.869141 0)"/>
     <use xlink:href="#DejaVuSans-68" transform="translate(218.359375 0)"/>
     <use xlink:href="#DejaVuSans-6f" transform="translate(281.738281 0)"/>
     <use xlink:href="#DejaVuSans-75" transform="translate(342.919922 0)"/>
     <use xlink:href="#DejaVuSans-29" transform="translate(406.298828 0)"/>
    </g>
   </g>
   <g id="text_5">
    <!-- LBW SW 2 -->
    <g transform="translate(584.573654 178.39626) scale(0.1 -0.1)">
     <defs>
      <path id="DejaVuSans-Bold-32" d="M 1844 884 
L 3897 884 
L 3897 0 
L 506 0 
L 506 884 
L 2209 2388 
Q 2438 2594 2547 2791 
Q 2656 2988 2656 3200 
Q 2656 3528 2436 3728 
Q 2216 3928 1850 3928 
Q 1569 3928 1234 3808 
Q 900 3688 519 3450 
L 519 4475 
Q 925 4609 1322 4679 
Q 1719 4750 2100 4750 
Q 2938 4750 3402 4381 
Q 3866 4013 3866 3353 
Q 3866 2972 3669 2642 
Q 3472 2313 2841 1759 
L 1844 884 
z
" transform="scale(0.015625)"/>
     </defs>
     <use xlink:href="#DejaVuSans-Bold-4c"/>
     <use xlink:href="#DejaVuSans-Bold-42" transform="translate(63.720703 0)"/>
     <use xlink:href="#DejaVuSans-Bold-57" transform="translate(134.441406 0)"/>
     <use xlink:href="#DejaVuSans-Bold-20" transform="translate(244.744141 0)"/>
     <use xlink:href="#DejaVuSans-Bold-53" transform="translate(279.558594 0)"/>
     <use xlink:href="#DejaVuSans-Bold-57" transform="translate(351.580078 0)"/>
     <use xlink:href="#DejaVuSans-Bold-20" transform="translate(461.882812 0)"/>
     <use xlink:href="#DejaVuSans-Bold-32" transform="translate(496.697266 0)"/>
    </g>
   </g>
   <g id="text_6">
    <!-- (Hangzhou) -->
    <g transform="translate(589.614279 208.128692) scale(0.08 -0.08)">
     <defs>
      <path id="DejaVuSans-48" d="M 628 4666 
L 1259 4666 
L 1259 2753 
L 3553 2753 
L 3553 4666 
L 4184 4666 
L 4184 0 
L 3553 0 
L 3553 2222 
L 1259 2222 
L 1259 0 
L 628 0 
L 628 4666 
z
" transform="scale(0.015625)"/>
     </defs>
     <use xlink:href="#DejaVuSans-28"/>
     <use xlink:href="#DejaVuSans-48" transform="translate(39.013672 0)"/>
     <use xlink:href="#DejaVuSans-61" transform="translate(114.208984 0)"/>
     <use xlink:href="#DejaVuSans-6e" transform="translate(175.488281 0)"/>
     <use xlink:href="#DejaVuSans-67" transform="translate(238.867188 0)"/>
     <use xlink:href="#DejaVuSans-7a" transform="translate(302.34375 0)"/>
     <use xlink:href="#DejaVuSans-68" transform="translate(354.833984 0)"/>
     <use xlink:href="#DejaVuSans-6f" transform="translate(418.212891 0)"/>
     <use xlink:href="#DejaVuSans-75" transform="translate(479.394531 0)"/>
     <use xlink:href="#DejaVuSans-29" transform="translate(542.773438 0)"/>
    </g>
   </g>
   <g id="text_7">
    <!-- LBW SW 3 -->
    <g transform="translate(811.705962 178.39626) scale(0.1 -0.1)">
     <defs>
      <path id="DejaVuSans-Bold-33" d="M 2981 2516 
Q 3453 2394 3698 2092 
Q 3944 1791 3944 1325 
Q 3944 631 3412 270 
Q 2881 -91 1863 -91 
Q 1503 -91 1142 -33 
Q 781 25 428 141 
L 428 1069 
Q 766 900 1098 814 
Q 1431 728 1753 728 
Q 2231 728 2486 893 
Q 2741 1059 2741 1369 
Q 2741 1688 2480 1852 
Q 2219 2016 1709 2016 
L 1228 2016 
L 1228 2791 
L 1734 2791 
Q 2188 2791 2409 2933 
Q 2631 3075 2631 3366 
Q 2631 3634 2415 3781 
Q 2200 3928 1806 3928 
Q 1516 3928 1219 3862 
Q 922 3797 628 3669 
L 628 4550 
Q 984 4650 1334 4700 
Q 1684 4750 2022 4750 
Q 2931 4750 3382 4451 
Q 3834 4153 3834 3553 
Q 3834 3144 3618 2883 
Q 3403 2622 2981 2516 
z
" transform="scale(0.015625)"/>
     </defs>
     <use xlink:href="#DejaVuSans-Bold-4c"/>
     <use xlink:href="#DejaVuSans-Bold-42" transform="translate(63.720703 0)"/>
     <use xlink:href="#DejaVuSans-Bold-57" transform="translate(134.441406 0)"/>
     <use xlink:href="#DejaVuSans-Bold-20" transform="translate(244.744141 0)"/>
     <use xlink:href="#DejaVuSans-Bold-53" transform="translate(279.558594 0)"/>
     <use xlink:href="#DejaVuSans-Bold-57" transform="translate(351.580078 0)"/>
     <use xlink:href="#DejaVuSans-Bold-20" transform="translate(461.882812 0)"/>
     <use xlink:href="#DejaVuSans-Bold-33" transform="translate(496.697266 0)"/>
    </g>
   </g>
   <g id="text_8">
    <!-- (Ningbo) -->
    <g transform="translate(822.732212 208.128692) scale(0.08 -0.08)">
     <defs>
      <path id="DejaVuSans-4e" d="M 628 4666 
L 1478 4666 
L 3547 763 
L 3547 4666 
L 4159 4666 
L 4159 0 
L 3309 0 
L 1241 3903 
L 1241 0 
L 628 0 
L 628 4666 
z
" transform="scale(0.015625)"/>
      <path id="DejaVuSans-62" d="M 3116 1747 
Q 3116 2381 2855 2742 
Q 2594 3103 2138 3103 
Q 1681 3103 1420 2742 
Q 1159 2381 1159 1747 
Q 1159 1113 1420 752 
Q 1681 391 2138 391 
Q 2594 391 2855 752 
Q 3116 1113 3116 1747 
z
M 1159 2969 
Q 1341 3281 1617 3432 
Q 1894 3584 2278 3584 
Q 2916 3584 3314 3078 
Q 3713 2572 3713 1747 
Q 3713 922 3314 415 
Q 2916 -91 2278 -91 
Q 1894 -91 1617 61 
Q 1341 213 1159 525 
L 1159 0 
L 581 0 
L 581 4863 
L 1159 4863 
L 1159 2969 
z
" transform="scale(0.015625)"/>
     </defs>
     <use xlink:href="#DejaVuSans-28"/>
     <use xlink:href="#DejaVuSans-4e" transform="translate(39.013672 0)"/>
     <use xlink:href="#DejaVuSans-69" transform="translate(113.818359 0)"/>
     <use xlink:href="#DejaVuSans-6e" transform="translate(141.601562 0)"/>
     <use xlink:href="#DejaVuSans-67" transform="translate(204.980469 0)"/>
     <use xlink:href="#DejaVuSans-62" transform="translate(268.457031 0)"/>
     <use xlink:href="#DejaVuSans-6f" transform="translate(331.933594 0)"/>
     <use xlink:href="#DejaVuSans-29" transform="translate(393.115234 0)"/>
    </g>
   </g>
   <g id="text_9">
    <!-- OCS 1 -->
    <g transform="translate(291.525264 481.515274) scale(0.11 -0.11)">
     <defs>
      <path id="DejaVuSans-Bold-4f" d="M 2719 3878 
Q 2169 3878 1866 3472 
Q 1563 3066 1563 2328 
Q 1563 1594 1866 1187 
Q 2169 781 2719 781 
Q 3272 781 3575 1187 
Q 3878 1594 3878 2328 
Q 3878 3066 3575 3472 
Q 3272 3878 2719 3878 
z
M 2719 4750 
Q 3844 4750 4481 4106 
Q 5119 3463 5119 2328 
Q 5119 1197 4481 553 
Q 3844 -91 2719 -91 
Q 1597 -91 958 553 
Q 319 1197 319 2328 
Q 319 3463 958 4106 
Q 1597 4750 2719 4750 
z
" transform="scale(0.015625)"/>
      <path id="DejaVuSans-Bold-43" d="M 4288 256 
Q 3956 84 3597 -3 
Q 3238 -91 2847 -91 
Q 1681 -91 1000 561 
Q 319 1213 319 2328 
Q 319 3447 1000 4098 
Q 1681 4750 2847 4750 
Q 3238 4750 3597 4662 
Q 3956 4575 4288 4403 
L 4288 3438 
Q 3953 3666 3628 3772 
Q 3303 3878 2944 3878 
Q 2300 3878 1931 3465 
Q 1563 3053 1563 2328 
Q 1563 1606 1931 1193 
Q 2300 781 2944 781 
Q 3303 781 3628 887 
Q 3953 994 4288 1222 
L 4288 256 
z
" transform="scale(0.015625)"/>
     </defs>
     <use xlink:href="#DejaVuSans-Bold-4f"/>
     <use xlink:href="#DejaVuSans-Bold-43" transform="translate(85.009766 0)"/>
     <use xlink:href="#DejaVuSans-Bold-53" transform="translate(160.273438 0)"/>
     <use xlink:href="#DejaVuSans-Bold-20" transform="translate(232.294922 0)"/>
     <use xlink:href="#DejaVuSans-Bold-31" transform="translate(267.109375 0)"/>
    </g>
   </g>
   <g id="text_10">
    <!-- (Jiaxing) -->
    <g transform="translate(291.574093 511.247707) scale(0.09 -0.09)">
     <defs>
      <path id="DejaVuSans-4a" d="M 628 4666 
L 1259 4666 
L 1259 325 
Q 1259 -519 939 -900 
Q 619 -1281 -91 -1281 
L -331 -1281 
L -331 -750 
L -134 -750 
Q 284 -750 456 -515 
Q 628 -281 628 325 
L 628 4666 
z
" transform="scale(0.015625)"/>
      <path id="DejaVuSans-78" d="M 3513 3500 
L 2247 1797 
L 3578 0 
L 2900 0 
L 1881 1375 
L 863 0 
L 184 0 
L 1544 1831 
L 300 3500 
L 978 3500 
L 1906 2253 
L 2834 3500 
L 3513 3500 
z
" transform="scale(0.015625)"/>
     </defs>
     <use xlink:href="#DejaVuSans-28"/>
     <use xlink:href="#DejaVuSans-4a" transform="translate(39.013672 0)"/>
     <use xlink:href="#DejaVuSans-69" transform="translate(68.505859 0)"/>
     <use xlink:href="#DejaVuSans-61" transform="translate(96.289062 0)"/>
     <use xlink:href="#DejaVuSans-78" transform="translate(157.568359 0)"/>
     <use xlink:href="#DejaVuSans-69" transform="translate(216.748047 0)"/>
     <use xlink:href="#DejaVuSans-6e" transform="translate(244.53125 0)"/>
     <use xlink:href="#DejaVuSans-67" transform="translate(307.910156 0)"/>
     <use xlink:href="#DejaVuSans-29" transform="translate(371.386719 0)"/>
    </g>
   </g>
   <g id="text_11">
    <!-- OCS 2 -->
    <g transform="translate(670.079111 481.515274) scale(0.11 -0.11)">
     <use xlink:href="#DejaVuSans-Bold-4f"/>
     <use xlink:href="#DejaVuSans-Bold-43" transform="translate(85.009766 0)"/>
     <use xlink:href="#DejaVuSans-Bold-53" transform="translate(160.273438 0)"/>
     <use xlink:href="#DejaVuSans-Bold-20" transform="translate(232.294922 0)"/>
     <use xlink:href="#DejaVuSans-Bold-32" transform="translate(267.109375 0)"/>
    </g>
   </g>
   <g id="text_12">
    <!-- (Shanghai Songjiang) -->
    <g transform="translate(640.335126 511.247707) scale(0.09 -0.09)">
     <defs>
      <path id="DejaVuSans-20" transform="scale(0.015625)"/>
      <path id="DejaVuSans-6a" d="M 603 3500 
L 1178 3500 
L 1178 -63 
Q 1178 -731 923 -1031 
Q 669 -1331 103 -1331 
L -116 -1331 
L -116 -844 
L 38 -844 
Q 366 -844 484 -692 
Q 603 -541 603 -63 
L 603 3500 
z
M 603 4863 
L 1178 4863 
L 1178 4134 
L 603 4134 
L 603 4863 
z
" transform="scale(0.015625)"/>
     </defs>
     <use xlink:href="#DejaVuSans-28"/>
     <use xlink:href="#DejaVuSans-53" transform="translate(39.013672 0)"/>
     <use xlink:href="#DejaVuSans-68" transform="translate(102.490234 0)"/>
     <use xlink:href="#DejaVuSans-61" transform="translate(165.869141 0)"/>
     <use xlink:href="#DejaVuSans-6e" transform="translate(227.148438 0)"/>
     <use xlink:href="#DejaVuSans-67" transform="translate(290.527344 0)"/>
     <use xlink:href="#DejaVuSans-68" transform="translate(354.003906 0)"/>
     <use xlink:href="#DejaVuSans-61" transform="translate(417.382812 0)"/>
     <use xlink:href="#DejaVuSans-69" transform="translate(478.662109 0)"/>
     <use xlink:href="#DejaVuSans-20" transform="translate(506.445312 0)"/>
     <use xlink:href="#DejaVuSans-53" transform="translate(538.232422 0)"/>
     <use xlink:href="#DejaVuSans-6f" transform="translate(601.708984 0)"/>
     <use xlink:href="#DejaVuSans-6e" transform="translate(662.890625 0)"/>
     <use xlink:href="#DejaVuSans-67" transform="translate(726.269531 0)"/>
     <use xlink:href="#DejaVuSans-6a" transform="translate(789.746094 0)"/>
     <use xlink:href="#DejaVuSans-69" transform="translate(817.529297 0)"/>
     <use xlink:href="#DejaVuSans-61" transform="translate(845.3125 0)"/>
     <use xlink:href="#DejaVuSans-6e" transform="translate(906.591797 0)"/>
     <use xlink:href="#DejaVuSans-67" transform="translate(969.970703 0)"/>
     <use xlink:href="#DejaVuSans-29" transform="translate(1033.447266 0)"/>
    </g>
   </g>
   <g id="text_13">
    <!-- Dual OCS Physical Topology -->
    <g transform="translate(374.44625 19.3575) scale(0.16 -0.16)">
     <defs>
      <path id="DejaVuSans-Bold-44" d="M 1791 3756 
L 1791 909 
L 2222 909 
Q 2959 909 3348 1275 
Q 3738 1641 3738 2338 
Q 3738 3031 3350 3393 
Q 2963 3756 2222 3756 
L 1791 3756 
z
M 588 4666 
L 1856 4666 
Q 2919 4666 3439 4514 
Q 3959 4363 4331 4000 
Q 4659 3684 4818 3271 
Q 4978 2859 4978 2338 
Q 4978 1809 4818 1395 
Q 4659 981 4331 666 
Q 3956 303 3431 151 
Q 2906 0 1856 0 
L 588 0 
L 588 4666 
z
" transform="scale(0.015625)"/>
      <path id="DejaVuSans-Bold-75" d="M 500 1363 
L 500 3500 
L 1625 3500 
L 1625 3150 
Q 1625 2866 1622 2436 
Q 1619 2006 1619 1863 
Q 1619 1441 1641 1255 
Q 1663 1069 1716 984 
Q 1784 875 1895 815 
Q 2006 756 2150 756 
Q 2500 756 2700 1025 
Q 2900 1294 2900 1772 
L 2900 3500 
L 4019 3500 
L 4019 0 
L 2900 0 
L 2900 506 
Q 2647 200 2364 54 
Q 2081 -91 1741 -91 
Q 1134 -91 817 281 
Q 500 653 500 1363 
z
" transform="scale(0.015625)"/>
      <path id="DejaVuSans-Bold-61" d="M 2106 1575 
Q 1756 1575 1579 1456 
Q 1403 1338 1403 1106 
Q 1403 894 1545 773 
Q 1688 653 1941 653 
Q 2256 653 2472 879 
Q 2688 1106 2688 1447 
L 2688 1575 
L 2106 1575 
z
M 3816 1997 
L 3816 0 
L 2688 0 
L 2688 519 
Q 2463 200 2181 54 
Q 1900 -91 1497 -91 
Q 953 -91 614 226 
Q 275 544 275 1050 
Q 275 1666 698 1953 
Q 1122 2241 2028 2241 
L 2688 2241 
L 2688 2328 
Q 2688 2594 2478 2717 
Q 2269 2841 1825 2841 
Q 1466 2841 1156 2769 
Q 847 2697 581 2553 
L 581 3406 
Q 941 3494 1303 3539 
Q 1666 3584 2028 3584 
Q 2975 3584 3395 3211 
Q 3816 2838 3816 1997 
z
" transform="scale(0.015625)"/>
      <path id="DejaVuSans-Bold-6c" d="M 538 4863 
L 1656 4863 
L 1656 0 
L 538 0 
L 538 4863 
z
" transform="scale(0.015625)"/>
      <path id="DejaVuSans-Bold-50" d="M 588 4666 
L 2584 4666 
Q 3475 4666 3951 4270 
Q 4428 3875 4428 3144 
Q 4428 2409 3951 2014 
Q 3475 1619 2584 1619 
L 1791 1619 
L 1791 0 
L 588 0 
L 588 4666 
z
M 1791 3794 
L 1791 2491 
L 2456 2491 
Q 2806 2491 2997 2661 
Q 3188 2831 3188 3144 
Q 3188 3456 2997 3625 
Q 2806 3794 2456 3794 
L 1791 3794 
z
" transform="scale(0.015625)"/>
      <path id="DejaVuSans-Bold-68" d="M 4056 2131 
L 4056 0 
L 2931 0 
L 2931 347 
L 2931 1625 
Q 2931 2084 2911 2256 
Q 2891 2428 2841 2509 
Q 2775 2619 2662 2680 
Q 2550 2741 2406 2741 
Q 2056 2741 1856 2470 
Q 1656 2200 1656 1722 
L 1656 0 
L 538 0 
L 538 4863 
L 1656 4863 
L 1656 2988 
Q 1909 3294 2193 3439 
Q 2478 3584 2822 3584 
Q 3428 3584 3742 3212 
Q 4056 2841 4056 2131 
z
" transform="scale(0.015625)"/>
      <path id="DejaVuSans-Bold-79" d="M 78 3500 
L 1197 3500 
L 2138 1125 
L 2938 3500 
L 4056 3500 
L 2584 -331 
Q 2363 -916 2067 -1148 
Q 1772 -1381 1288 -1381 
L 641 -1381 
L 641 -647 
L 991 -647 
Q 1275 -647 1404 -556 
Q 1534 -466 1606 -231 
L 1638 -134 
L 78 3500 
z
" transform="scale(0.015625)"/>
      <path id="DejaVuSans-Bold-73" d="M 3272 3391 
L 3272 2541 
Q 2913 2691 2578 2766 
Q 2244 2841 1947 2841 
Q 1628 2841 1473 2761 
Q 1319 2681 1319 2516 
Q 1319 2381 1436 2309 
Q 1553 2238 1856 2203 
L 2053 2175 
Q 2913 2066 3209 1816 
Q 3506 1566 3506 1031 
Q 3506 472 3093 190 
Q 2681 -91 1863 -91 
Q 1516 -91 1145 -36 
Q 775 19 384 128 
L 384 978 
Q 719 816 1070 734 
Q 1422 653 1784 653 
Q 2113 653 2278 743 
Q 2444 834 2444 1013 
Q 2444 1163 2330 1236 
Q 2216 1309 1875 1350 
L 1678 1375 
Q 931 1469 631 1722 
Q 331 1975 331 2491 
Q 331 3047 712 3315 
Q 1094 3584 1881 3584 
Q 2191 3584 2531 3537 
Q 2872 3491 3272 3391 
z
" transform="scale(0.015625)"/>
      <path id="DejaVuSans-Bold-69" d="M 538 3500 
L 1656 3500 
L 1656 0 
L 538 0 
L 538 3500 
z
M 538 4863 
L 1656 4863 
L 1656 3950 
L 538 3950 
L 538 4863 
z
" transform="scale(0.015625)"/>
      <path id="DejaVuSans-Bold-63" d="M 3366 3391 
L 3366 2478 
Q 3138 2634 2908 2709 
Q 2678 2784 2431 2784 
Q 1963 2784 1702 2511 
Q 1441 2238 1441 1747 
Q 1441 1256 1702 982 
Q 1963 709 2431 709 
Q 2694 709 2930 787 
Q 3166 866 3366 1019 
L 3366 103 
Q 3103 6 2833 -42 
Q 2563 -91 2291 -91 
Q 1344 -91 809 395 
Q 275 881 275 1747 
Q 275 2613 809 3098 
Q 1344 3584 2291 3584 
Q 2566 3584 2833 3536 
Q 3100 3488 3366 3391 
z
" transform="scale(0.015625)"/>
      <path id="DejaVuSans-Bold-54" d="M 31 4666 
L 4331 4666 
L 4331 3756 
L 2784 3756 
L 2784 0 
L 1581 0 
L 1581 3756 
L 31 3756 
L 31 4666 
z
" transform="scale(0.015625)"/>
      <path id="DejaVuSans-Bold-6f" d="M 2203 2784 
Q 1831 2784 1636 2517 
Q 1441 2250 1441 1747 
Q 1441 1244 1636 976 
Q 1831 709 2203 709 
Q 2569 709 2762 976 
Q 2956 1244 2956 1747 
Q 2956 2250 2762 2517 
Q 2569 2784 2203 2784 
z
M 2203 3584 
Q 3106 3584 3614 3096 
Q 4122 2609 4122 1747 
Q 4122 884 3614 396 
Q 3106 -91 2203 -91 
Q 1297 -91 786 396 
Q 275 884 275 1747 
Q 275 2609 786 3096 
Q 1297 3584 2203 3584 
z
" transform="scale(0.015625)"/>
      <path id="DejaVuSans-Bold-70" d="M 1656 506 
L 1656 -1331 
L 538 -1331 
L 538 3500 
L 1656 3500 
L 1656 2988 
Q 1888 3294 2169 3439 
Q 2450 3584 2816 3584 
Q 3463 3584 3878 3070 
Q 4294 2556 4294 1747 
Q 4294 938 3878 423 
Q 3463 -91 2816 -91 
Q 2450 -91 2169 54 
Q 1888 200 1656 506 
z
M 2400 2772 
Q 2041 2772 1848 2508 
Q 1656 2244 1656 1747 
Q 1656 1250 1848 986 
Q 2041 722 2400 722 
Q 2759 722 2948 984 
Q 3138 1247 3138 1747 
Q 3138 2247 2948 2509 
Q 2759 2772 2400 2772 
z
" transform="scale(0.015625)"/>
      <path id="DejaVuSans-Bold-67" d="M 2919 594 
Q 2688 288 2409 144 
Q 2131 0 1766 0 
Q 1125 0 706 504 
Q 288 1009 288 1791 
Q 288 2575 706 3076 
Q 1125 3578 1766 3578 
Q 2131 3578 2409 3434 
Q 2688 3291 2919 2981 
L 2919 3500 
L 4044 3500 
L 4044 353 
Q 4044 -491 3511 -936 
Q 2978 -1381 1966 -1381 
Q 1638 -1381 1331 -1331 
Q 1025 -1281 716 -1178 
L 716 -306 
Q 1009 -475 1290 -558 
Q 1572 -641 1856 -641 
Q 2406 -641 2662 -400 
Q 2919 -159 2919 353 
L 2919 594 
z
M 2181 2772 
Q 1834 2772 1640 2515 
Q 1447 2259 1447 1791 
Q 1447 1309 1634 1061 
Q 1822 813 2181 813 
Q 2531 813 2725 1069 
Q 2919 1325 2919 1791 
Q 2919 2259 2725 2515 
Q 2531 2772 2181 2772 
z
" transform="scale(0.015625)"/>
     </defs>
     <use xlink:href="#DejaVuSans-Bold-44"/>
     <use xlink:href="#DejaVuSans-Bold-75" transform="translate(83.007812 0)"/>
     <use xlink:href="#DejaVuSans-Bold-61" transform="translate(154.199219 0)"/>
     <use xlink:href="#DejaVuSans-Bold-6c" transform="translate(221.679688 0)"/>
     <use xlink:href="#DejaVuSans-Bold-20" transform="translate(255.957031 0)"/>
     <use xlink:href="#DejaVuSans-Bold-4f" transform="translate(290.771484 0)"/>
     <use xlink:href="#DejaVuSans-Bold-43" transform="translate(375.78125 0)"/>
     <use xlink:href="#DejaVuSans-Bold-53" transform="translate(451.044922 0)"/>
     <use xlink:href="#DejaVuSans-Bold-20" transform="translate(523.066406 0)"/>
     <use xlink:href="#DejaVuSans-Bold-50" transform="translate(557.880859 0)"/>
     <use xlink:href="#DejaVuSans-Bold-68" transform="translate(631.171875 0)"/>
     <use xlink:href="#DejaVuSans-Bold-79" transform="translate(702.363281 0)"/>
     <use xlink:href="#DejaVuSans-Bold-73" transform="translate(767.548828 0)"/>
     <use xlink:href="#DejaVuSans-Bold-69" transform="translate(827.070312 0)"/>
     <use xlink:href="#DejaVuSans-Bold-63" transform="translate(861.347656 0)"/>
     <use xlink:href="#DejaVuSans-Bold-61" transform="translate(920.625 0)"/>
     <use xlink:href="#DejaVuSans-Bold-6c" transform="translate(988.105469 0)"/>
     <use xlink:href="#DejaVuSans-Bold-20" transform="translate(1022.382812 0)"/>
     <use xlink:href="#DejaVuSans-Bold-54" transform="translate(1057.197266 0)"/>
     <use xlink:href="#DejaVuSans-Bold-6f" transform="translate(1112.160156 0)"/>
     <use xlink:href="#DejaVuSans-Bold-70" transform="translate(1180.861328 0)"/>
     <use xlink:href="#DejaVuSans-Bold-6f" transform="translate(1252.443359 0)"/>
     <use xlink:href="#DejaVuSans-Bold-6c" transform="translate(1321.144531 0)"/>
     <use xlink:href="#DejaVuSans-Bold-6f" transform="translate(1355.421875 0)"/>
     <use xlink:href="#DejaVuSans-Bold-67" transform="translate(1424.123047 0)"/>
     <use xlink:href="#DejaVuSans-Bold-79" transform="translate(1495.705078 0)"/>
    </g>
   </g>
   <g id="legend_1">
    <g id="patch_8">
     <path d="M 899.646719 80.449375 
L 983.74 80.449375 
Q 985.94 80.449375 985.94 78.249375 
L 985.94 47.0575 
Q 985.94 44.8575 983.74 44.8575 
L 899.646719 44.8575 
Q 897.446719 44.8575 897.446719 47.0575 
L 897.446719 78.249375 
Q 897.446719 80.449375 899.646719 80.449375 
z
" style="fill: #ffffff; opacity: 0.8; stroke: #cccccc; stroke-linejoin: miter"/>
    </g>
    <g id="line2d_9">
     <path d="M 901.846719 53.765781 
L 912.846719 53.765781 
L 923.846719 53.765781 
" style="fill: none; stroke: #0000ff; stroke-width: 2; stroke-linecap: square"/>
    </g>
    <g id="text_14">
     <!-- To OCS 1 -->
     <g transform="translate(932.646719 57.615781) scale(0.11 -0.11)">
      <defs>
       <path id="DejaVuSans-54" d="M -19 4666 
L 3928 4666 
L 3928 4134 
L 2272 4134 
L 2272 0 
L 1638 0 
L 1638 4134 
L -19 4134 
L -19 4666 
z
" transform="scale(0.015625)"/>
       <path id="DejaVuSans-4f" d="M 2522 4238 
Q 1834 4238 1429 3725 
Q 1025 3213 1025 2328 
Q 1025 1447 1429 934 
Q 1834 422 2522 422 
Q 3209 422 3611 934 
Q 4013 1447 4013 2328 
Q 4013 3213 3611 3725 
Q 3209 4238 2522 4238 
z
M 2522 4750 
Q 3503 4750 4090 4092 
Q 4678 3434 4678 2328 
Q 4678 1225 4090 567 
Q 3503 -91 2522 -91 
Q 1538 -91 948 565 
Q 359 1222 359 2328 
Q 359 3434 948 4092 
Q 1538 4750 2522 4750 
z
" transform="scale(0.015625)"/>
       <path id="DejaVuSans-43" d="M 4122 4306 
L 4122 3641 
Q 3803 3938 3442 4084 
Q 3081 4231 2675 4231 
Q 1875 4231 1450 3742 
Q 1025 3253 1025 2328 
Q 1025 1406 1450 917 
Q 1875 428 2675 428 
Q 3081 428 3442 575 
Q 3803 722 4122 1019 
L 4122 359 
Q 3791 134 3420 21 
Q 3050 -91 2638 -91 
Q 1578 -91 968 557 
Q 359 1206 359 2328 
Q 359 3453 968 4101 
Q 1578 4750 2638 4750 
Q 3056 4750 3426 4639 
Q 3797 4528 4122 4306 
z
" transform="scale(0.015625)"/>
       <path id="DejaVuSans-31" d="M 794 531 
L 1825 531 
L 1825 4091 
L 703 3866 
L 703 4441 
L 1819 4666 
L 2450 4666 
L 2450 531 
L 3481 531 
L 3481 0 
L 794 0 
L 794 531 
z
" transform="scale(0.015625)"/>
      </defs>
      <use xlink:href="#DejaVuSans-54"/>
      <use xlink:href="#DejaVuSans-6f" transform="translate(44.083984 0)"/>
      <use xlink:href="#DejaVuSans-20" transform="translate(105.265625 0)"/>
      <use xlink:href="#DejaVuSans-4f" transform="translate(137.052734 0)"/>
      <use xlink:href="#DejaVuSans-43" transform="translate(215.763672 0)"/>
      <use xlink:href="#DejaVuSans-53" transform="translate(285.587891 0)"/>
      <use xlink:href="#DejaVuSans-20" transform="translate(349.064453 0)"/>
      <use xlink:href="#DejaVuSans-31" transform="translate(380.851562 0)"/>
     </g>
    </g>
    <g id="line2d_10">
     <path d="M 901.846719 69.911719 
L 912.846719 69.911719 
L 923.846719 69.911719 
" style="fill: none; stroke: #008000; stroke-width: 2; stroke-linecap: square"/>
    </g>
    <g id="text_15">
     <!-- To OCS 2 -->
     <g transform="translate(932.646719 73.761719) scale(0.11 -0.11)">
      <defs>
       <path id="DejaVuSans-32" d="M 1228 531 
L 3431 531 
L 3431 0 
L 469 0 
L 469 531 
Q 828 903 1448 1529 
Q 2069 2156 2228 2338 
Q 2531 2678 2651 2914 
Q 2772 3150 2772 3378 
Q 2772 3750 2511 3984 
Q 2250 4219 1831 4219 
Q 1534 4219 1204 4116 
Q 875 4013 500 3803 
L 500 4441 
Q 881 4594 1212 4672 
Q 1544 4750 1819 4750 
Q 2544 4750 2975 4387 
Q 3406 4025 3406 3419 
Q 3406 3131 3298 2873 
Q 3191 2616 2906 2266 
Q 2828 2175 2409 1742 
Q 1991 1309 1228 531 
z
" transform="scale(0.015625)"/>
      </defs>
      <use xlink:href="#DejaVuSans-54"/>
      <use xlink:href="#DejaVuSans-6f" transform="translate(44.083984 0)"/>
      <use xlink:href="#DejaVuSans-20" transform="translate(105.265625 0)"/>
      <use xlink:href="#DejaVuSans-4f" transform="translate(137.052734 0)"/>
      <use xlink:href="#DejaVuSans-43" transform="translate(215.763672 0)"/>
      <use xlink:href="#DejaVuSans-53" transform="translate(285.587891 0)"/>
      <use xlink:href="#DejaVuSans-20" transform="translate(349.064453 0)"/>
      <use xlink:href="#DejaVuSans-32" transform="translate(380.851562 0)"/>
     </g>
    </g>
   </g>
  </g>
 </g>
 <defs>
  <clipPath id="p445f85f528">
   <rect x="7.2" y="39.3575" width="984.24" height="605.686154"/>
  </clipPath>
 </defs>
</svg>
